<svg xmlns="http://www.w3.org/2000/svg" xmlns:xlink="http://www.w3.org/1999/xlink" version="1.1" height='1000px' width='1000px' viewBox='0 0 1000 1000'><style type="text/css">.skin_fill{fill:#EAC2B0;} .skin_outline{fill:#62454F;} .skin_dark{fill:#CC887F;} .skin_halftone{fill:#8E665C;} .skin_freckles{fill:#CB9A88;} </style><style type="text/css">.hair_fill{fill:#504444;} .hair_outline{fill:#3B3131;} .hair_shadow{fill:#231A1A;} .hair_brow{fill:#4A3F3F;} </style><style type="text/css">.eye_iris{fill:#FBCCE7;} </style><style type="text/css">.bg_color{fill:#E2F4FF;} .bg_stop_1{stop-color:#E2F4FF;} .bg_stroke_1{stroke:#E2F4FF;} .bg_shape{fill:#FDCC55;} .bg_stop_2{stop-color:#FDCC55;} .bg_stroke_2{stroke:#FDCC55;} .bg_halftone{fill:#4C92E1;} .bg_stop_3{stop-color:#4C92E1;} .bg_stroke_3{stroke:#4C92E1;} </style><pattern id="backdrop_e" width="28.8" height="28.8" y="1000" overflow="visible" patternUnits="userSpaceOnUse" viewBox="1.4 -30.2 28.8 28.8"><defs><path id="backdrop_a" d="M1.4-30.2h28.8v28.8H1.4z"/></defs><clipPath id="backdrop_b"><use overflow="visible" xlink:href="#backdrop_a"/></clipPath><g class="bg_halftone" clip-path="url(#backdrop_b)"><path d="M30.2 0c.8 0 1.4-.6 1.4-1.4s-.6-1.4-1.4-1.4-1.4.6-1.4 1.4c0 .8.6 1.4 1.4 1.4zM15.8 0c.8 0 1.4-.6 1.4-1.4s-.6-1.4-1.4-1.4c-.8 0-1.4.6-1.4 1.4 0 .8.6 1.4 1.4 1.4zM30.2-14.4c.8 0 1.4-.6 1.4-1.4s-.6-1.4-1.4-1.4-1.4.6-1.4 1.4c0 .8.6 1.4 1.4 1.4zM15.8-14.4c.8 0 1.4-.6 1.4-1.4s-.6-1.4-1.4-1.4c-.8 0-1.4.6-1.4 1.4 0 .8.6 1.4 1.4 1.4zM8.6-7.2c.8 0 1.4-.6 1.4-1.4S9.4-10 8.6-10c-.8 0-1.4.6-1.4 1.4 0 .8.6 1.4 1.4 1.4zM23-7.2c.8 0 1.4-.6 1.4-1.4S23.8-10 23-10s-1.4.6-1.4 1.4.6 1.4 1.4 1.4zM8.6-21.6c.8 0 1.4-.6 1.4-1.4s-.6-1.4-1.4-1.4c-.8 0-1.4.6-1.4 1.4 0 .8.6 1.4 1.4 1.4zM23-21.6c.8 0 1.4-.6 1.4-1.4s-.6-1.4-1.4-1.4-1.4.6-1.4 1.4c0 .8.6 1.4 1.4 1.4z"/><g><path d="M1.4 0c.8 0 1.4-.6 1.4-1.4s-.6-1.4-1.4-1.4C.6-2.9 0-2.2 0-1.4 0-.6.6 0 1.4 0zM1.4-14.4c.8 0 1.4-.6 1.4-1.4s-.6-1.4-1.4-1.4-1.4.6-1.4 1.4.6 1.4 1.4 1.4z"/></g><g><path d="M30.2-28.8c.8 0 1.4-.6 1.4-1.4s-.6-1.4-1.4-1.4-1.4.6-1.4 1.4c0 .8.6 1.4 1.4 1.4zM15.8-28.8c.8 0 1.4-.6 1.4-1.4s-.6-1.4-1.4-1.4-1.4.6-1.4 1.4c0 .8.6 1.4 1.4 1.4z"/></g><path d="M1.4-28.8c.8 0 1.4-.6 1.4-1.4s-.6-1.4-1.4-1.4C.6-31.7 0-31 0-30.2c0 .8.6 1.4 1.4 1.4z"/></g></pattern><defs><path id="backdrop_c" d="M0 0h1000v1000H0z"/></defs><use class="bg_color" overflow="visible" xlink:href="#backdrop_c"/><clipPath id="backdrop_d"><use overflow="visible" xlink:href="#backdrop_c"/></clipPath><path class="bg_shape" d="M758.1 949.7v-400c110.5 0 200 89.5 200 200s-89.6 200-200 200z" clip-path="url(#backdrop_d)"/><circle cx="918.1" cy="622.2" r="40" fill="none" class="bg_stroke_3" stroke-miterlimit="10" stroke-width="2" clip-path="url(#backdrop_d)"/><circle cx="201.4" cy="288.8" r="20" class="bg_shape" clip-path="url(#backdrop_d)"/><path fill="none" class="bg_stroke_3" stroke-miterlimit="10" stroke-width="2" d="M71.3 325.3h100v100h-100z" clip-path="url(#backdrop_d)" transform="rotate(-90 121.284 375.347)"/><path fill="none" class="bg_stroke_2" stroke-miterlimit="10" d="M1107.2-22.4L-86.6 723.1" clip-path="url(#backdrop_d)"/><pattern id="backdrop_f" patternTransform="translate(21.536 -221.694)" xlink:href="#backdrop_e"/><path fill="url(#backdrop_f)" d="M-225.3 491.9l793.2-641.6h-853z" clip-path="url(#backdrop_d)"/><pattern id="backdrop_g" patternTransform="matrix(0 2 -2 0 -25537.377 6316.921)" xlink:href="#backdrop_e"/><path fill="url(#backdrop_g)" d="M678.1 797h707v100h-707z" clip-path="url(#backdrop_d)"/><pattern id="ear_k" width="28.8" height="28.8" x="250" y="750" overflow="visible" patternUnits="userSpaceOnUse" viewBox="1.4 -30.2 28.8 28.8"><g fill="#FFF"><path d="M30.2-31.6c.8 0 1.4.6 1.4 1.4 0 .8-.6 1.4-1.4 1.4s-1.4-.6-1.4-1.4c0-.8.6-1.4 1.4-1.4zM15.8-31.6c.8 0 1.4.6 1.4 1.4 0 .8-.6 1.4-1.4 1.4-.8 0-1.4-.6-1.4-1.4 0-.8.6-1.4 1.4-1.4zM30.2-17.2c.8 0 1.4.6 1.4 1.4s-.6 1.4-1.4 1.4-1.4-.6-1.4-1.4c0-.8.6-1.4 1.4-1.4zM15.8-17.2c.8 0 1.4.6 1.4 1.4s-.6 1.4-1.4 1.4c-.8 0-1.4-.6-1.4-1.4 0-.8.6-1.4 1.4-1.4zM8.6-24.4c.8 0 1.4.6 1.4 1.4 0 .8-.6 1.4-1.4 1.4-.8 0-1.4-.6-1.4-1.4 0-.8.6-1.4 1.4-1.4zM23-24.4c.8 0 1.4.6 1.4 1.4 0 .8-.6 1.4-1.4 1.4s-1.4-.6-1.4-1.4.6-1.4 1.4-1.4zM8.6-10c.8 0 1.4.6 1.4 1.4s-.6 1.4-1.4 1.4c-.8 0-1.4-.6-1.4-1.4 0-.8.6-1.4 1.4-1.4zM23-10c.8 0 1.4.6 1.4 1.4s-.6 1.4-1.4 1.4-1.4-.6-1.4-1.4.6-1.4 1.4-1.4z"/></g><g fill="#FFF"><path d="M1.4-31.6c.8 0 1.4.6 1.4 1.4 0 .8-.6 1.4-1.4 1.4-.8.1-1.4-.6-1.4-1.4 0-.8.6-1.4 1.4-1.4zM1.4-17.2c.8 0 1.4.6 1.4 1.4s-.6 1.4-1.4 1.4S0-15 0-15.8s.6-1.4 1.4-1.4z"/></g><g fill="#FFF"><path d="M30.2-2.8c.8 0 1.4.6 1.4 1.4S31 0 30.2 0s-1.4-.6-1.4-1.4c0-.8.6-1.4 1.4-1.4zM15.8-2.8c.8 0 1.4.6 1.4 1.4S16.6 0 15.8 0s-1.4-.6-1.4-1.4c0-.8.6-1.4 1.4-1.4z"/></g><path fill="#FFF" d="M1.4-2.8c.8 0 1.4.6 1.4 1.4S2.2 0 1.4 0C.6.1 0-.6 0-1.4c0-.8.6-1.4 1.4-1.4z"/></pattern><pattern id="ear_n" width="28.8" height="28.8" x="250" y="750" overflow="visible" patternUnits="userSpaceOnUse" viewBox="1.4 -30.2 28.8 28.8"><g fill="#FFF"><path d="M30.2-31.6c.8 0 1.4.6 1.4 1.4 0 .8-.6 1.4-1.4 1.4s-1.4-.6-1.4-1.4c0-.8.6-1.4 1.4-1.4zM15.8-31.6c.8 0 1.4.6 1.4 1.4 0 .8-.6 1.4-1.4 1.4-.8 0-1.4-.6-1.4-1.4 0-.8.6-1.4 1.4-1.4zM30.2-17.2c.8 0 1.4.6 1.4 1.4s-.6 1.4-1.4 1.4-1.4-.6-1.4-1.4c0-.8.6-1.4 1.4-1.4zM15.8-17.2c.8 0 1.4.6 1.4 1.4s-.6 1.4-1.4 1.4c-.8 0-1.4-.6-1.4-1.4 0-.8.6-1.4 1.4-1.4zM8.6-24.4c.8 0 1.4.6 1.4 1.4 0 .8-.6 1.4-1.4 1.4-.8 0-1.4-.6-1.4-1.4 0-.8.6-1.4 1.4-1.4zM23-24.4c.8 0 1.4.6 1.4 1.4 0 .8-.6 1.4-1.4 1.4s-1.4-.6-1.4-1.4.6-1.4 1.4-1.4zM8.6-10c.8 0 1.4.6 1.4 1.4s-.6 1.4-1.4 1.4c-.8 0-1.4-.6-1.4-1.4 0-.8.6-1.4 1.4-1.4zM23-10c.8 0 1.4.6 1.4 1.4s-.6 1.4-1.4 1.4-1.4-.6-1.4-1.4.6-1.4 1.4-1.4z"/></g><g fill="#FFF"><path d="M1.4-31.6c.8 0 1.4.6 1.4 1.4 0 .8-.6 1.4-1.4 1.4-.8.1-1.4-.6-1.4-1.4 0-.8.6-1.4 1.4-1.4zM1.4-17.2c.8 0 1.4.6 1.4 1.4s-.6 1.4-1.4 1.4S0-15 0-15.8s.6-1.4 1.4-1.4z"/></g><g fill="#FFF"><path d="M30.2-2.8c.8 0 1.4.6 1.4 1.4S31 0 30.2 0s-1.4-.6-1.4-1.4c0-.8.6-1.4 1.4-1.4zM15.8-2.8c.8 0 1.4.6 1.4 1.4S16.6 0 15.8 0s-1.4-.6-1.4-1.4c0-.8.6-1.4 1.4-1.4z"/></g><path fill="#FFF" d="M1.4-2.8c.8 0 1.4.6 1.4 1.4S2.2 0 1.4 0C.6.1 0-.6 0-1.4c0-.8.6-1.4 1.4-1.4z"/></pattern><pattern id="ear_i" width="48" height="48" x="250" y="750" overflow="visible" patternUnits="userSpaceOnUse" viewBox="4.8 -52.8 48 48"><defs><path id="ear_a" d="M4.8-52.8h48v48h-48z"/></defs><clipPath id="ear_b"><use overflow="visible" xlink:href="#ear_a"/></clipPath><g class="skin_dark" clip-path="url(#ear_b)"><path d="M28.8-57.6c2.7 0 4.8 2.1 4.8 4.8S31.5-48 28.8-48 24-50.2 24-52.8c0-2.7 2.1-4.8 4.8-4.8zM52.8-57.6c2.7 0 4.8 2.1 4.8 4.8S55.5-48 52.8-48 48-50.2 48-52.8c0-2.7 2.1-4.8 4.8-4.8zM28.8-33.6c2.7 0 4.8 2.1 4.8 4.8S31.5-24 28.8-24 24-26.1 24-28.8s2.1-4.8 4.8-4.8zM52.8-33.6c2.7 0 4.8 2.1 4.8 4.8S55.5-24 52.8-24 48-26.1 48-28.8s2.1-4.8 4.8-4.8zM40.8-45.6c2.7 0 4.8 2.1 4.8 4.8S43.5-36 40.8-36 36-38.2 36-40.8c0-2.7 2.1-4.8 4.8-4.8zM16.8-45.6c2.7 0 4.8 2.1 4.8 4.8S19.5-36 16.8-36 12-38.2 12-40.8c0-2.7 2.1-4.8 4.8-4.8zM40.8-21.6c2.7 0 4.8 2.1 4.8 4.8S43.5-12 40.8-12 36-14.1 36-16.8s2.1-4.8 4.8-4.8zM16.8-21.6c2.7 0 4.8 2.1 4.8 4.8S19.5-12 16.8-12 12-14.1 12-16.8s2.1-4.8 4.8-4.8z"/></g><defs><path id="ear_c" d="M4.8-52.8h48v48h-48z"/></defs><clipPath id="ear_d"><use overflow="visible" xlink:href="#ear_c"/></clipPath><g class="skin_dark" clip-path="url(#ear_d)"><path d="M4.8-57.6c2.7 0 4.8 2.1 4.8 4.8S7.5-48 4.8-48 0-50.1 0-52.8s2.1-4.8 4.8-4.8zM4.8-33.6c2.7 0 4.8 2.1 4.8 4.8S7.5-24 4.8-24 0-26.1 0-28.8s2.1-4.8 4.8-4.8z"/></g><g><defs><path id="ear_e" d="M4.8-52.8h48v48h-48z"/></defs><clipPath id="ear_f"><use overflow="visible" xlink:href="#ear_e"/></clipPath><g class="skin_dark" clip-path="url(#ear_f)"><path d="M28.8-9.6c2.7 0 4.8 2.1 4.8 4.8S31.5 0 28.8 0 24-2.2 24-4.8c0-2.7 2.1-4.8 4.8-4.8zM52.8-9.6c2.7 0 4.8 2.1 4.8 4.8S55.5 0 52.8 0 48-2.2 48-4.8c0-2.7 2.1-4.8 4.8-4.8z"/></g></g><g><defs><path id="ear_g" d="M4.8-52.8h48v48h-48z"/></defs><clipPath id="ear_h"><use overflow="visible" xlink:href="#ear_g"/></clipPath><path class="skin_dark" d="M4.8-9.6c2.7 0 4.8 2.1 4.8 4.8S7.5 0 4.8 0 0-2.2 0-4.8c0-2.7 2.1-4.8 4.8-4.8z" clip-path="url(#ear_h)"/></g></pattern><path class="skin_fill" d="M303.2 465.4v-54.2M695.6 411.2l-19.2-7.6c-22.4 32-10.5 16.9-54.1 67.7l21.3 80.1 20.5-6.1c9-20.7 34.4-79.4 34.4-79.4l-2.9-54.7z"/><pattern id="ear_j" patternTransform="matrix(-.226 0 0 -.226 -105082.07 -29716.85)" xlink:href="#ear_i"/><path fill="url(#ear_j)" d="M689 465.3c0-50-8.5-44.7-7.8-46.7-13.5 35.7-18 48-19.7 52.1-.6 1.5 9.9 3.2 5.1 14.8-10.4 28.3-5.2 5.8-6.2 35.6 0 .3 28.6-55.9 28.6-55.8z"/><path class="skin_outline" d="M663.6 471.7c4.6-9.3 38.6-112.6-2.9-2-1.6 5 8.1 6.7 5 14.7-10.7 26.7-9.1 26.9 2.8 1 3.4-7.6-3.3-13.7-4.9-13.7z"/><path fill="#E9C64A" d="M652.9 526.6c6.5-6.5 16.5 3.3 9.9 9.9-6.6 6.5-16.5-3.3-9.9-9.9z"/><path fill="#E9BB3D" d="M654.3 528.1c4.6-4.6 11.6 2.4 7 7-4.6 4.5-11.6-2.4-7-7z"/><pattern id="ear_l" patternTransform="matrix(-.0825 -.0825 -.0825 .0825 -34039.059 3278.734)" xlink:href="#ear_k"/><path fill="url(#ear_l)" d="M655.9 535c5.8 3.6 9.4-7 2.6-7.7 3.7 2.4 1.7 8.1-2.6 7.7z"/><g><path class="skin_fill" d="M301.5 465.9s25.4 58.7 34.4 79.4l20.5 6.1 21.3-80.1c-43.6-50.8-31.7-35.7-54.1-67.7l-19.2 7.6-2.9 54.7z"/><pattern id="ear_m" patternTransform="matrix(.226 0 0 -.226 42116.316 -29716.85)" xlink:href="#ear_i"/><path fill="url(#ear_m)" d="M339.6 521.1c-1-29.8 4.2-7.2-6.2-35.6-4.8-11.6 5.7-13.3 5.1-14.8-1.7-4.1-6.2-16.4-19.7-52.1.7 1.9-7.8-3.3-7.8 46.7 0-.1 28.6 56.1 28.6 55.8z"/><path class="skin_outline" d="M331.5 485.4c11.9 25.9 13.5 25.7 2.8-1-3.1-8 6.6-9.7 5-14.7-41.5-110.6-7.5-7.3-2.9 2-1.6 0-8.3 6.1-4.9 13.7z"/><path fill="#E9C64A" d="M347.1 526.6c-6.5-6.5-16.5 3.3-9.9 9.9 6.6 6.5 16.5-3.3 9.9-9.9z"/><path fill="#E9BB3D" d="M345.7 528.1c-4.6-4.6-11.6 2.4-7 7 4.6 4.5 11.6-2.4 7-7z"/><pattern id="ear_o" patternTransform="matrix(.0825 -.0825 .0825 .0825 -28972.959 3278.734)" xlink:href="#ear_n"/><path fill="url(#ear_o)" d="M344.1 535c-5.8 3.6-9.4-7-2.6-7.7-3.7 2.4-1.7 8.1 2.6 7.7z"/></g><pattern id="face_i" width="48" height="48" x="250" y="750" overflow="visible" patternUnits="userSpaceOnUse" viewBox="4.8 -52.8 48 48"><defs><path id="face_a" d="M4.8-52.8h48v48h-48z"/></defs><clipPath id="face_b"><use overflow="visible" xlink:href="#face_a"/></clipPath><g class="skin_dark" clip-path="url(#face_b)"><path d="M28.8-57.6c2.7 0 4.8 2.1 4.8 4.8S31.5-48 28.8-48 24-50.2 24-52.8c0-2.7 2.1-4.8 4.8-4.8zM52.8-57.6c2.7 0 4.8 2.1 4.8 4.8S55.5-48 52.8-48 48-50.2 48-52.8c0-2.7 2.1-4.8 4.8-4.8zM28.8-33.6c2.7 0 4.8 2.1 4.8 4.8S31.5-24 28.8-24 24-26.1 24-28.8s2.1-4.8 4.8-4.8zM52.8-33.6c2.7 0 4.8 2.1 4.8 4.8S55.5-24 52.8-24 48-26.1 48-28.8s2.1-4.8 4.8-4.8zM40.8-45.6c2.7 0 4.8 2.1 4.8 4.8S43.5-36 40.8-36 36-38.2 36-40.8c0-2.7 2.1-4.8 4.8-4.8zM16.8-45.6c2.7 0 4.8 2.1 4.8 4.8S19.5-36 16.8-36 12-38.2 12-40.8c0-2.7 2.1-4.8 4.8-4.8zM40.8-21.6c2.7 0 4.8 2.1 4.8 4.8S43.5-12 40.8-12 36-14.1 36-16.8s2.1-4.8 4.8-4.8zM16.8-21.6c2.7 0 4.8 2.1 4.8 4.8S19.5-12 16.8-12 12-14.1 12-16.8s2.1-4.8 4.8-4.8z"/></g><defs><path id="face_c" d="M4.8-52.8h48v48h-48z"/></defs><clipPath id="face_d"><use overflow="visible" xlink:href="#face_c"/></clipPath><g class="skin_dark" clip-path="url(#face_d)"><path d="M4.8-57.6c2.7 0 4.8 2.1 4.8 4.8S7.5-48 4.8-48 0-50.1 0-52.8s2.1-4.8 4.8-4.8zM4.8-33.6c2.7 0 4.8 2.1 4.8 4.8S7.5-24 4.8-24 0-26.1 0-28.8s2.1-4.8 4.8-4.8z"/></g><g><defs><path id="face_e" d="M4.8-52.8h48v48h-48z"/></defs><clipPath id="face_f"><use overflow="visible" xlink:href="#face_e"/></clipPath><g class="skin_dark" clip-path="url(#face_f)"><path d="M28.8-9.6c2.7 0 4.8 2.1 4.8 4.8S31.5 0 28.8 0 24-2.2 24-4.8c0-2.7 2.1-4.8 4.8-4.8zM52.8-9.6c2.7 0 4.8 2.1 4.8 4.8S55.5 0 52.8 0 48-2.2 48-4.8c0-2.7 2.1-4.8 4.8-4.8z"/></g></g><g><defs><path id="face_g" d="M4.8-52.8h48v48h-48z"/></defs><clipPath id="face_h"><use overflow="visible" xlink:href="#face_g"/></clipPath><path class="skin_dark" d="M4.8-9.6c2.7 0 4.8 2.1 4.8 4.8S7.5 0 4.8 0 0-2.2 0-4.8c0-2.7 2.1-4.8 4.8-4.8z" clip-path="url(#face_h)"/></g></pattern><path class="skin_fill" d="M615 653.2c24.5-13.8 40.1-39.6 40.7-67.9 4.2-196.8 27-310.5-87.5-354.7-42-18.4-92-19.4-136.4 0-113.9 44-92 158.2-87.6 354.9.6 28.4 16.3 54.2 40.8 67.9 0 83.2 10.4 68.4-55 92.2l169.8 150 170.2-150c-65.4-23.8-55-8.9-55-92.4z"/><pattern id="face_j" patternTransform="matrix(.26 0 0 -.26 -47496.309 1034.223)" xlink:href="#face_i"/><path fill="url(#face_j)" d="M453.6 706.4c0 5.5 4.5 10 10 10H535c5.5 0 10-4.5 10-10 69.9-33 66.1-31.1 70-33.3v-19.9c-3.6 2 .4.1-69.8 33.2 0 5.5-4.5 10-10 10h-71.4c-5.5 0-10-4.5-10-10-69.5-33.1-65.4-31.1-68.8-33v20.1c3.3 1.9-.9-.3 68.6 32.9z"/><path class="skin_outline" d="M656.7 539.9c-2.9-.1 2.9-192.7 3-112.5.1 43.8-1.9 112.5-3 112.5zM343.1 539.9c-2.8.1-4-192.5-1-112.5 1.7 43.8 2.2 112.5 1 112.5z"/><pattern id="face_k" patternTransform="matrix(.26 0 0 -.26 -47496.11 1043.223)" xlink:href="#face_i"/><path fill="url(#face_k)" d="M405.8 620.7c.8-45.2 3.6-53.8-7.3-61.8-24.1-17.7-35.5-71-35.5-71h-8.2c-.4 99-7.3 122.6 20.2 146.5 11.8 10.4 30.5 2.1 30.8-13.7z"/><pattern id="nose_n" width="28.8" height="28.8" x="250" y="750" overflow="visible" patternUnits="userSpaceOnUse" viewBox="1.4 -30.2 28.8 28.8"><defs><path id="nose_a" d="M1.4-30.2h28.8v28.8H1.4z"/></defs><clipPath id="nose_b"><use overflow="visible" xlink:href="#nose_a"/></clipPath><g clip-path="url(#nose_b)"><g fill="#FFF"><path d="M30.2 0c.8 0 1.4-.6 1.4-1.4s-.6-1.4-1.4-1.4-1.4.6-1.4 1.4c0 .8.6 1.4 1.4 1.4zM15.8 0c.8 0 1.4-.6 1.4-1.4s-.6-1.4-1.4-1.4c-.8 0-1.4.6-1.4 1.4 0 .8.6 1.4 1.4 1.4zM30.2-14.4c.8 0 1.4-.6 1.4-1.4s-.6-1.4-1.4-1.4-1.4.6-1.4 1.4c0 .8.6 1.4 1.4 1.4zM15.8-14.4c.8 0 1.4-.6 1.4-1.4s-.6-1.4-1.4-1.4c-.8 0-1.4.6-1.4 1.4 0 .8.6 1.4 1.4 1.4zM8.6-7.2c.8 0 1.4-.6 1.4-1.4S9.4-10 8.6-10c-.8 0-1.4.6-1.4 1.4 0 .8.6 1.4 1.4 1.4zM23-7.2c.8 0 1.4-.6 1.4-1.4S23.8-10 23-10s-1.4.6-1.4 1.4.6 1.4 1.4 1.4zM8.6-21.6c.8 0 1.4-.6 1.4-1.4s-.6-1.4-1.4-1.4c-.8 0-1.4.6-1.4 1.4 0 .8.6 1.4 1.4 1.4zM23-21.6c.8 0 1.4-.6 1.4-1.4s-.6-1.4-1.4-1.4-1.4.6-1.4 1.4c0 .8.6 1.4 1.4 1.4z"/></g><g fill="#FFF"><path d="M1.4 0c.8 0 1.4-.6 1.4-1.4s-.6-1.4-1.4-1.4C.6-2.9 0-2.2 0-1.4 0-.6.6 0 1.4 0zM1.4-14.4c.8 0 1.4-.6 1.4-1.4s-.6-1.4-1.4-1.4-1.4.6-1.4 1.4.6 1.4 1.4 1.4z"/></g><g fill="#FFF"><path d="M30.2-28.8c.8 0 1.4-.6 1.4-1.4s-.6-1.4-1.4-1.4-1.4.6-1.4 1.4c0 .8.6 1.4 1.4 1.4zM15.8-28.8c.8 0 1.4-.6 1.4-1.4s-.6-1.4-1.4-1.4-1.4.6-1.4 1.4c0 .8.6 1.4 1.4 1.4z"/></g><path fill="#FFF" d="M1.4-28.8c.8 0 1.4-.6 1.4-1.4s-.6-1.4-1.4-1.4C.6-31.7 0-31 0-30.2c0 .8.6 1.4 1.4 1.4z"/></g></pattern><pattern id="nose_k" width="48" height="48" x="250" y="750" overflow="visible" patternUnits="userSpaceOnUse" viewBox="4.8 -52.8 48 48"><defs><path id="nose_c" d="M4.8-52.8h48v48h-48z"/></defs><clipPath id="nose_d"><use overflow="visible" xlink:href="#nose_c"/></clipPath><g class="skin_dark" clip-path="url(#nose_d)"><path d="M28.8-57.6c2.7 0 4.8 2.1 4.8 4.8S31.5-48 28.8-48 24-50.2 24-52.8c0-2.7 2.1-4.8 4.8-4.8zM52.8-57.6c2.7 0 4.8 2.1 4.8 4.8S55.5-48 52.8-48 48-50.2 48-52.8c0-2.7 2.1-4.8 4.8-4.8zM28.8-33.6c2.7 0 4.8 2.1 4.8 4.8S31.5-24 28.8-24 24-26.1 24-28.8s2.1-4.8 4.8-4.8zM52.8-33.6c2.7 0 4.8 2.1 4.8 4.8S55.5-24 52.8-24 48-26.1 48-28.8s2.1-4.8 4.8-4.8zM40.8-45.6c2.7 0 4.8 2.1 4.8 4.8S43.5-36 40.8-36 36-38.2 36-40.8c0-2.7 2.1-4.8 4.8-4.8zM16.8-45.6c2.7 0 4.8 2.1 4.8 4.8S19.5-36 16.8-36 12-38.2 12-40.8c0-2.7 2.1-4.8 4.8-4.8zM40.8-21.6c2.7 0 4.8 2.1 4.8 4.8S43.5-12 40.8-12 36-14.1 36-16.8s2.1-4.8 4.8-4.8zM16.8-21.6c2.7 0 4.8 2.1 4.8 4.8S19.5-12 16.8-12 12-14.1 12-16.8s2.1-4.8 4.8-4.8z"/></g><defs><path id="nose_e" d="M4.8-52.8h48v48h-48z"/></defs><clipPath id="nose_f"><use overflow="visible" xlink:href="#nose_e"/></clipPath><g class="skin_dark" clip-path="url(#nose_f)"><path d="M4.8-57.6c2.7 0 4.8 2.1 4.8 4.8S7.5-48 4.8-48 0-50.1 0-52.8s2.1-4.8 4.8-4.8zM4.8-33.6c2.7 0 4.8 2.1 4.8 4.8S7.5-24 4.8-24 0-26.1 0-28.8s2.1-4.8 4.8-4.8z"/></g><g><defs><path id="nose_g" d="M4.8-52.8h48v48h-48z"/></defs><clipPath id="nose_h"><use overflow="visible" xlink:href="#nose_g"/></clipPath><g class="skin_dark" clip-path="url(#nose_h)"><path d="M28.8-9.6c2.7 0 4.8 2.1 4.8 4.8S31.5 0 28.8 0 24-2.2 24-4.8c0-2.7 2.1-4.8 4.8-4.8zM52.8-9.6c2.7 0 4.8 2.1 4.8 4.8S55.5 0 52.8 0 48-2.2 48-4.8c0-2.7 2.1-4.8 4.8-4.8z"/></g></g><g><defs><path id="nose_i" d="M4.8-52.8h48v48h-48z"/></defs><clipPath id="nose_j"><use overflow="visible" xlink:href="#nose_i"/></clipPath><path class="skin_dark" d="M4.8-9.6c2.7 0 4.8 2.1 4.8 4.8S7.5 0 4.8 0 0-2.2 0-4.8c0-2.7 2.1-4.8 4.8-4.8z" clip-path="url(#nose_j)"/></g></pattern><pattern id="nose_l" patternTransform="matrix(.252 0 0 -.252 -70852.266 -7206.028)" xlink:href="#nose_k"/><path fill="url(#nose_l)" d="M530.2 551.6c-18.7 0-11.1.9-22.8 8-4.4 2.6-10.3 2.7-14.7 0-11.8-7.1-4.1-8-22.8-8l17 14.9c7.6 6.7 18.9 6.7 26.4 0l16.9-14.9z"/><path class="skin_outline" d="M469.8 551.6c0-.9 11-3.2 16.2 1.2.7.5 5 4.2 8.3 5.8 6.4 3.1 5.7-1 5.7 3 0-4-.7.1 5.7-3 3.3-1.6 7.6-5.3 8.3-5.8 5.2-4.3 16.2-2.1 16.2-1.2 0 .9-10.3-.5-14.4 3.5-5.3 4.6-8.9 8.1-15.8 8.2-.1 0 0 1 0-1.7 0 .1.1 1.8 0 1.7-6.9-.1-10.5-3.6-15.8-8.2-4-3.9-14.4-2.6-14.4-3.5zM468.5 554.5c-.5.8-5-1.8-7.8-5-5-6.4-.9-13.1.6-17.6 3.5-9.4 12.7-6.8 12.5-5.9-.1.5-3 .5-5.4 1.6-3.2 1.5-3.5 4-4.6 7.2-2.2 6.3-3.6 8.7 0 14.1 3.1 3.7 5 5.1 4.7 5.6z"/><path class="skin_outline" d="M487.9 556.4s-13.9-.1-15.3-5.1c0 .1 9.8-1.5 15.3 5.1zM531.5 554.5c-.3-.5 1.7-2 3.8-4.4 5.6-6.7 2.1-10.5.2-17-1.1-3.6-1.9-5.2-7.7-6.4-4.8-.9 3.3-3.2 7.7.3 2.2 1.6 2.9 4.2 3.9 6.7 2.9 7.3 4 11.3-1.2 17.1-2.7 2.4-6.3 4.3-6.7 3.7zM512.1 556.4s13.9-.1 15.3-5.1c0 .1-9.8-1.5-15.3 5.1z"/><pattern id="nose_m" patternTransform="matrix(.252 0 0 -.252 -70852.266 -7206.028)" xlink:href="#nose_k"/><path fill="url(#nose_m)" d="M480.8 525.1l10.5-4.1v-73.3l-10.5-10z"/><pattern id="nose_o" patternTransform="rotate(180 27364.61 3312.582) scale(.416)" xlink:href="#nose_n"/><path fill="url(#nose_o)" d="M519.2 525.1l-10.5-4.1v-73.3l10.5-10z"/><pattern id="nose_p" patternTransform="matrix(-.4774 0 0 -.416 63977.293 6629.83)" xlink:href="#nose_n"/><path fill="url(#nose_p)" d="M508.2 545.3c0 8.2-16.3 8.2-16.3 0-.1-8.2 16.3-8.2 16.3 0z"/><path fill="#B7B7D0" d="M515.2 552c-4.8 2.8-3 3.1-4.8 7.6-3.9 10.2-17 10.2-20.9 0-1.7-4.5 0-4.8-4.8-7.6-1.7-.9-.5 19.1 15.2 19.1 15.9 0 17-20 15.3-19.1z"/><path fill="#A5A5B7" d="M487.5 557.6c.2 1.4 3.4 10.9 12.5 10.9s12.3-9.5 12.5-10.9c3.3-2.4 3.5-1.7 3.4-5.6 0-.9-4.1 2.6-4.2 2.6-2.4 17.4-21.2 16.6-23.5 0-.1-.1-4.2-3.6-4.2-2.6 0 3.9.2 3.2 3.5 5.6z"/><pattern id="mouth_i" width="28.8" height="28.8" x="250" y="750" overflow="visible" patternUnits="userSpaceOnUse" viewBox="1.4 -30.2 28.8 28.8"><defs><path id="mouth_a" d="M1.4-30.2h28.8v28.8H1.4z"/></defs><clipPath id="mouth_b"><use overflow="visible" xlink:href="#mouth_a"/></clipPath><g class="skin_halftone" clip-path="url(#mouth_b)"><path d="M30.2 0c1.9 0 1.9-2.8 0-2.8S28.3 0 30.2 0zM15.8 0c1.9 0 1.9-2.8 0-2.8S13.9 0 15.8 0zM30.2-14.4c1.9 0 1.9-2.8 0-2.8s-1.9 2.8 0 2.8zM15.8-14.4c1.9 0 1.9-2.8 0-2.8s-1.9 2.8 0 2.8zM8.6-7.2c1.9 0 1.9-2.8 0-2.8s-1.9 2.8 0 2.8zM23-7.2c1.9 0 1.9-2.8 0-2.8s-1.9 2.8 0 2.8zM8.6-21.6c1.9 0 1.9-2.8 0-2.8s-1.9 2.8 0 2.8zM23-21.6c1.9 0 1.9-2.8 0-2.8s-1.9 2.8 0 2.8z"/></g><defs><path id="mouth_c" d="M1.4-30.2h28.8v28.8H1.4z"/></defs><clipPath id="mouth_d"><use overflow="visible" xlink:href="#mouth_c"/></clipPath><g class="skin_halftone" clip-path="url(#mouth_d)"><path d="M1.4 0c1.9 0 1.9-2.8 0-2.8C-.4-3-.6 0 1.4 0zM1.4-14.4c1.9 0 1.9-2.8 0-2.8s-1.9 2.8 0 2.8z"/></g><g><defs><path id="mouth_e" d="M1.4-30.2h28.8v28.8H1.4z"/></defs><clipPath id="mouth_f"><use overflow="visible" xlink:href="#mouth_e"/></clipPath><g class="skin_halftone" clip-path="url(#mouth_f)"><path d="M30.2-28.8c1.9 0 1.9-2.8 0-2.8s-1.9 2.8 0 2.8zM15.8-28.8c1.9 0 1.9-2.8 0-2.8s-1.9 2.8 0 2.8z"/></g></g><g><defs><path id="mouth_g" d="M1.4-30.2h28.8v28.8H1.4z"/></defs><clipPath id="mouth_h"><use overflow="visible" xlink:href="#mouth_g"/></clipPath><path class="skin_halftone" d="M1.4-28.8c1.9 0 1.9-2.8 0-2.8-1.8-.2-2 2.8 0 2.8z" clip-path="url(#mouth_h)"/></g></pattern><path class="skin_dark" d="M522 614.1c3.2-1.8 6-7.8 2.2-14.1-4.2-6.9-14.6-12.6-17.1-12.6-8.6 2-5.3 2.1-14.3 0-2.4 0-12.9 5.6-17.1 12.6-3.8 6.3-1 12.3 2.2 14.1H522z"/><pattern id="mouth_j" patternTransform="matrix(.448 0 0 .448 -29381.309 3006.561)" xlink:href="#mouth_i"/><path fill="url(#mouth_j)" d="M522 614.1c3.2-1.8 6-7.8 2.2-14.1-4.2-6.9-14.6-12.6-17.1-12.6-8.6 2-5.3 2.1-14.3 0-2.4 0-12.9 5.6-17.1 12.6-3.8 6.3-1 12.3 2.2 14.1H522z"/><g class="skin_outline"><path d="M544.7 616c-.1 0 8.7-2.7 8.4-3.7-.3-1-12.7 2.5-20.5 3.4-7.9-.1-9.3-6.8-21.9-6.5 1.4-1.6 1.9-2.9 1.6-3.1-.7-.5-3.9 2.7-8.7 3.9-11.2 1.9-14.6-5.1-16-3.9-.3.2.1 1.5 1.6 3.1-17.3-.5-10.8 8.7-27.8 5.4-7.7-1.5-13.9-3.1-14.2-2.4-.2.5 3.2 2.2 8.4 3.7-26.5.6-29 1.9 9.2 2.7 17.1.3 9.4-8.8 31.6-5 7.7 1.2 8.9-1.3 16.7-.9 10 .4 10.9 5.9 18.1 6 23.1.3 53.1-1.7 13.5-2.7zM517.8 643c-6.1 2.1-8.8 1.7-23.3 1.7-15.8.1-19-5.8-19.7-4.7-.1.1 5.6 6.4 19.7 6.5 11.9 0 17.1.5 23.7-2.3 4.5-1.9 6.6-4.1 6.5-4.2-.1-.3-2.5 1.5-6.9 3z"/></g><g><path class="skin_dark" d="M499.8 613.6c-4.2 0-21.9-5.4-27.7 5.3-6.5 11.9 5.6 24.5 19.1 24.5 15.8 0 24.8 1.4 31.8-5.4 11.6-11.1 5.5-23.7-5.4-25.4-7.6-1.2-14.2 1-17.8 1z"/></g><path fill="#28351A" d="M627.2 486.2c5.3-2.5 3.5-10.5-2.3-10.5-4.2 0-3.2 1.5-3.2-5.8-4.1 0-3.1-1.5-3.1 5.8-3.6 0-2.7 1.3-2.7-5.8-4.1 0-3.1-1.5-3.1 5.8-8.5 0-6.9-1-6.9 3.1h4.6v18.4c-5.8 0-4.6-.9-4.6 3.1h6.9v6.2c4.1 0 3.1 1.5 3.1-6.2 3.6 0 2.7-1.2 2.7 6.2 4.1 0 3.1 1.5 3.1-6.2h3.2c8.2 0 10.1-11.5 2.3-14.1zm-11.4-7.3c3.3 0 7.6-.6 7.6 3.3 0 4-4.2 3.3-7.6 3.3v-6.6zm0 18.3v-8.3c4.2 0 9.4-.8 9.4 4.2.1 4.9-5.2 4.1-9.4 4.1z"/><path fill="none" stroke="#28351A" stroke-miterlimit="10" d="M636.1 488.2h7.7M636.1 485.2c3.5 0 2.2.6 5.9-3.1"/><path fill="#28351A" d="M643.3 481.9c0 1.5-2.2 1.5-2.2 0s2.2-1.5 2.2 0z"/><path fill="none" stroke="#28351A" stroke-miterlimit="10" d="M636.1 491.1c3.5 0 2.2-.6 5.9 3.1"/><path fill="#28351A" d="M643.3 494.4c0-1.5-2.2-1.5-2.2 0s2.2 1.5 2.2 0zM644.9 488.2c0 1.5-2.2 1.5-2.2 0s2.2-1.5 2.2 0z"/><g><path fill="none" stroke="#28351A" stroke-miterlimit="10" d="M602.6 488.2h-7.7M602.6 485.2c-3.5 0-2.2.6-5.9-3.1"/><path fill="#28351A" d="M595.4 481.9c0 1.5 2.2 1.5 2.2 0s-2.2-1.5-2.2 0z"/><path fill="none" stroke="#28351A" stroke-miterlimit="10" d="M602.6 491.1c-3.5 0-2.2-.6-5.9 3.1"/><path fill="#28351A" d="M595.4 494.4c0-1.5 2.2-1.5 2.2 0s-2.2 1.5-2.2 0zM593.8 488.2c0 1.5 2.2 1.5 2.2 0s-2.2-1.5-2.2 0z"/></g><pattern id="eye_d" width="28.8" height="28.8" x="250" y="750" overflow="visible" patternUnits="userSpaceOnUse" viewBox="1.4 -30.2 28.8 28.8"><defs><path id="eye_a" d="M1.4-30.2h28.8v28.8H1.4z"/></defs><clipPath id="eye_b"><use overflow="visible" xlink:href="#eye_a"/></clipPath><g clip-path="url(#eye_b)"><g fill="#FFF"><path d="M30.2 0c.8 0 1.4-.6 1.4-1.4s-.6-1.4-1.4-1.4-1.4.6-1.4 1.4c0 .8.6 1.4 1.4 1.4zM15.8 0c.8 0 1.4-.6 1.4-1.4s-.6-1.4-1.4-1.4c-.8 0-1.4.6-1.4 1.4 0 .8.6 1.4 1.4 1.4zM30.2-14.4c.8 0 1.4-.6 1.4-1.4s-.6-1.4-1.4-1.4-1.4.6-1.4 1.4c0 .8.6 1.4 1.4 1.4zM15.8-14.4c.8 0 1.4-.6 1.4-1.4s-.6-1.4-1.4-1.4c-.8 0-1.4.6-1.4 1.4 0 .8.6 1.4 1.4 1.4zM8.6-7.2c.8 0 1.4-.6 1.4-1.4S9.4-10 8.6-10c-.8 0-1.4.6-1.4 1.4 0 .8.6 1.4 1.4 1.4zM23-7.2c.8 0 1.4-.6 1.4-1.4S23.8-10 23-10s-1.4.6-1.4 1.4.6 1.4 1.4 1.4zM8.6-21.6c.8 0 1.4-.6 1.4-1.4s-.6-1.4-1.4-1.4c-.8 0-1.4.6-1.4 1.4 0 .8.6 1.4 1.4 1.4zM23-21.6c.8 0 1.4-.6 1.4-1.4s-.6-1.4-1.4-1.4-1.4.6-1.4 1.4c0 .8.6 1.4 1.4 1.4z"/></g><g fill="#FFF"><path d="M1.4 0c.8 0 1.4-.6 1.4-1.4s-.6-1.4-1.4-1.4C.6-2.9 0-2.2 0-1.4 0-.6.6 0 1.4 0zM1.4-14.4c.8 0 1.4-.6 1.4-1.4s-.6-1.4-1.4-1.4-1.4.6-1.4 1.4.6 1.4 1.4 1.4z"/></g><g fill="#FFF"><path d="M30.2-28.8c.8 0 1.4-.6 1.4-1.4s-.6-1.4-1.4-1.4-1.4.6-1.4 1.4c0 .8.6 1.4 1.4 1.4zM15.8-28.8c.8 0 1.4-.6 1.4-1.4s-.6-1.4-1.4-1.4-1.4.6-1.4 1.4c0 .8.6 1.4 1.4 1.4z"/></g><path fill="#FFF" d="M1.4-28.8c.8 0 1.4-.6 1.4-1.4s-.6-1.4-1.4-1.4C.6-31.7 0-31 0-30.2c0 .8.6 1.4 1.4 1.4z"/></g></pattern><path fill="#121010" d="M642.2 403h15.7v33.5h-14.2zM357.9 403h-15.7v33.5h14.2z"/><path fill="#241F20" d="M458 529s28.8-6.8 36.3-33.3c-11.1 0-14.1 6.9-36.3 33.3zM542 529s-28.8-6.8-36.3-33.3c11.1 0 14.1 6.9 36.3 33.3z"/><radialGradient id="eye_c" cx="501.444" cy="442.512" r="148.232" gradientTransform="matrix(.9353 0 0 1.0107 32.367 -4.823)" gradientUnits="userSpaceOnUse"><stop offset="0" stop-color="#7fef6f"/><stop offset=".068" stop-color="#7bec71"/><stop offset=".141" stop-color="#6ee476"/><stop offset=".216" stop-color="#58d67f"/><stop offset=".292" stop-color="#3bc38b"/><stop offset=".369" stop-color="#14aa9a"/><stop offset=".4" stop-color="#039fa1"/><stop offset=".592" stop-color="#017da2"/><stop offset=".75" stop-color="#005ea3"/><stop offset=".782" stop-color="#075da3"/><stop offset=".828" stop-color="#1a5ca1"/><stop offset=".882" stop-color="#3959a0"/><stop offset=".943" stop-color="#64559d"/><stop offset="1" stop-color="#93519a"/></radialGradient><path fill="url(#eye_c)" d="M500 376.2c-105.5 0-145.9-35.9-139.9 89 .8 16.9 11.5 34.6 31.4 43.9 18.9 8.9 26.5 16.9 37.3 20.4 27.1 8.7 34.3-38.4 65.5-37.9h11.4c29-.5 36.3 38.8 59.8 38.8 9.8 0 21.8-11.3 43-21.3 20.9-9.8 31.2-29.2 31.4-43.6 5.8-125.1-33.7-89.3-139.9-89.3z"/><pattern id="eye_e" patternTransform="matrix(-.3891 0 0 -.4205 50609.148 6781.061)" xlink:href="#eye_d"/><path fill="url(#eye_e)" d="M593.3 384.2c-26.8 1.9-10.8-.1-1.3 3.5 12.6 4.8 19.1 15 20 31.3 2.8 51.2 1.1 63.6-8.2 75.7 24.6-12.3 22.9-36.3 22.6-31.7.1-1.8 1.3-18.6-.5-48.6-1.4-22.2-16.2-31.4-32.6-30.2z"/><path fill="#121010" d="M500 376.3c-102-12.9-146.9-35.9-140.9 89 .8 16.2 11.7 33.3 30.2 42.8-27.8-16.9-25.8-46.7-25.5-40.7-2.3-45.6-2.6-79.9 28.3-91.6 17.7-6.7 26.7.5 107.9.5M500 376.3c102-12.9 146.9-35.9 140.9 89-.8 16.2-11.7 33.3-30.2 42.8 27.8-16.9 25.8-46.7 25.5-40.7 2.3-45.6 2.6-79.9-28.3-91.6-17.7-6.7-26.7.5-107.9.5"/><path fill="#092C54" d="M595.8 360.5c-68.4 0-66-.7-70.4 1.8-4.3 2.4-6.1 1.8-25.3 1.8-19.3 0-21.1.6-25.3-1.8-.1 0-2.7-1.8-6.9-1.8h-63.5s-49.6 0-53.2 48.7c-3.5 48.3-8.8 89.8 35.7 110.9 27.1 12.8 50.3 33.8 71.2 8.9 22.1-26.3 25.2-33.3 36.3-33.3 10.8 0 18.6-1.4 25.5 6.8L542 529c21.1 25.1 45 3.5 71.2-8.9 44.5-21 39.2-62.7 35.7-110.9-3.5-48.7-53.1-48.7-53.1-48.7zm12.7 148.7c-28.8 13.5-44 29-58.6 11.8-20.7-24.4-26.7-36.6-44.2-36.3-11.4.2-23.2-2-33.3 9.9-39.1 46.2-27.8 39.5-80.9 14.6-37.5-17.6-33.4-52.8-30.5-94.7 2.1-31.2 24.5-45.1 47.2-43.5 96.3 6.9 87.3 6.9 183.6 0 21.9-1.6 45.1 11.5 47.2 43.5 2.9 41.9 7 77.1-30.5 94.7z"/><pattern id="hair_e" width="28.8" height="28.8" x="250" y="750" overflow="visible" patternUnits="userSpaceOnUse" viewBox="1.4 -30.2 28.8 28.8"><defs><path id="hair_a" d="M1.4-30.2h28.8v28.8H1.4z"/></defs><clipPath id="hair_b"><use overflow="visible" xlink:href="#hair_a"/></clipPath><g class="hair_shadow" clip-path="url(#hair_b)"><path d="M30.2 0c.8 0 1.4-.6 1.4-1.4s-.6-1.4-1.4-1.4-1.4.6-1.4 1.4c0 .8.6 1.4 1.4 1.4zM15.8 0c.8 0 1.4-.6 1.4-1.4s-.6-1.4-1.4-1.4c-.8 0-1.4.6-1.4 1.4 0 .8.6 1.4 1.4 1.4zM30.2-14.4c.8 0 1.4-.6 1.4-1.4s-.6-1.4-1.4-1.4-1.4.6-1.4 1.4c0 .8.6 1.4 1.4 1.4zM15.8-14.4c.8 0 1.4-.6 1.4-1.4s-.6-1.4-1.4-1.4c-.8 0-1.4.6-1.4 1.4 0 .8.6 1.4 1.4 1.4zM8.6-7.2c.8 0 1.4-.6 1.4-1.4S9.4-10 8.6-10c-.8 0-1.4.6-1.4 1.4 0 .8.6 1.4 1.4 1.4zM23-7.2c.8 0 1.4-.6 1.4-1.4S23.8-10 23-10s-1.4.6-1.4 1.4.6 1.4 1.4 1.4zM8.6-21.6c.8 0 1.4-.6 1.4-1.4s-.6-1.4-1.4-1.4c-.8 0-1.4.6-1.4 1.4 0 .8.6 1.4 1.4 1.4zM23-21.6c.8 0 1.4-.6 1.4-1.4s-.6-1.4-1.4-1.4-1.4.6-1.4 1.4c0 .8.6 1.4 1.4 1.4z"/><g><path d="M1.4 0c.8 0 1.4-.6 1.4-1.4s-.6-1.4-1.4-1.4C.6-2.9 0-2.2 0-1.4 0-.6.6 0 1.4 0zM1.4-14.4c.8 0 1.4-.6 1.4-1.4s-.6-1.4-1.4-1.4-1.4.6-1.4 1.4.6 1.4 1.4 1.4z"/></g><g><path d="M30.2-28.8c.8 0 1.4-.6 1.4-1.4s-.6-1.4-1.4-1.4-1.4.6-1.4 1.4c0 .8.6 1.4 1.4 1.4zM15.8-28.8c.8 0 1.4-.6 1.4-1.4s-.6-1.4-1.4-1.4-1.4.6-1.4 1.4c0 .8.6 1.4 1.4 1.4z"/></g><path d="M1.4-28.8c.8 0 1.4-.6 1.4-1.4s-.6-1.4-1.4-1.4C.6-31.7 0-31 0-30.2c0 .8.6 1.4 1.4 1.4z"/></g></pattern><pattern id="hair_g" width="28.8" height="28.8" x="250" y="750" overflow="visible" patternUnits="userSpaceOnUse" viewBox="1.4 -30.2 28.8 28.8"><defs><path id="hair_c" d="M1.4-30.2h28.8v28.8H1.4z"/></defs><clipPath id="hair_d"><use overflow="visible" xlink:href="#hair_c"/></clipPath><g clip-path="url(#hair_d)"><g fill="#FFF"><path d="M30.2 0c.8 0 1.4-.6 1.4-1.4s-.6-1.4-1.4-1.4-1.4.6-1.4 1.4c0 .8.6 1.4 1.4 1.4zM15.8 0c.8 0 1.4-.6 1.4-1.4s-.6-1.4-1.4-1.4c-.8 0-1.4.6-1.4 1.4 0 .8.6 1.4 1.4 1.4zM30.2-14.4c.8 0 1.4-.6 1.4-1.4s-.6-1.4-1.4-1.4-1.4.6-1.4 1.4c0 .8.6 1.4 1.4 1.4zM15.8-14.4c.8 0 1.4-.6 1.4-1.4s-.6-1.4-1.4-1.4c-.8 0-1.4.6-1.4 1.4 0 .8.6 1.4 1.4 1.4zM8.6-7.2c.8 0 1.4-.6 1.4-1.4S9.4-10 8.6-10c-.8 0-1.4.6-1.4 1.4 0 .8.6 1.4 1.4 1.4zM23-7.2c.8 0 1.4-.6 1.4-1.4S23.8-10 23-10s-1.4.6-1.4 1.4.6 1.4 1.4 1.4zM8.6-21.6c.8 0 1.4-.6 1.4-1.4s-.6-1.4-1.4-1.4c-.8 0-1.4.6-1.4 1.4 0 .8.6 1.4 1.4 1.4zM23-21.6c.8 0 1.4-.6 1.4-1.4s-.6-1.4-1.4-1.4-1.4.6-1.4 1.4c0 .8.6 1.4 1.4 1.4z"/></g><g fill="#FFF"><path d="M1.4 0c.8 0 1.4-.6 1.4-1.4s-.6-1.4-1.4-1.4C.6-2.9 0-2.2 0-1.4 0-.6.6 0 1.4 0zM1.4-14.4c.8 0 1.4-.6 1.4-1.4s-.6-1.4-1.4-1.4-1.4.6-1.4 1.4.6 1.4 1.4 1.4z"/></g><g fill="#FFF"><path d="M30.2-28.8c.8 0 1.4-.6 1.4-1.4s-.6-1.4-1.4-1.4-1.4.6-1.4 1.4c0 .8.6 1.4 1.4 1.4zM15.8-28.8c.8 0 1.4-.6 1.4-1.4s-.6-1.4-1.4-1.4-1.4.6-1.4 1.4c0 .8.6 1.4 1.4 1.4z"/></g><path fill="#FFF" d="M1.4-28.8c.8 0 1.4-.6 1.4-1.4s-.6-1.4-1.4-1.4C.6-31.7 0-31 0-30.2c0 .8.6 1.4 1.4 1.4z"/></g></pattern><path class="hair_fill" d="M817.9 551.5c-40.3 7.1-62.9-9.2-75.9-45.8-3.1-9.6-6.2-20-7.4-30.3 14.7 10.1 26.6-5.4 28.5-8.1 14 3 28.4-3.4 28.2-4-.6-1.7-33.6 14.1-51.1-19.3-16.1-31-11.4-113.3-25.7-153.7 23.6 47 19.4 135.4 20.9 99 .6-10.5-.2-28.4-1.4-39.1-13.6-113.6-87.3-121.9-97.9-119.2 8.3-37.4-26.5-57.2-27.2-55.8-.8 1.2 26 16.5 25 46.6-22.6-70.5-87.6-42.6-88-42.8-8.1-16.4-51.6-74.5-124.9-51.2-73.4 23.8-131.6 119.2-139.9 126.3-68.6 58.9-109.6 54.1-109 57.4.1.9 17-2.4 23.1-4.2 36.9-11.4 66.6-34.2 40.4-16.5-22.6 15.4-51.3 33.6-50.8 67.4-.1 25.3 19.2 60.1 11.4 40.7-17.5-44.5-9.1-67.7 20.3-91.6 16.6-13.4 17.7-14.2-1.8 4.2-40.1 38.8-21 77.9 10.3 122.5.1.2.9 1.7 1.2 1.6-.8-.7-10.9 9.4-25.4 14.7-18.7 6.7-27.9-.2-28.6 1.5-.3.7 11.7 8.3 29.8 1.8 18.6-6.8 3.7-7.5-12.8 27.6-22.9 49.5 15.2 82.8 16.2 81.8 1.6-1.6-25.2-21.8-19.4-59.9-1.2 38 37.7 66.7 44.1 90.1 7.4 30.8-24.5 60.3-7.5 87.8 2.8 4.1 3.3 4.1 1.2-.6-5.1-12.8-3.6-23.1.7-36.7-3.6 25.4 6.8 29.3 6.8 29.3-3.6-.7-11.1 65.6 32.1 63.9 2.2-.1 3.4-.3 3.4-.5 6.6 80.2 76 93.8 76 93.8-15.2-24.5 0-43.1 0-43.1 38.8 20.6 56.2 9.9 63.4-8.3-3.7 11.5-8.8 19.5-18.4 26.9-8.3 5.9 3.5.8 9.2-5.2 25.9-25.2 13.8-79.9 11.6-79.3 1.5.5 22.7-56.3-24.2-139.7-4.5-8.1-13-21.3-13.8-20.8 0 0 50.7-56.6 30.4-136-6.4-25.2-9.3-47-9.1-65.7 2.8 47.8 30.9 96 8.7 166.4-5 14.9-8.1 20.6-7.6 20.8 1 .5 8.2-16.8 9.5-20.2 30.1-83.6-19.4-143.5-5.2-197.2 17.8-70.6 108.3-25.9 109.3-28.2 36.3-30.9 80.3-19.2 107.8 20.9 33 49.8 43.3 131 37 159.1-15.4 65.3-83.9 171.4-45.5 246.8 4.2 8.1-3.5-6.3-7.3-26.2-9.8-52.5 17.8-117.2 36.8-166.8-14.8 44.9-26 72.8-26 133.6 0 119.1 89.7 112.3 89.7 112.3-27.9-21.1-5.9-64.2-5.9-64.2 2.5 44.8 53.2 46.5 53.2 46.5-27.6-15.5-18.4-41.3-9.7-56.1-20.4 39.5 10.4 50.5 5.7 46.7-5.1-4.1-8.1-7.5-9.4-15.5-4.6-30.9 23.4-47.3 29.3-81.4-2.8 33.6-26.1 57.6-15.4 45.5 11.1-12.8 18.7-31.9 18.3-56.8-1.1-27.6-13.4-64.3-4.3-35.6 11.9 37.6 12 77.4 12.3 47.6-.2-33.8-19.7-84.4-34.5-101.4 33.8 28.7 82.8 46.6 82.8 46.6-5.9-19.4-55.7-46.5-43.1-42.2 12.7 4.2 28.7-5.1 28.7-5.1-9 1.5-16.9.8-23.9-1.3 23.8 4.6 48.9-4.5 34.7-2.1zM207 399.3c-16.5-31.1-16.1-55.2 6.3-83.8-19.5 28.6-15 60.2-6.3 83.8zm56.4 336.2c-24.3-3.8-31.6-21.6-32.2-46.5 4.6 47.9 44.9 48.4 32.2 46.5zm148.4-38.9c-1.4 26.1 8.7-24.6-40.1-133.4 21.9 40.4 43 85.6 40.1 133.4zm1.1-398.8c9.9-13.4 31.2-13.4 47.6-10.9-16.8-1.7-34.5.1-47.6 10.9zM317 219.2c65-81.5 140.3-108.3 220.8-44.8-111.2-63.3-156.4-19.8-220.8 44.8zm74.1-69.4c-30.1 15.1-55.8 41.1-75.3 68.7-4 5.6-1.1 3.8-27.7 29.3 40.1-53.1 94.9-117.4 161.2-123 39.7-2.3 72.1 19.9 94.8 52.3 11.5 16.5-57.8-75.1-153-27.3zm235 187.6c-14.6-30-38.7-56.1-72.1-55.9 13.7-.9 29.1 2.1 44.6 13.1 15.9 11.2 30.1 48.2 27.5 42.8zm-79-157.6c-.1-.1 55.8-19.5 81.6 35.2-27-48.5-81.6-35.2-81.6-35.2z"/><pattern id="hair_f" patternTransform="matrix(.3974 0 0 -.3974 -97548.352 -48593.836)" xlink:href="#hair_e"/><path fill="url(#hair_f)" d="M320.1 703.6c-13.9 63.3 5.5 104.6 5.5 104.6-30.4-25.2-30.1-74.5-30.1-74.5 12.2-3.8 24.6-30.1 24.6-30.1zm-101-262.1s54.2 45.4 95.8-21.4c0 0-31.7 46.8-88.8 15.6l-7 5.8zm343.2-160c-39.5-140.6-149.7-65.7-149.7-65.7 125.2-45.6 137.5 65.7 137.5 65.7h12.2zm108.8 189.7s30.9 92.4 78.5 106.2L738 554.8s-38.8-27.3-66.9-83.6zm-68.7-173.5c18.2-10.1 35.9-23.4 33.4-66.5 0 0-3.2 44.8-61 52.1 0 .1 19.9 5.3 27.6 14.4zm16.9 23.8c26.9 38.3 72.3 156.4 117.4 165.4l-2-11.5c-39.4-8.6-79.9-127.4-115.4-153.9zm48.6 195.9c21.7 77.7 50.5 120.7 59.9 212.2 36.3-62.5-22.1-101.6-59.9-212.2z"/><path class="hair_outline" d="M601 278.3c-13.2 5.7-26.2 5.8-26.2 5.1 0-.6 12.1-1.2 25.2-7.3 32.9-14.9 33.9-45.2 35.8-44.8.6 0-1.8 33-34.8 47zm-23.7-8.4c-1.5 1.4-14.9 13.3-15.1 11.4-1.5-9.5-8.5-29.3-19.2-45.4-57.3-84.8-157.6.3-155.5-.9 101.7-54.6 148.9 21.9 143.2 50.1-3.3 14.4 11.3-39.1-50.4-62.6-32.9-9.8-59-2.3-92.2 13.6-11.4 5.7-25 23.2-32.2 33.6-16.7 25.1 8.6-20.2 56.3-29.4 55.8-10.4 102.2 32.2 95.2 58.1-.8 2.7-.3 2.6-4-.4-72.8-57.8-124.6-50.1-142.6 43.1C348.4 423 378 474 352 524.9c10.2 22.2 19 35.4 18.6 35.7-.5.3-17.3-24.9-29.8-56.8-7.6 12.4-4.9 62.6-7 112 31.9 39.7 38.3 91 24.7 136 16.4 8.4 35.1 16.5 43.8-.5 6.7-12.9 5.2-30.2 6.3-30.3 1.7 0 5 61.4-40.9 37.6-12.9-6.9-7.4-10-12.9 4.2-4.9 13-11.6 24.5-12.1 24.1-.7-.4 49.9-86.5-6.9-167-3.1-4.7-1.4-6.7-3.2 17.5-4.4 56.4-18.6 72.5-16.1 125.6 1.4 49.4 26.5 66.4 26.2 66.9-.8 1.5-42.9-27.3-24.5-122.2-9.1 21-25.7 34.5-48.9 29.2-6.4-1.5.3-.4 3.4-.2 78.1 6.3 51.3-173.9 64.2-224.6 4.1-16.4 6.4 1.9-3.5-29-.3-1.1.4-1.3-3.5 0-70.4 21.9-3.6 178.6-86.7 189.3-7.1.9-16.5.6-9.6 0 93.4-5.2 24.1-169 92.1-189 12.6-4.1 5.9 7.1-2.6-42.6-2.2-12.8-.2-10.4-4.4-4.9-23.4 30.7-94.6 34.6-94.9 110.5-.1 23.9 8.7 54.1 5.2 43.5-37.4-117.9 69.1-123.8 92.5-159.5-3.7-26.4-.6-28.1-4.6-16.2-23.3 61-92.3 23.4-90.9 21.1 1.6-2.8 61.1 37.6 88.8-22 1.6-3.8 3.5-8.8 4.1-10.1-3.1-65.7 14.1-58.4-11.7-38.7C254.6 405 191 357 206.6 326.2c2.1-4-.2 1.3-.5 4.7-4.7 31.6 58.5 76.2 115.7 18.6 5.1-32.3 15.8-58.7 31.1-81.9 27.1-39.2 64.5-56.1 20.3-30.8-42.8 24.4-85 53.1-134.9 55.1-6.3.2 2.5-.8 6.1-1.4 106-14.9 213.8-152 289.7-69.4 29.7 32.7 28.9 76.2 28 47.5-.7-87.9-126.8-145.2-239.3-55-9.5 7.7 10.1-12.3 35.2-26.3 102.6-57 216.3 3.4 204.2 93.7 2.6-3.8 32.9-23.7 24.4-53.2-5.3-18.3-21.8-32.5-36-44.6-16.1-13.6 74.5 36.7 26.7 86.7zm-228 11.1c-14.7 15.6-54.2 119.5 2.4 243.5 14.8-45.8 7.4-65.7 3.2-117.2-4.3-56.4 5.8-140.1 61.6-148.3 39.2-3.6 85.5 33.9 90 41.3 0-.6.9-3.3.5-8-3.3-35.4-86.9-88.4-157.7-11.3zm267.3 21.1c28.8-1.5 64.8-46.4 95.9-7.7 2.5 3 6.6 8.9 4.6 5-2.4-4.7-6.9-10.6-11.5-14.5-35-30.3-74.7 28.5-102.6 12.5-2.9-1.7-4.2-3.1-4.4-2.9-.2.3 6 8.5 18 7.6zm37.7 67.2c18.7 31.2 35.1 72.5 56 91 12.8 12.1 29.3 17.5 22.6 14-52.3-28.3-53-90.2-108-147.7-17.3-16.9 9.8 9.4 29.4 42.7zm14.4 79.1c33.8 55.5 71.5 51.9 71.5 51.6.1-2-34.6 4-69.2-52.9-24.5-40.2-34-84-35.1-83.7-1.2.2 9.9 47.5 32.8 85zm-32.3-135.9c87.4 3.1 89.1 72.3 91.5 71.9.7-.1-4.8-73.7-91.4-73.7-10.2 0-22.1 1.5-22 2.2 0 .4 8.2-.9 21.9-.4zM739.8 677c-6.3-41.3-50.5-92-67.6-149-7.8-25.6-2.5-21.5-12.4-65.7-2.5-9.8-2.6-9.7-.8.2C682.9 594.3 648.8 675 671.5 740c9.5 26 27.4 40.6 27.7 40.3.8-.8-16-12.4-25.9-40.9-11.2-33.9-7.3-73.7-4.7-117.4 5.4-88.1-5.1-43.8 17.5 16.3 10.9 29.2 18.9 38.3 9.4 70.1-.7 2.5-3.8 11.6-1.2 5.9 23.1-54.7-13.2-51.8-23.4-159.9-.8-9.7-.5-14.2-1.8-31.3 16.2 66.5 71.8 122.4 70 168.2-.5 12-4.9 18.8-4.4 19 .2.1 8.5-12.5 5.1-33.3zm-42.2-160.6c19.3 25.3 39.9 39.1 40.5 38.4.6-.8-17.8-13.1-37.9-40.3-38.7-52.3-52.6-113.7-53.9-113.4-1.5.2 12.3 64.3 51.3 115.3z"/><g><pattern id="hair_h" patternTransform="matrix(.5 0 0 .5 -4099.388 -4110.608)" xlink:href="#hair_g"/><path fill="url(#hair_h)" d="M236.3 308c3.4-1.5 56.1 22.1 87.6-15.9 0 0-14.1 58.6-59.3 49.1 0 0 9.7 15.9 30.9 10.8 0 0-41.4 29.6-81.9-14.4l41.3-10.8-18.6-18.8zm60.8 167.4s-57.4 22.9-54.9 78.2c0 0 17.7-26.2 24.5-36.2 0 0-2.1 83.6-24.6 120.7 45.4-24.2 16.2-120.7 55-162.7zm-13.9 213.7c-5.5 16.9-24.9 27-24.9 27 68.2 1.3 42.2-108 42.2-108-7.6 75.9-52.3 82.7-52.3 82.7 16.8 11.2 35-1.7 35-1.7zm444.6-251.5s-14.2-13.3-29.4-58.6-46.9-54-46.9-54c33.2 88.8 76.3 112.6 76.3 112.6zm-83.1 115.9s-37.6 130.7 13.1 188.4c0 .1-22-102.7-13.1-188.4zm-57-356.7s36 23.9 7 63.4c0 0 45.4-41.3-7-63.4zm-146.4-13.9s-50.1-16.2-131.5 61c0 0 72.2-40.9 131.5-61zM348 585.6s46.6 62.3 36.9 124.7c0 0 28.9-71.9-36.9-124.7zm34.4-274.1s-24.1 30.6-8.7 110.4c12.5 64.9-3.3 89.8-3.3 89.8s28.5-23.4 8.7-106.9c-12.5-52.8 3.3-93.3 3.3-93.3zm311.7 235.7c18.6 38.9 50.6 87 50.6 87-8.7-56.7-50.6-87-52.7-88.9"/></g></svg>