<svg xmlns="http://www.w3.org/2000/svg" xmlns:xlink="http://www.w3.org/1999/xlink" version="1.1" height='1000px' width='1000px' viewBox='0 0 1000 1000'><style type="text/css">.skin_fill{fill:#E0AB8B;} .skin_outline{fill:#644747;} .skin_dark{fill:#BF806A;} .skin_halftone{fill:#896451;} .skin_freckles{fill:#BB8A70;} </style><style type="text/css">.hair_fill{fill:#B7A69E;} .hair_outline{fill:#998B85;} .hair_shadow{fill:#736965;} .hair_brow{fill:#AD9D96;} </style><style type="text/css">.eye_iris{fill:#FBCCE7;} </style><style type="text/css">.bg_color{fill:#EDFFF6;} .bg_stop_1{stop-color:#EDFFF6;} .bg_stroke_1{stroke:#EDFFF6;} .bg_shape{fill:#DEFCE8;} .bg_stop_2{stop-color:#DEFCE8;} .bg_stroke_2{stroke:#DEFCE8;} .bg_halftone{fill:#B7EAC6;} .bg_stop_3{stop-color:#B7EAC6;} .bg_stroke_3{stroke:#B7EAC6;} </style><pattern id="backdrop_e" width="28.8" height="28.8" y="1000" overflow="visible" patternUnits="userSpaceOnUse" viewBox="1.4 -30.2 28.8 28.8"><defs><path id="backdrop_a" d="M1.4-30.2h28.8v28.8H1.4z"/></defs><clipPath id="backdrop_b"><use overflow="visible" xlink:href="#backdrop_a"/></clipPath><g class="bg_halftone" clip-path="url(#backdrop_b)"><path d="M30.2 0c.8 0 1.4-.6 1.4-1.4s-.6-1.4-1.4-1.4-1.4.6-1.4 1.4c0 .8.6 1.4 1.4 1.4zM15.8 0c.8 0 1.4-.6 1.4-1.4s-.6-1.4-1.4-1.4c-.8 0-1.4.6-1.4 1.4 0 .8.6 1.4 1.4 1.4zM30.2-14.4c.8 0 1.4-.6 1.4-1.4s-.6-1.4-1.4-1.4-1.4.6-1.4 1.4c0 .8.6 1.4 1.4 1.4zM15.8-14.4c.8 0 1.4-.6 1.4-1.4s-.6-1.4-1.4-1.4c-.8 0-1.4.6-1.4 1.4 0 .8.6 1.4 1.4 1.4zM8.6-7.2c.8 0 1.4-.6 1.4-1.4S9.4-10 8.6-10c-.8 0-1.4.6-1.4 1.4 0 .8.6 1.4 1.4 1.4zM23-7.2c.8 0 1.4-.6 1.4-1.4S23.8-10 23-10s-1.4.6-1.4 1.4.6 1.4 1.4 1.4zM8.6-21.6c.8 0 1.4-.6 1.4-1.4s-.6-1.4-1.4-1.4c-.8 0-1.4.6-1.4 1.4 0 .8.6 1.4 1.4 1.4zM23-21.6c.8 0 1.4-.6 1.4-1.4s-.6-1.4-1.4-1.4-1.4.6-1.4 1.4c0 .8.6 1.4 1.4 1.4z"/><g><path d="M1.4 0c.8 0 1.4-.6 1.4-1.4s-.6-1.4-1.4-1.4C.6-2.9 0-2.2 0-1.4 0-.6.6 0 1.4 0zM1.4-14.4c.8 0 1.4-.6 1.4-1.4s-.6-1.4-1.4-1.4-1.4.6-1.4 1.4.6 1.4 1.4 1.4z"/></g><g><path d="M30.2-28.8c.8 0 1.4-.6 1.4-1.4s-.6-1.4-1.4-1.4-1.4.6-1.4 1.4c0 .8.6 1.4 1.4 1.4zM15.8-28.8c.8 0 1.4-.6 1.4-1.4s-.6-1.4-1.4-1.4-1.4.6-1.4 1.4c0 .8.6 1.4 1.4 1.4z"/></g><path d="M1.4-28.8c.8 0 1.4-.6 1.4-1.4s-.6-1.4-1.4-1.4C.6-31.7 0-31 0-30.2c0 .8.6 1.4 1.4 1.4z"/></g></pattern><path class="bg_color" d="M0 0h1000v1000H0z"/><defs><path id="backdrop_c" d="M0 0h1000v1000H0z"/></defs><clipPath id="backdrop_d"><use overflow="visible" xlink:href="#backdrop_c"/></clipPath><g clip-path="url(#backdrop_d)"><path fill="none" class="bg_stroke_3" stroke-miterlimit="10" d="M907.7 309.3H633.4c-14.8 0-27.9-9.6-32.4-23.7l-68.5-213c-10.1-31.5-54.8-31.5-64.9 0l-68.5 213c-4.5 14.1-17.6 23.7-32.4 23.7H92.3c-16.5 0-23.4 21-10.1 30.8l222.4 163.4c11.8 8.7 16.8 23.9 12.3 37.9l-68.8 214.1c-10.1 31.5 26 57.5 52.6 37.9l189.2-138.9c6-4.4 14.2-4.4 20.2 0l189.2 138.9c26.6 19.6 62.7-6.4 52.6-37.9l-68.8-214.1c-4.5-14 .5-29.2 12.3-37.9l222.4-163.4c13.2-9.8 6.3-30.8-10.1-30.8z"/></g><g clip-path="url(#backdrop_d)"><pattern id="backdrop_f" patternTransform="translate(16740.414 39594.957) scale(1.875)" xlink:href="#backdrop_e"/><path fill="url(#backdrop_f)" d="M928.3 329.3H654c-14.8 0-27.9-9.6-32.4-23.7l-68.5-213c-10.1-31.5-54.8-31.5-64.9 0l-68.5 213c-4.5 14.1-17.6 23.7-32.4 23.7H113c-16.5 0-23.4 21-10.1 30.8l222.4 163.4c11.8 8.7 16.8 23.9 12.3 37.9l-68.8 214.1c-10.1 31.5 26 57.5 52.6 37.9l189.2-138.9c6-4.4 14.2-4.4 20.2 0L720 813.4c26.6 19.6 62.7-6.4 52.6-37.9l-68.8-214.1c-4.5-14 .5-29.2 12.3-37.9l222.4-163.4c13.1-9.8 6.2-30.8-10.2-30.8z"/></g><pattern id="ear_m" width="28.8" height="28.8" x="250" y="750" overflow="visible" patternUnits="userSpaceOnUse" viewBox="1.4 -30.2 28.8 28.8"><defs><path id="ear_a" d="M1.4-30.2h28.8v28.8H1.4z"/></defs><clipPath id="ear_b"><use overflow="visible" xlink:href="#ear_a"/></clipPath><g fill="#820606" clip-path="url(#ear_b)"><path d="M30.2 0c.8 0 1.4-.6 1.4-1.4s-.6-1.4-1.4-1.4-1.4.6-1.4 1.4c0 .8.6 1.4 1.4 1.4zM15.8 0c.8 0 1.4-.6 1.4-1.4s-.6-1.4-1.4-1.4c-.8 0-1.4.6-1.4 1.4 0 .8.6 1.4 1.4 1.4zM30.2-14.4c.8 0 1.4-.6 1.4-1.4s-.6-1.4-1.4-1.4-1.4.6-1.4 1.4c0 .8.6 1.4 1.4 1.4zM15.8-14.4c.8 0 1.4-.6 1.4-1.4s-.6-1.4-1.4-1.4c-.8 0-1.4.6-1.4 1.4 0 .8.6 1.4 1.4 1.4zM8.6-7.2c.8 0 1.4-.6 1.4-1.4S9.4-10 8.6-10c-.8 0-1.4.6-1.4 1.4 0 .8.6 1.4 1.4 1.4zM23-7.2c.8 0 1.4-.6 1.4-1.4S23.8-10 23-10s-1.4.6-1.4 1.4.6 1.4 1.4 1.4zM8.6-21.6c.8 0 1.4-.6 1.4-1.4s-.6-1.4-1.4-1.4c-.8 0-1.4.6-1.4 1.4 0 .8.6 1.4 1.4 1.4zM23-21.6c.8 0 1.4-.6 1.4-1.4s-.6-1.4-1.4-1.4-1.4.6-1.4 1.4c0 .8.6 1.4 1.4 1.4z"/><g><path d="M1.4 0c.8 0 1.4-.6 1.4-1.4s-.6-1.4-1.4-1.4C.6-2.9 0-2.2 0-1.4 0-.6.6 0 1.4 0zM1.4-14.4c.8 0 1.4-.6 1.4-1.4s-.6-1.4-1.4-1.4-1.4.6-1.4 1.4.6 1.4 1.4 1.4z"/></g><g><path d="M30.2-28.8c.8 0 1.4-.6 1.4-1.4s-.6-1.4-1.4-1.4-1.4.6-1.4 1.4c0 .8.6 1.4 1.4 1.4zM15.8-28.8c.8 0 1.4-.6 1.4-1.4s-.6-1.4-1.4-1.4-1.4.6-1.4 1.4c0 .8.6 1.4 1.4 1.4z"/></g><path d="M1.4-28.8c.8 0 1.4-.6 1.4-1.4s-.6-1.4-1.4-1.4C.6-31.7 0-31 0-30.2c0 .8.6 1.4 1.4 1.4z"/></g></pattern><pattern id="ear_k" width="48" height="48" x="250" y="750" overflow="visible" patternUnits="userSpaceOnUse" viewBox="4.8 -52.8 48 48"><defs><path id="ear_c" d="M4.8-52.8h48v48h-48z"/></defs><clipPath id="ear_d"><use overflow="visible" xlink:href="#ear_c"/></clipPath><g class="skin_dark" clip-path="url(#ear_d)"><path d="M28.8-57.6c2.7 0 4.8 2.1 4.8 4.8S31.5-48 28.8-48 24-50.2 24-52.8c0-2.7 2.1-4.8 4.8-4.8zM52.8-57.6c2.7 0 4.8 2.1 4.8 4.8S55.5-48 52.8-48 48-50.2 48-52.8c0-2.7 2.1-4.8 4.8-4.8zM28.8-33.6c2.7 0 4.8 2.1 4.8 4.8S31.5-24 28.8-24 24-26.1 24-28.8s2.1-4.8 4.8-4.8zM52.8-33.6c2.7 0 4.8 2.1 4.8 4.8S55.5-24 52.8-24 48-26.1 48-28.8s2.1-4.8 4.8-4.8zM40.8-45.6c2.7 0 4.8 2.1 4.8 4.8S43.5-36 40.8-36 36-38.2 36-40.8c0-2.7 2.1-4.8 4.8-4.8zM16.8-45.6c2.7 0 4.8 2.1 4.8 4.8S19.5-36 16.8-36 12-38.2 12-40.8c0-2.7 2.1-4.8 4.8-4.8zM40.8-21.6c2.7 0 4.8 2.1 4.8 4.8S43.5-12 40.8-12 36-14.1 36-16.8s2.1-4.8 4.8-4.8zM16.8-21.6c2.7 0 4.8 2.1 4.8 4.8S19.5-12 16.8-12 12-14.1 12-16.8s2.1-4.8 4.8-4.8z"/></g><defs><path id="ear_e" d="M4.8-52.8h48v48h-48z"/></defs><clipPath id="ear_f"><use overflow="visible" xlink:href="#ear_e"/></clipPath><g class="skin_dark" clip-path="url(#ear_f)"><path d="M4.8-57.6c2.7 0 4.8 2.1 4.8 4.8S7.5-48 4.8-48 0-50.1 0-52.8s2.1-4.8 4.8-4.8zM4.8-33.6c2.7 0 4.8 2.1 4.8 4.8S7.5-24 4.8-24 0-26.1 0-28.8s2.1-4.8 4.8-4.8z"/></g><g><defs><path id="ear_g" d="M4.8-52.8h48v48h-48z"/></defs><clipPath id="ear_h"><use overflow="visible" xlink:href="#ear_g"/></clipPath><g class="skin_dark" clip-path="url(#ear_h)"><path d="M28.8-9.6c2.7 0 4.8 2.1 4.8 4.8S31.5 0 28.8 0 24-2.2 24-4.8c0-2.7 2.1-4.8 4.8-4.8zM52.8-9.6c2.7 0 4.8 2.1 4.8 4.8S55.5 0 52.8 0 48-2.2 48-4.8c0-2.7 2.1-4.8 4.8-4.8z"/></g></g><g><defs><path id="ear_i" d="M4.8-52.8h48v48h-48z"/></defs><clipPath id="ear_j"><use overflow="visible" xlink:href="#ear_i"/></clipPath><path class="skin_dark" d="M4.8-9.6c2.7 0 4.8 2.1 4.8 4.8S7.5 0 4.8 0 0-2.2 0-4.8c0-2.7 2.1-4.8 4.8-4.8z" clip-path="url(#ear_j)"/></g></pattern><path class="skin_fill" d="M367.8 526l-17.1 11.9c-6.4 4.4-15.2 1.9-18.2-5.2-19.2-44.1-21.3-46.6-21.7-57.6-1.8-55.4-5.3-64.8 8-69.7 6.6-2.5 4.9-1.8 45.6 56.4l3.4 64.2z"/><pattern id="ear_l" patternTransform="scale(.26 -.26) rotate(3.16 133059.603 -3277839.246)" xlink:href="#ear_k"/><path fill="url(#ear_l)" d="M321.5 424.1c0 27.7-7.5 52.6 5.2 69.8 3.4-20.3 34 10.8-5.2-69.8z"/><g><path class="skin_outline" d="M318.8 418.6c1.5-.8 34.1 60.5 20.7 66-1.7.6-6.6 1.2-9.8 5.2-4.6 5.7-.9 12.3-1.6 12.6-1.1.5-8.7-15.6 10.3-20.7 7.5-4-21-62.4-19.6-63.1z"/></g><g><path fill="#F4F2EA" d="M658 420.7h-16.4l-.1 122c18.6-1.7 22.9-2.5 26.8-12.4l3.3-7.6c2.2-5.4 9.9-102-13.6-102z"/><pattern id="ear_n" patternTransform="matrix(.2816 0 0 -.303 -50759.754 2590.686)" xlink:href="#ear_m"/><path fill="url(#ear_n)" d="M641.6 420.7c-.2 158.1-7.2 154.5 32.3 38.1-3.1-44.9-14-38.1-32.3-38.1z"/></g><pattern id="face_i" width="48" height="48" x="250" y="750" overflow="visible" patternUnits="userSpaceOnUse" viewBox="4.8 -52.8 48 48"><defs><path id="face_a" d="M4.8-52.8h48v48h-48z"/></defs><clipPath id="face_b"><use overflow="visible" xlink:href="#face_a"/></clipPath><g class="skin_dark" clip-path="url(#face_b)"><path d="M28.8-57.6c2.7 0 4.8 2.1 4.8 4.8S31.5-48 28.8-48 24-50.2 24-52.8c0-2.7 2.1-4.8 4.8-4.8zM52.8-57.6c2.7 0 4.8 2.1 4.8 4.8S55.5-48 52.8-48 48-50.2 48-52.8c0-2.7 2.1-4.8 4.8-4.8zM28.8-33.6c2.7 0 4.8 2.1 4.8 4.8S31.5-24 28.8-24 24-26.1 24-28.8s2.1-4.8 4.8-4.8zM52.8-33.6c2.7 0 4.8 2.1 4.8 4.8S55.5-24 52.8-24 48-26.1 48-28.8s2.1-4.8 4.8-4.8zM40.8-45.6c2.7 0 4.8 2.1 4.8 4.8S43.5-36 40.8-36 36-38.2 36-40.8c0-2.7 2.1-4.8 4.8-4.8zM16.8-45.6c2.7 0 4.8 2.1 4.8 4.8S19.5-36 16.8-36 12-38.2 12-40.8c0-2.7 2.1-4.8 4.8-4.8zM40.8-21.6c2.7 0 4.8 2.1 4.8 4.8S43.5-12 40.8-12 36-14.1 36-16.8s2.1-4.8 4.8-4.8zM16.8-21.6c2.7 0 4.8 2.1 4.8 4.8S19.5-12 16.8-12 12-14.1 12-16.8s2.1-4.8 4.8-4.8z"/></g><defs><path id="face_c" d="M4.8-52.8h48v48h-48z"/></defs><clipPath id="face_d"><use overflow="visible" xlink:href="#face_c"/></clipPath><g class="skin_dark" clip-path="url(#face_d)"><path d="M4.8-57.6c2.7 0 4.8 2.1 4.8 4.8S7.5-48 4.8-48 0-50.1 0-52.8s2.1-4.8 4.8-4.8zM4.8-33.6c2.7 0 4.8 2.1 4.8 4.8S7.5-24 4.8-24 0-26.1 0-28.8s2.1-4.8 4.8-4.8z"/></g><g><defs><path id="face_e" d="M4.8-52.8h48v48h-48z"/></defs><clipPath id="face_f"><use overflow="visible" xlink:href="#face_e"/></clipPath><g class="skin_dark" clip-path="url(#face_f)"><path d="M28.8-9.6c2.7 0 4.8 2.1 4.8 4.8S31.5 0 28.8 0 24-2.2 24-4.8c0-2.7 2.1-4.8 4.8-4.8zM52.8-9.6c2.7 0 4.8 2.1 4.8 4.8S55.5 0 52.8 0 48-2.2 48-4.8c0-2.7 2.1-4.8 4.8-4.8z"/></g></g><g><defs><path id="face_g" d="M4.8-52.8h48v48h-48z"/></defs><clipPath id="face_h"><use overflow="visible" xlink:href="#face_g"/></clipPath><path class="skin_dark" d="M4.8-9.6c2.7 0 4.8 2.1 4.8 4.8S7.5 0 4.8 0 0-2.2 0-4.8c0-2.7 2.1-4.8 4.8-4.8z" clip-path="url(#face_h)"/></g></pattern><path class="skin_fill" d="M645.6 558.1c14.3-100 14.2-144.8 14.2-149.9-1-187.5-160-180.3-160-180.3s-159-7.2-160 180.3c0 5.1-.1 50 14.2 149.9 6.3 33.5 19.3 56.3 56 91.8v59c0 9.7-6.9 17.9-16.4 19.7l-38.6 7 68.9 80.8c39.9 46.8 112.2 46.8 152.2 0l68.9-80.8-38.6-7c-9.5-1.7-16.4-10-16.4-19.7v-59.4c36.4-35.3 49.3-58 55.6-91.4z"/><pattern id="face_j" patternTransform="matrix(.2608 0 0 -.2597 -47645.152 1005.796)" xlink:href="#face_i"/><path fill="url(#face_j)" d="M590 669.5v-20c-82.6 80.1-101.2 76.7-180 .4v20c82.3 79.7 100.7 76.5 180-.4z"/><g class="skin_outline"><path d="M658.7 429.1c-.6 0-12.9 121.1-12 121.2 2.8.3 14.6-121.1 12-121.2zM347.3 489.6c-16.6-166.1.6 61.3 5.6 60.7.6-.1-1.2-17.1-5.6-60.7z"/></g><pattern id="face_k" patternTransform="matrix(.2608 0 0 -.2597 -47645.152 1005.796)" xlink:href="#face_i"/><path fill="url(#face_k)" d="M360.2 467.4c6.1 16.2 14.8 33.8 26.8 49.9 16.9 22.8 14.7 61.5 16.5 110.2 0 0-33-30-39.8-70.3L353 467.3h7.2z"/><pattern id="nose_m" width="48" height="48" y="1000" overflow="visible" patternUnits="userSpaceOnUse" viewBox="4.8 -52.8 48 48"><defs><path id="nose_a" d="M4.8-52.8h48v48h-48z"/></defs><clipPath id="nose_b"><use overflow="visible" xlink:href="#nose_a"/></clipPath><g class="skin_dark" clip-path="url(#nose_b)"><path d="M28.8 0c6.4 0 6.4-9.6 0-9.6-6.3 0-6.4 9.6 0 9.6zM52.8 0c6.4 0 6.4-9.6 0-9.6-6.3 0-6.4 9.6 0 9.6zM28.8-24c6.4 0 6.4-9.6 0-9.6s-6.4 9.6 0 9.6zM52.8-24c6.4 0 6.4-9.6 0-9.6s-6.4 9.6 0 9.6zM40.8-12c6.4 0 6.4-9.6 0-9.6-6.3 0-6.4 9.6 0 9.6zM16.8-12c6.4 0 6.4-9.6 0-9.6-6.3 0-6.4 9.6 0 9.6zM40.8-36c6.4 0 6.4-9.6 0-9.6s-6.4 9.6 0 9.6zM16.8-36c6.4 0 6.4-9.6 0-9.6s-6.4 9.6 0 9.6z"/></g><defs><path id="nose_c" d="M4.8-52.8h48v48h-48z"/></defs><clipPath id="nose_d"><use overflow="visible" xlink:href="#nose_c"/></clipPath><g class="skin_dark" clip-path="url(#nose_d)"><path d="M4.8 0c6.4 0 6.4-9.6 0-9.6S-1.6 0 4.8 0zM4.8-24c6.4 0 6.4-9.6 0-9.6s-6.4 9.6 0 9.6z"/></g><g><defs><path id="nose_e" d="M4.8-52.8h48v48h-48z"/></defs><clipPath id="nose_f"><use overflow="visible" xlink:href="#nose_e"/></clipPath><g class="skin_dark" clip-path="url(#nose_f)"><path d="M28.8-48c6.4 0 6.4-9.6 0-9.6-6.3 0-6.4 9.6 0 9.6zM52.8-48c6.4 0 6.4-9.6 0-9.6-6.3 0-6.4 9.6 0 9.6z"/></g></g><g><defs><path id="nose_g" d="M4.8-52.8h48v48h-48z"/></defs><clipPath id="nose_h"><use overflow="visible" xlink:href="#nose_g"/></clipPath><path class="skin_dark" d="M4.8-48c6.4 0 6.4-9.6 0-9.6-6.3 0-6.4 9.6 0 9.6z" clip-path="url(#nose_h)"/></g></pattern><pattern id="nose_k" width="28.8" height="28.8" y="1000" overflow="visible" patternUnits="userSpaceOnUse" viewBox="1.4 -30.2 28.8 28.8"><defs><path id="nose_i" d="M1.4-30.2h28.8v28.8H1.4z"/></defs><clipPath id="nose_j"><use overflow="visible" xlink:href="#nose_i"/></clipPath><g clip-path="url(#nose_j)"><g fill="#FFF"><path d="M30.2-31.6c1.9 0 1.9 2.8 0 2.8s-1.9-2.8 0-2.8zM15.8-31.6c1.9 0 1.9 2.8 0 2.8s-1.9-2.8 0-2.8zM30.2-17.2c1.9 0 1.9 2.8 0 2.8s-1.9-2.8 0-2.8zM15.8-17.2c1.9 0 1.9 2.8 0 2.8s-1.9-2.8 0-2.8zM8.6-24.4c1.9 0 1.9 2.8 0 2.8s-1.9-2.8 0-2.8zM23-24.4c1.9 0 1.9 2.8 0 2.8s-1.9-2.8 0-2.8zM8.6-10c1.9 0 1.9 2.8 0 2.8S6.7-10 8.6-10zM23-10c1.9 0 1.9 2.8 0 2.8S21.1-10 23-10z"/></g><g fill="#FFF"><path d="M1.4-31.6c1.9 0 1.9 2.8 0 2.8-1.8.2-2-2.8 0-2.8zM1.4-17.2c1.9 0 1.9 2.8 0 2.8s-1.9-2.8 0-2.8z"/></g><g fill="#FFF"><path d="M30.2-2.8c1.9 0 1.9 2.8 0 2.8s-1.9-2.8 0-2.8zM15.8-2.8c1.9 0 1.9 2.8 0 2.8s-1.9-2.8 0-2.8z"/></g><path fill="#FFF" d="M1.4-2.8c1.9 0 1.9 2.8 0 2.8-1.8.2-2-2.8 0-2.8z"/></g></pattern><pattern id="nose_l" patternTransform="rotate(180 -7532.567 -17703.744) scale(.4108)" xlink:href="#nose_k"/><path fill="url(#nose_l)" d="M500 538.6c-23.5 0-19.6-1.1-19.6 3.4 8.3 12.6 30.9 12.6 39.2 0 0-4.6 3.8-3.4-19.6-3.4z"/><pattern id="nose_n" patternTransform="rotate(180 -46303.594 -8118.507) scale(.2318)" xlink:href="#nose_m"/><path fill="url(#nose_n)" d="M468.7 523.4l12.3-8.7V428c-11.7 28.7-8.7 8.2-12.3 95.4z"/><pattern id="nose_o" patternTransform="rotate(180 -7532.567 -17704.244) scale(.4108)" xlink:href="#nose_k"/><path fill="url(#nose_o)" d="M531.3 523.4l-12.3-8.7V428c11.7 28.7 8.7 8.2 12.3 95.4z"/><pattern id="nose_p" patternTransform="matrix(.2222 0 0 -.2222 -738.067 -15525.397)" xlink:href="#nose_m"/><path fill="url(#nose_p)" d="M530.3 553.7c-5.7 0-8.4 3.4-11.1 6.1-5.6 5.6-11.3 4.6-19.3 4.6-7.9 0-13.7.9-19.3-4.6-2.9-2.9-5.5-6.1-11.1-6.1-49.8 0-1.1-1.1 9.2 12.8.1.2 10 11.4 21.2 11.4s21.1-11.2 21.2-11.4c10.3-13.9 59.1-12.8 9.2-12.8z"/><path class="skin_outline" d="M463 527.9c.1.4-19.4 9.1-18.1 20.8.5 4.1.5 2.7 24.8 2.7 11.6 0 10.5 9.3 20.8 10.4 2 .2 16.8.2 19.2-.1 8.7-1.2 10-10.4 19.4-10.4 22.5 0 23.5.9 24.7-.3 3.4-2.6-1.8-12-7.2-16.6-5.2-4.3-10.2-5.8-10-6.4.2-.5 6 .6 11.6 4.4 13.3 9.6 13.7 23.5 2.8 23.5-23.9 0-23.7-.1-27.8 3.1-2.6 2.6-1.7 2.6-4.3.6.1 0-.6-.5 1.8 1.9-2.7 2.4-5.7 4.6-10.3 5.1-2.8.4-17.2.5-20.5.1-9.9-1.2-11.4-7.2-16.1-9.8-2.6-1.3-21.8-1.2-27.2-1.2-6.8-.9-8.8-11.4 1.5-20.9 6.5-6 14.7-7.5 14.9-6.9z"/><pattern id="mouth_k" width="28.8" height="28.8" x="250" y="750" overflow="visible" patternUnits="userSpaceOnUse" viewBox="1.4 -30.2 28.8 28.8"><defs><path id="mouth_a" d="M1.4-30.2h28.8v28.8H1.4z"/></defs><clipPath id="mouth_b"><use overflow="visible" xlink:href="#mouth_a"/></clipPath><g class="hair_shadow" clip-path="url(#mouth_b)"><path d="M30.2 0c.8 0 1.4-.6 1.4-1.4s-.6-1.4-1.4-1.4-1.4.6-1.4 1.4c0 .8.6 1.4 1.4 1.4zM15.8 0c.8 0 1.4-.6 1.4-1.4s-.6-1.4-1.4-1.4c-.8 0-1.4.6-1.4 1.4 0 .8.6 1.4 1.4 1.4zM30.2-14.4c.8 0 1.4-.6 1.4-1.4s-.6-1.4-1.4-1.4-1.4.6-1.4 1.4c0 .8.6 1.4 1.4 1.4zM15.8-14.4c.8 0 1.4-.6 1.4-1.4s-.6-1.4-1.4-1.4c-.8 0-1.4.6-1.4 1.4 0 .8.6 1.4 1.4 1.4zM8.6-7.2c.8 0 1.4-.6 1.4-1.4S9.4-10 8.6-10c-.8 0-1.4.6-1.4 1.4 0 .8.6 1.4 1.4 1.4zM23-7.2c.8 0 1.4-.6 1.4-1.4S23.8-10 23-10s-1.4.6-1.4 1.4.6 1.4 1.4 1.4zM8.6-21.6c.8 0 1.4-.6 1.4-1.4s-.6-1.4-1.4-1.4c-.8 0-1.4.6-1.4 1.4 0 .8.6 1.4 1.4 1.4zM23-21.6c.8 0 1.4-.6 1.4-1.4s-.6-1.4-1.4-1.4-1.4.6-1.4 1.4c0 .8.6 1.4 1.4 1.4z"/><g><path d="M1.4 0c.8 0 1.4-.6 1.4-1.4s-.6-1.4-1.4-1.4C.6-2.9 0-2.2 0-1.4 0-.6.6 0 1.4 0zM1.4-14.4c.8 0 1.4-.6 1.4-1.4s-.6-1.4-1.4-1.4-1.4.6-1.4 1.4.6 1.4 1.4 1.4z"/></g><g><path d="M30.2-28.8c.8 0 1.4-.6 1.4-1.4s-.6-1.4-1.4-1.4-1.4.6-1.4 1.4c0 .8.6 1.4 1.4 1.4zM15.8-28.8c.8 0 1.4-.6 1.4-1.4s-.6-1.4-1.4-1.4-1.4.6-1.4 1.4c0 .8.6 1.4 1.4 1.4z"/></g><path d="M1.4-28.8c.8 0 1.4-.6 1.4-1.4s-.6-1.4-1.4-1.4C.6-31.7 0-31 0-30.2c0 .8.6 1.4 1.4 1.4z"/></g></pattern><pattern id="mouth_m" width="28.8" height="28.8" x="250" y="750" overflow="visible" patternUnits="userSpaceOnUse" viewBox="1.4 -30.2 28.8 28.8"><defs><path id="mouth_c" d="M1.4-30.2h28.8v28.8H1.4z"/></defs><clipPath id="mouth_d"><use overflow="visible" xlink:href="#mouth_c"/></clipPath><g fill="#B18689" clip-path="url(#mouth_d)"><path d="M30.2 0c1.9 0 1.9-2.8 0-2.8S28.3 0 30.2 0zM15.8 0c1.9 0 1.9-2.8 0-2.8S13.9 0 15.8 0zM30.2-14.4c1.9 0 1.9-2.8 0-2.8s-1.9 2.8 0 2.8zM15.8-14.4c1.9 0 1.9-2.8 0-2.8s-1.9 2.8 0 2.8zM8.6-7.2c1.9 0 1.9-2.8 0-2.8s-1.9 2.8 0 2.8zM23-7.2c1.9 0 1.9-2.8 0-2.8s-1.9 2.8 0 2.8zM8.6-21.6c1.9 0 1.9-2.8 0-2.8s-1.9 2.8 0 2.8zM23-21.6c1.9 0 1.9-2.8 0-2.8s-1.9 2.8 0 2.8z"/></g><defs><path id="mouth_e" d="M1.4-30.2h28.8v28.8H1.4z"/></defs><clipPath id="mouth_f"><use overflow="visible" xlink:href="#mouth_e"/></clipPath><g fill="#B18689" clip-path="url(#mouth_f)"><path d="M1.4 0c1.9 0 1.9-2.8 0-2.8C-.4-3-.6 0 1.4 0zM1.4-14.4c1.9 0 1.9-2.8 0-2.8s-1.9 2.8 0 2.8z"/></g><g><defs><path id="mouth_g" d="M1.4-30.2h28.8v28.8H1.4z"/></defs><clipPath id="mouth_h"><use overflow="visible" xlink:href="#mouth_g"/></clipPath><g fill="#B18689" clip-path="url(#mouth_h)"><path d="M30.2-28.8c1.9 0 1.9-2.8 0-2.8s-1.9 2.8 0 2.8zM15.8-28.8c1.9 0 1.9-2.8 0-2.8s-1.9 2.8 0 2.8z"/></g></g><g><defs><path id="mouth_i" d="M1.4-30.2h28.8v28.8H1.4z"/></defs><clipPath id="mouth_j"><use overflow="visible" xlink:href="#mouth_i"/></clipPath><path fill="#B18689" d="M1.4-28.8c1.9 0 1.9-2.8 0-2.8-1.8-.2-2 2.8 0 2.8z" clip-path="url(#mouth_j)"/></g></pattern><path fill="#241F20" d="M453.6 610c.6 2.3.9 5.2.5 8.9 2.1 0 6.2-.8 12 14.1 5.2 13.4 20.3 14.5 34 14.5s28.8-1.1 34-14.5c5.7-14.9 9.9-14.1 12-14.1-1.1-12.6 5-15.6 13.1-15.2-4.8-1.2-4.8-3.6-16.6-8.3-11.3-2.9-32.2 1.9-42.5 1.9-8.4 0-8.8-1.3-30.1-2.7-18.9-1.3-21.4 7.2-29 9.1h4.4c2.3 0 7.2 2.6 8.2 6.3z"/><path fill="#EB8874" d="M542.2 595.4c-.7 2-1.6 4.1-2.4 4.3.1-2.8-4.2-5.2-7.6-1-.2.3-.7.3-1 .1-4.3-3.4-5 2.1-6.4 1.1-5-3.7-7.9 1.8-8.8 0-.5-1.1-1.9-2.8-5-3.4 8.3-1.1 23.2-3.1 31.2-1.1zm-82 3s3.4-5 7.6.2c.2.3.7.3 1 .1 4.3-3.4 5 2.1 6.4 1.1 5.1-3.8 7.9 1.8 8.8 0 .5-1.1 1.9-2.8 5-3.4-8.1-1.1-23.1-3-31-1.1.7 2 1.6 4.1 2.4 4.3-.1.1-.3.2-.2-1.2z"/><path fill="#F7F3E8" d="M539.8 598.4s-3.4-5-7.6.2c-.2.3-.7.3-1 .1-4.3-3.4-5 2.1-6.4 1.1-5.1-3.8-7.9 1.8-8.8 0-2.6-5-7-2.8-13.4-2.5-5.2 2-.2 2-5.4 0-6.4-.3-10.8-2.5-13.4 2.5-.9 1.8-3.8-3.8-8.8 0-1.4 1.1-2.1-4.4-6.4-1.1-.3.2-.7.2-1-.1-4.1-5.2-7.6-.2-7.6-.2-.3 8.9 4.5 10.5 6.8 6.5 1 5.8 3.5 6 7.5 2 0 0 0 1.4 2.6 1.9s6.8-1.9 6.8-1.9c2 4.5 15.4 5.1 16.1 1.4.7 3.7 14.2 3 16.1-1.4 0 0 4.2 2.4 6.8 1.9 2.6-.5 2.6-1.9 2.6-1.9 4.1 4 6.5 3.8 7.5-2 2.6 4.1 7.4 2.3 7-6.5z"/><path class="skin_dark" d="M552 619.8c-1.7 11.8-5.1 45-52 45s-50.3-33.2-52-45c-2.6-18.4-12.4-16.1-2.7-16.1 2.2 0 7.3 2.6 8.2 6.3.6 2.3.9 5.2.5 8.9 2.1 0 6.2-.8 12 14.1 5.4 14.1 21.5 14.5 35.8 14.5 9.7 0 26.7-.5 32.1-14.5 5.7-14.9 9.9-14.1 12-14.1-.4-3.7-.1-6.6.5-8.9.9-3.7 6-6.3 8.2-6.3 9.9 0 0-2.4-2.6 16.1zm-82.1-25.2c22.4 1.6 23 3.1 32.8 2.7 8.3-.3 29-4.6 39.7-1.9 8.2 2.1 11.1 6.9 16.6 8.3-6.4-3.3-12.1-19.9-32.6-19.9-8.7 0-18.8 3.7-26.4 3.7s-17.7-3.7-26.4-3.7c-20.5 0-26.1 16.6-32.6 19.9 7.6-1.9 10.1-10.4 28.9-9.1z"/><path fill="#EB8874" d="M503.3 620.2c16.5-17.9 32.9-9.2 35.4-4.7 5.1 9.5-5.8 3.7-5.8 35.5 0 16.5-1.9 29.8-32.9 29.8s-32.9-13.3-32.9-29.8c0-31.6-10.8-26.1-5.8-35.5 2.4-4.5 18.8-13.2 35.4 4.7 1.8 2 4.8 2 6.6 0z"/><pattern id="mouth_l" patternTransform="matrix(.4765 0 0 .4437 -30492.393 2868.526)" xlink:href="#mouth_k"/><path fill="url(#mouth_l)" d="M539.6 622.2c-17.7 21.4 12.1 58.7-39.6 58.7-51.6 0-21.9-37.3-39.6-58.7-.5-1.9-.1-5 1.2-6.9 17 21.5-11.7 58.6 38.4 58.6 50.1 0 21.5-37.2 38.4-58.6 1.3 1.9 1.7 5 1.2 6.9zm-24.2-10.8c-10.3 4.4-11 10.2-15.2 10.2-4.2 0-5.2-6-15.2-10.2 9.8 4.3 6.5 30.4 15.2 30.4s5.4-26.1 15.2-30.4z"/><pattern id="mouth_n" patternTransform="matrix(.4765 0 0 .4437 -30500.771 2878.746)" xlink:href="#mouth_m"/><path fill="url(#mouth_n)" d="M469.9 594.6c52.8 3.7 3.2 4 60.1 0 18.9-1.3 21.4 7.2 29 9.1-6.5-3.3-12.1-19.9-32.6-19.9-8.7 0-18.8 3.7-26.4 3.7s-17.7-3.7-26.4-3.7c-20.5 0-26.1 16.6-32.6 19.9 7.6-1.9 10.1-10.4 28.9-9.1z"/><path class="skin_outline" d="M437.8 604.1c-.1-.9 1.4 1.2 9.5-4.8 17.9-13.3 34.8-1 65.4-4.8 20.9-2.5 29.8-2.7 40 4.8 8.3 6.2 9.6 3.9 9.5 4.8 0 .3-1.8.3-3 .2-6.9-.4-9.3-9.2-28.5-8.2-17.1 1.2-22.5 3-30.7 3-17.9 0-35.7-8.1-51.6 1.8-6.6 4.2-10.6 3.6-10.6 3.2z"/><path fill="#8C3DF6" d="M626.1 453.1c1.3.2.9 2.2-.4 2-1.3-.2-.9-2.2.4-2z"/><path fill="#E6C4FD" d="M611.2 472.7c-.4-.7.7-1.3 1.1-.6.4.8-.7 1.4-1.1.6zM576.5 485.4c-2 .2-2.2-2.8-.2-3 2-.1 2.2 2.9.2 3z"/><path fill="#8C3DF6" d="M602.3 486.6c-.4-.8.8-1.4 1.2-.6.4.8-.8 1.4-1.2.6z"/><path fill="#E6C4FD" d="M585.3 479c.6-2.4 4.3-1.5 3.7.9-.6 2.5-4.3 1.6-3.7-.9z"/><path fill="#8608EF" d="M614.2 485.5c-1.6-.2-1.1-.4-2.1.8-.3-1.6.1-1.1-1.4-1.8 1.4-.8 1.1-.3 1.2-1.9 1.2 1.1.6.9 2.2.6-.7 1.5-.7.9.1 2.3z"/><path fill="#5D0AF7" d="M622.3 448.7c.9.1.7 1.4-.2 1.3-.8-.2-.6-1.5.2-1.3z"/><path fill="#9845FA" d="M551.8 467.9c.5-.8 1.7 0 1.2.8s-1.7 0-1.2-.8z"/><path fill="#FFF" d="M622.2 457.4c-1 .9 1.2 1.6 1 .4-.3.2-.9 0-1-.4z"/><path fill="#8C3DF6" d="M618.7 455.4c.8 1.9-2.1 3.1-2.9 1.2-.8-1.9 2.1-3.1 2.9-1.2z"/><path fill="#9845FA" d="M608.9 478.5c-.7.3-1.3-.8-.5-1.1.8-.4 1.3.8.5 1.1z"/><path fill="#5D0AF7" d="M611.5 454.8c1.4.7.4 2.7-1 2.1-1.3-.7-.4-2.8 1-2.1z"/><path fill="#FFF" d="M624.8 480.2c-2.4-.6-1.5-4.1.9-3.6 2.3.6 1.4 4.2-.9 3.6z"/><path fill="#7B06F8" d="M636.7 460.1c-.5 1.8-3.2 1.1-2.7-.7.4-1.8 3.1-1.1 2.7.7zM593.1 468.1c-.1.7-1.3.5-1.1-.2.1-.7 1.2-.5 1.1.2z"/><path fill="#8608EF" d="M594.8 472.3c.6-.1.4 0 .7-.6.3.5.1.4.8.5-.4.5-.4.3-.2.9-.6-.2-.4-.3-.9.1 0-.7.1-.5-.4-.9z"/><path fill="#9845FA" d="M570.6 477.8c-.6-1.6 1.9-2.6 2.5-.9.6 1.6-1.9 2.5-2.5.9z"/><path fill="#FFF" d="M558.2 467.3c-2.5 0-2.4 3.8.1 3.8.6 0 1.2-.3 1.5-.8-2.2-.1-2.2-3-1.6-3z"/><path fill="#8C3DF6" d="M586.9 468.4c1.1.5.3 2.2-.8 1.7-1.1-.6-.3-2.3.8-1.7z"/><path fill="#8608EF" d="M627.8 461.8c-.5.4-.4.2-.4.8-.5-.4-.3-.3-.9-.1.2-.6.2-.4-.1-.9.6 0 .4.1.8-.4.2.6 0 .4.6.6zM606.3 482.7c0-.5.1-.4-.4-.7.5-.2.4-.1.5-.6.3.4.2.3.7.3-.3.5-.3.3-.1.8-.5-.1-.3-.2-.7.2z"/><path fill="#8C3DF6" d="M563.5 468.7c2.4 0 2.4 3.7 0 3.6-2.5.1-2.5-3.6 0-3.6z"/><path fill="#5D0AF7" d="M617.9 470.2c-.4-.7.8-1.3 1.1-.6.4.8-.7 1.3-1.1.6z"/><path fill="#8608EF" d="M604.7 477.1c-1.8.2-1.3-.2-2.1 1.5-.8-1.7-.2-1.3-2.1-1.6 1.3-1.3 1.1-.6.8-2.4 1.6.9.9.9 2.6 0-.3 1.9-.5 1.2.8 2.5z"/><path fill="#FFF" d="M619 462.4c-1 2.1 3.1 1.8 1.9-.1-.6 1.2-2.1.4-1.9.1z"/><path fill="#9845FA" d="M596.3 477.9c-.8.4-1.4-.7-.6-1.1.7-.4 1.3.7.6 1.1z"/><path fill="#8C3DF6" d="M578.4 475.7c-1.1 1.1-2.8-.5-1.7-1.6 1.1-1.2 2.8.4 1.7 1.6z"/><path fill="#5D0AF7" d="M614.5 478.7c-1.7-.4-1.1-2.9.6-2.5 1.6.3 1.1 2.8-.6 2.5zM603.1 464.8c.6-2.2 3.9-1.3 3.3.9-.6 2.2-3.9 1.3-3.3-.9z"/><path fill="#FFF" d="M637.3 466.2c-1.2-1.7-3.8.2-2.6 1.9.3.4.8.7 1.3.7-1-1.6 1-3 1.3-2.6zM587.9 487.3c-.2-1.8 2.5-2 2.7-.3.1 1.8-2.6 2.1-2.7.3z"/><path fill="#8608EF" d="M610.3 462.8c1.3-.7 1-.3 1.2-1.8 1.1 1 .6.9 2 .6-.7 1.4-.7.8.1 2.1-1.5-.2-1-.4-2 .7-.3-1.4 0-1-1.3-1.6z"/><path fill="#FFF" d="M612.5 467.3c.6 2 3.2-.6 1.3-1.2.3 1.1-1.2 1.5-1.3 1.2z"/><path fill="#9845FA" d="M598.2 468.1c1.4-1.3 3.3.9 1.9 2.1-1.4 1.2-3.3-.9-1.9-2.1z"/><path fill="#8C3DF6" d="M565.5 478.3c-1.1.1-1.3-1.5-.2-1.6 1.1-.2 1.3 1.5.2 1.6z"/><path fill="#7B06F8" d="M589.9 480.9c1-2.1 4.1-.5 3.1 1.5-1 2-4.1.5-3.1-1.5zM632.6 450.3c1.8 1.6-.7 4.4-2.5 2.7-1.7-1.6.7-4.3 2.5-2.7z"/><path fill="#FFF" d="M604.7 471.5c-.6 1.8 2.6 1.2 1.5-.2-.3.9-1.6.4-1.5.2zM569.7 470.3c-.3 1.8-3 1.4-2.8-.4.3-1.8 3-1.4 2.8.4z"/><path fill="#8C3DF6" d="M596.1 489.5c-2.6.4-3.2-3.5-.7-3.9 2.6-.4 3.3 3.5.7 3.9z"/><path fill="#FFF" d="M618.8 480.4c-.8-.6.1-1.7.8-1.2.8.5 0 1.7-.8 1.2zM597.9 463.4c-1 .6.7 1.6.8.5-.4.2-.8-.1-.8-.5z"/><path fill="#E6C4FD" d="M626.2 469.5c-1.6 1.9-4.5-.5-2.9-2.4s4.5.5 2.9 2.4z"/><path fill="#FFF" d="M570.4 484c2.1-1.6-.3-4.7-2.4-3.1-.5.4-.8 1-.8 1.6 2-1.4 3.6 1.2 3.2 1.5zM606.2 459.7c-.4 1.1 1.4-.4.2-.9-.2-.1-.4 0-.6.1.4.2.5.5.4.8z"/><path fill="#E6C4FD" d="M632.3 467.1c.2 1.5-2 1.8-2.2.3-.3-1.5 2-1.8 2.2-.3z"/><path fill="#FFF" d="M588.2 473.3c.5.5-.3 1.3-.8.8s.3-1.3.8-.8z"/><path fill="#E6C4FD" d="M616 450c1.2 1.1-.4 3-1.7 1.9-1.3-1.1.4-3 1.7-1.9zM582.5 471.6c.9.4.3 1.7-.6 1.3-.8-.3-.3-1.6.6-1.3zM581.3 479.9c-.8 0-.8-1.2 0-1.2s.8 1.2 0 1.2z"/><path fill="#8C3DF6" d="M583 486.3c-.7-.3-.3-1.4.5-1.1.7.3.2 1.4-.5 1.1z"/><path fill="#8608EF" d="M624.2 474c-.6-.2-.4-.3-1 .1 0-.7.1-.5-.4-.9.7-.2.5 0 .7-.7.4.6.2.5.8.5-.4.5-.3.3-.1 1z"/><path fill="#FFF" d="M575.3 469c.8.4.3 1.6-.6 1.3-.7-.4-.2-1.7.6-1.3z"/><path fill="#8C3DF6" d="M631.2 456.8c.8.3.3 1.5-.5 1.2-.8-.4-.3-1.5.5-1.2z"/><path fill="#5D0AF7" d="M558.2 474.6c.6-.7 1.6.2 1 .8-.5.7-1.5-.1-1-.8z"/><path fill="#FFF" d="M598.5 482c.3-.7 1.3-.3 1.1.4-.3.7-1.3.3-1.1-.4z"/><path fill="#8608EF" d="M630.7 473.8c-.4-.3-.2-.3-.7-.1.2-.5.2-.3-.1-.7.5 0 .4.1.7-.4.2.5 0 .4.5.5-.6.4-.5.2-.4.7z"/><pattern id="eye_m" width="28.8" height="28.8" x="250" y="750" overflow="visible" patternUnits="userSpaceOnUse" viewBox="1.4 -30.2 28.8 28.8"><defs><path id="eye_a" d="M1.4-30.2h28.8v28.8H1.4z"/></defs><clipPath id="eye_b"><use overflow="visible" xlink:href="#eye_a"/></clipPath><g class="hair_shadow" clip-path="url(#eye_b)"><path d="M30.2 0c.8 0 1.4-.6 1.4-1.4s-.6-1.4-1.4-1.4-1.4.6-1.4 1.4c0 .8.6 1.4 1.4 1.4zM15.8 0c.8 0 1.4-.6 1.4-1.4s-.6-1.4-1.4-1.4c-.8 0-1.4.6-1.4 1.4 0 .8.6 1.4 1.4 1.4zM30.2-14.4c.8 0 1.4-.6 1.4-1.4s-.6-1.4-1.4-1.4-1.4.6-1.4 1.4c0 .8.6 1.4 1.4 1.4zM15.8-14.4c.8 0 1.4-.6 1.4-1.4s-.6-1.4-1.4-1.4c-.8 0-1.4.6-1.4 1.4 0 .8.6 1.4 1.4 1.4zM8.6-7.2c.8 0 1.4-.6 1.4-1.4S9.4-10 8.6-10c-.8 0-1.4.6-1.4 1.4 0 .8.6 1.4 1.4 1.4zM23-7.2c.8 0 1.4-.6 1.4-1.4S23.8-10 23-10s-1.4.6-1.4 1.4.6 1.4 1.4 1.4zM8.6-21.6c.8 0 1.4-.6 1.4-1.4s-.6-1.4-1.4-1.4c-.8 0-1.4.6-1.4 1.4 0 .8.6 1.4 1.4 1.4zM23-21.6c.8 0 1.4-.6 1.4-1.4s-.6-1.4-1.4-1.4-1.4.6-1.4 1.4c0 .8.6 1.4 1.4 1.4z"/><g><path d="M1.4 0c.8 0 1.4-.6 1.4-1.4s-.6-1.4-1.4-1.4C.6-2.9 0-2.2 0-1.4 0-.6.6 0 1.4 0zM1.4-14.4c.8 0 1.4-.6 1.4-1.4s-.6-1.4-1.4-1.4-1.4.6-1.4 1.4.6 1.4 1.4 1.4z"/></g><g><path d="M30.2-28.8c.8 0 1.4-.6 1.4-1.4s-.6-1.4-1.4-1.4-1.4.6-1.4 1.4c0 .8.6 1.4 1.4 1.4zM15.8-28.8c.8 0 1.4-.6 1.4-1.4s-.6-1.4-1.4-1.4-1.4.6-1.4 1.4c0 .8.6 1.4 1.4 1.4z"/></g><path d="M1.4-28.8c.8 0 1.4-.6 1.4-1.4s-.6-1.4-1.4-1.4C.6-31.7 0-31 0-30.2c0 .8.6 1.4 1.4 1.4z"/></g></pattern><pattern id="eye_k" width="48" height="48" x="250" y="750" overflow="visible" patternUnits="userSpaceOnUse" viewBox="4.8 -52.8 48 48"><defs><path id="eye_c" d="M4.8-52.8h48v48h-48z"/></defs><clipPath id="eye_d"><use overflow="visible" xlink:href="#eye_c"/></clipPath><g class="skin_dark" clip-path="url(#eye_d)"><path d="M28.8-57.6c2.7 0 4.8 2.1 4.8 4.8S31.5-48 28.8-48 24-50.2 24-52.8c0-2.7 2.1-4.8 4.8-4.8zM52.8-57.6c2.7 0 4.8 2.1 4.8 4.8S55.5-48 52.8-48 48-50.2 48-52.8c0-2.7 2.1-4.8 4.8-4.8zM28.8-33.6c2.7 0 4.8 2.1 4.8 4.8S31.5-24 28.8-24 24-26.1 24-28.8s2.1-4.8 4.8-4.8zM52.8-33.6c2.7 0 4.8 2.1 4.8 4.8S55.5-24 52.8-24 48-26.1 48-28.8s2.1-4.8 4.8-4.8zM40.8-45.6c2.7 0 4.8 2.1 4.8 4.8S43.5-36 40.8-36 36-38.2 36-40.8c0-2.7 2.1-4.8 4.8-4.8zM16.8-45.6c2.7 0 4.8 2.1 4.8 4.8S19.5-36 16.8-36 12-38.2 12-40.8c0-2.7 2.1-4.8 4.8-4.8zM40.8-21.6c2.7 0 4.8 2.1 4.8 4.8S43.5-12 40.8-12 36-14.1 36-16.8s2.1-4.8 4.8-4.8zM16.8-21.6c2.7 0 4.8 2.1 4.8 4.8S19.5-12 16.8-12 12-14.1 12-16.8s2.1-4.8 4.8-4.8z"/></g><defs><path id="eye_e" d="M4.8-52.8h48v48h-48z"/></defs><clipPath id="eye_f"><use overflow="visible" xlink:href="#eye_e"/></clipPath><g class="skin_dark" clip-path="url(#eye_f)"><path d="M4.8-57.6c2.7 0 4.8 2.1 4.8 4.8S7.5-48 4.8-48 0-50.1 0-52.8s2.1-4.8 4.8-4.8zM4.8-33.6c2.7 0 4.8 2.1 4.8 4.8S7.5-24 4.8-24 0-26.1 0-28.8s2.1-4.8 4.8-4.8z"/></g><g><defs><path id="eye_g" d="M4.8-52.8h48v48h-48z"/></defs><clipPath id="eye_h"><use overflow="visible" xlink:href="#eye_g"/></clipPath><g class="skin_dark" clip-path="url(#eye_h)"><path d="M28.8-9.6c2.7 0 4.8 2.1 4.8 4.8S31.5 0 28.8 0 24-2.2 24-4.8c0-2.7 2.1-4.8 4.8-4.8zM52.8-9.6c2.7 0 4.8 2.1 4.8 4.8S55.5 0 52.8 0 48-2.2 48-4.8c0-2.7 2.1-4.8 4.8-4.8z"/></g></g><g><defs><path id="eye_i" d="M4.8-52.8h48v48h-48z"/></defs><clipPath id="eye_j"><use overflow="visible" xlink:href="#eye_i"/></clipPath><path class="skin_dark" d="M4.8-9.6c2.7 0 4.8 2.1 4.8 4.8S7.5 0 4.8 0 0-2.2 0-4.8c0-2.7 2.1-4.8 4.8-4.8z" clip-path="url(#eye_j)"/></g></pattern><pattern id="eye_l" patternTransform="rotate(180 27245.438 -3601.332) scale(.252)" xlink:href="#eye_k"/><path fill="url(#eye_l)" d="M363.5 420.8s0 31 32.7 20.5c35.3-19.3 54.9 5.3 54.9 5.3 11.5-.4 16.3-17.6 16.3-17.6s-71.2-35-103.9-8.2z"/><path class="hair_brow" d="M467.5 428.9s-42.4-15.5-79.2-15.5c-12.3 0-24.7 7.3-24.7 7.3s2.7-23.8 23.6-23.8c21.5 0 67.2 19 67.2 19s11.3 4.6 13.1 13z"/><path fill="#FFF" d="M397.9 449s.9 4.4 4.8 8.3c3.1 3.1 8.3 5.7 14.3 6.7 3 .5.8.4 22.4.4 6.5 0 11.9-2.8 13.7-7-21.3-24-45.3-16.4-55.2-8.4z"/><path class="eye_iris" d="M417.2 464c3 .5.8.4 22.4.4 5.2-5.2 6.4-12.1 4.1-17.8-9.1-6.5-17.8-8-25.2-7.2-7.9 5.9-8.9 17.8-1.3 24.6z"/><path fill="#241F20" d="M417.6 465.1c-5.7-.5-10.4-3.9-10-4.3.4-.4 3.5 1.8 10.2 2.4.1 0 25-.1 25 1.1 0 1.2-23.3 1.1-25.2.8zM437.4 441c10.6 4.5 17.9 16.2 15.8 16.5-5-5.2-25.4-25.8-51.3-6.7 0 0-.5 3.5.8 6.5 0 0-3.1-.8-5.7-6 0 0-7.2.4-11.5-4.8 14 2.2 25.4-17 51.9-5.5z"/><g><path class="skin_outline" d="M400.5 439.1c-.4-.6 15.7-13.8 37.3-3.2 8.4 4.1 13.9 10.2 13.4 10.6-.6.6-10.4-9-24.4-11.6-15.4-2.9-25.7 5.2-26.3 4.2z"/></g><circle cx="428.4" cy="452.4" r="7"/><g><path fill="#A60000" d="M579 395.1c-35.8 8-59.5 30-59.5 49.1 0 57.2 129.6 131 129.6-28.8 0-15.6-34.3-28.3-70.1-20.3z"/><pattern id="eye_n" patternTransform="translate(-111493.352 52354.281) scale(.3974)" xlink:href="#eye_m"/><path fill="url(#eye_n)" d="M579 395.1c-35.8 8-59.5 30-59.5 49.1 0 57.2 129.6 131 129.6-28.8 0-15.6-34.3-28.3-70.1-20.3z"/><path fill="#303030" d="M659.6 390.7c-2.2 0-4.1 9.2-17.4 21.6-3.9-6.4-19-13.6-40.8-13.6-36.1 0-67.2 19.6-74.4 38-61.4-15.2-148.3-75.9-173.5-107.7-2.1-2.6-4.9 3.6-2 7 42.8 50.5 139.9 99.4 174.1 107.1-3.3 47.8 115.1 124.3 117.6-22.6 0-1.9 9.6-9.1 16.5-20.8 2.4-4.2 1.2-9-.1-9z"/><g><g fill="#FFF"><path d="M626.2 443.1c-8.5 0-6.4 1.5-9-6.6-.3-.9-1.5-.9-1.8 0-2.6 8.1-.5 6.6-9 6.6-.9 0-1.3 1.2-.6 1.7 6.9 5.1 6 2.6 3.4 10.7-.3.9.7 1.6 1.5 1.1 6.8-5 4.2-5 11.1 0 .7.5 1.7-.2 1.5-1.1-2.6-8.1-3.5-5.6 3.4-10.7.8-.5.4-1.7-.5-1.7z"/><path d="M607.5 463c-4.1 7.7-4.9 12.5 1.8-13.3.3-1.2-9.8-5-16.3-19.5l-6-13.4c-.8-1.9-3.5-1.9-4.3 0-5.8 13.2-6.6 9.5 11.4 23.2-15.1-8.3-17.2-10.5-18.6-7.3-6.8 15.1-11.9 22.9-6.3 22.5 31.5-2 31.2-3.1 5.7 2.4-13.1 2.8-21.5 17.8-14.9 17.8 23.2 0 14.7 3.6 42.9-22.1L588 471.5c-1.3 1.5-.2 3.9 1.8 3.9 26.8 0 24.6 2.4 17.7-12.4z"/></g></g></g><pattern id="hair_i" width="28.8" height="28.8" x="250" y="750" overflow="visible" patternUnits="userSpaceOnUse" viewBox="1.4 -30.2 28.8 28.8"><defs><path id="hair_a" d="M1.4-30.2h28.8v28.8H1.4z"/></defs><clipPath id="hair_b"><use overflow="visible" xlink:href="#hair_a"/></clipPath><g class="hair_shadow" clip-path="url(#hair_b)"><path d="M30.2 0c.8 0 1.4-.6 1.4-1.4s-.6-1.4-1.4-1.4-1.4.6-1.4 1.4c0 .8.6 1.4 1.4 1.4zM15.8 0c.8 0 1.4-.6 1.4-1.4s-.6-1.4-1.4-1.4c-.8 0-1.4.6-1.4 1.4 0 .8.6 1.4 1.4 1.4zM30.2-14.4c.8 0 1.4-.6 1.4-1.4s-.6-1.4-1.4-1.4-1.4.6-1.4 1.4c0 .8.6 1.4 1.4 1.4zM15.8-14.4c.8 0 1.4-.6 1.4-1.4s-.6-1.4-1.4-1.4c-.8 0-1.4.6-1.4 1.4 0 .8.6 1.4 1.4 1.4zM8.6-7.2c.8 0 1.4-.6 1.4-1.4S9.4-10 8.6-10c-.8 0-1.4.6-1.4 1.4 0 .8.6 1.4 1.4 1.4zM23-7.2c.8 0 1.4-.6 1.4-1.4S23.8-10 23-10s-1.4.6-1.4 1.4.6 1.4 1.4 1.4zM8.6-21.6c.8 0 1.4-.6 1.4-1.4s-.6-1.4-1.4-1.4c-.8 0-1.4.6-1.4 1.4 0 .8.6 1.4 1.4 1.4zM23-21.6c.8 0 1.4-.6 1.4-1.4s-.6-1.4-1.4-1.4-1.4.6-1.4 1.4c0 .8.6 1.4 1.4 1.4z"/><g><path d="M1.4 0c.8 0 1.4-.6 1.4-1.4s-.6-1.4-1.4-1.4C.6-2.9 0-2.2 0-1.4 0-.6.6 0 1.4 0zM1.4-14.4c.8 0 1.4-.6 1.4-1.4s-.6-1.4-1.4-1.4-1.4.6-1.4 1.4.6 1.4 1.4 1.4z"/></g><g><path d="M30.2-28.8c.8 0 1.4-.6 1.4-1.4s-.6-1.4-1.4-1.4-1.4.6-1.4 1.4c0 .8.6 1.4 1.4 1.4zM15.8-28.8c.8 0 1.4-.6 1.4-1.4s-.6-1.4-1.4-1.4-1.4.6-1.4 1.4c0 .8.6 1.4 1.4 1.4z"/></g><path d="M1.4-28.8c.8 0 1.4-.6 1.4-1.4s-.6-1.4-1.4-1.4C.6-31.7 0-31 0-30.2c0 .8.6 1.4 1.4 1.4z"/></g></pattern><pattern id="hair_e" width="28.8" height="28.8" x="250" y="750" overflow="visible" patternUnits="userSpaceOnUse" viewBox="1.4 -30.2 28.8 28.8"><defs><path id="hair_c" d="M1.4-30.2h28.8v28.8H1.4z"/></defs><clipPath id="hair_d"><use overflow="visible" xlink:href="#hair_c"/></clipPath><g clip-path="url(#hair_d)"><g fill="#FFF"><path d="M30.2 0c.8 0 1.4-.6 1.4-1.4s-.6-1.4-1.4-1.4-1.4.6-1.4 1.4c0 .8.6 1.4 1.4 1.4zM15.8 0c.8 0 1.4-.6 1.4-1.4s-.6-1.4-1.4-1.4c-.8 0-1.4.6-1.4 1.4 0 .8.6 1.4 1.4 1.4zM30.2-14.4c.8 0 1.4-.6 1.4-1.4s-.6-1.4-1.4-1.4-1.4.6-1.4 1.4c0 .8.6 1.4 1.4 1.4zM15.8-14.4c.8 0 1.4-.6 1.4-1.4s-.6-1.4-1.4-1.4c-.8 0-1.4.6-1.4 1.4 0 .8.6 1.4 1.4 1.4zM8.6-7.2c.8 0 1.4-.6 1.4-1.4S9.4-10 8.6-10c-.8 0-1.4.6-1.4 1.4 0 .8.6 1.4 1.4 1.4zM23-7.2c.8 0 1.4-.6 1.4-1.4S23.8-10 23-10s-1.4.6-1.4 1.4.6 1.4 1.4 1.4zM8.6-21.6c.8 0 1.4-.6 1.4-1.4s-.6-1.4-1.4-1.4c-.8 0-1.4.6-1.4 1.4 0 .8.6 1.4 1.4 1.4zM23-21.6c.8 0 1.4-.6 1.4-1.4s-.6-1.4-1.4-1.4-1.4.6-1.4 1.4c0 .8.6 1.4 1.4 1.4z"/></g><g fill="#FFF"><path d="M1.4 0c.8 0 1.4-.6 1.4-1.4s-.6-1.4-1.4-1.4C.6-2.9 0-2.2 0-1.4 0-.6.6 0 1.4 0zM1.4-14.4c.8 0 1.4-.6 1.4-1.4s-.6-1.4-1.4-1.4-1.4.6-1.4 1.4.6 1.4 1.4 1.4z"/></g><g fill="#FFF"><path d="M30.2-28.8c.8 0 1.4-.6 1.4-1.4s-.6-1.4-1.4-1.4-1.4.6-1.4 1.4c0 .8.6 1.4 1.4 1.4zM15.8-28.8c.8 0 1.4-.6 1.4-1.4s-.6-1.4-1.4-1.4-1.4.6-1.4 1.4c0 .8.6 1.4 1.4 1.4z"/></g><path fill="#FFF" d="M1.4-28.8c.8 0 1.4-.6 1.4-1.4s-.6-1.4-1.4-1.4C.6-31.7 0-31 0-30.2c0 .8.6 1.4 1.4 1.4z"/></g></pattern><path class="hair_fill" d="M836.6 687.6c-.3-.4 6.6-9.8-.6-24.6 1.3-.3 11-11.9 15.5-25.7-1.4 14.8-7.5 25-6.3 25.7 1.9 1 15-24.7 8.1-43.9-2.6-14.1-43-88.3-50-101.1 3.6 0 1.8-47.7-28.5-56.1 2-8.4 1.9-16 .5-22.7 7.1 13.4 8.8 22.8 10 22.5 3.1-.7-10.4-45.3-39.7-61-.9-2.1-2.5-4.1-4.5-5.9 16.1 6.9 22.3 5.5 22.4 5 0-1.8-1.8 2.7-32.8-13.9-9.5-5.1-17.9-10-23.6-13.2 3-6.5 6.7-20.3 3.9-33.4-5.3-23.1-26.9-25.1-28.6-23-8.7-7.5-22.8-10.6-25.3-11.8.9 0-1.3-22.3-15.5-41.8-14.2-19.9-34.8-28.4-35.3-27-.1 0-2.2-7.1-17.8-13.7-23.6-10.1-43-.4-47.9 4.4-26.7-7.6-21-5.6-27.9-12.4 1.1 0-11.2-21.7-38.3-28.2-24.4-3.8-40 6.5-38.5 6.5-17.3.8-29.2 7.3-36.6 13.3-23.2-5.9-54.3 2.4-69.3 25.2-32.7 6.6-46.1 29.1-49.1 39.5-16.6 4.7-9.2 11.5-27 11.3-10.5 0-15.3-5.2-16-4.4-.6.6 5.6 7.1 15.9 7.6 13.4.9 9-5.9 4.4 9.8-39 8.4-41.1 38.4-41.1 38.4l-31.2 16.7c-20.6 4.2-32.2 23.8-38 38.3-16.7 19.9-28.2 9.3-29.6 13.3-.7 2 12.6 9.2 25 .9-.6 2.6 1.7-1.3-14.6 22.5-19.7.7-41.9 9.8-46.8 29.1-22.4 15.6-15.4 43.8-13.2 43.5 2.6-.3-.6-16.1 9.2-29.8-11.7 23.1.8 53.6.8 53.6-54.7-4.6-49.7 49.3-48.4 49.3 2.1 0-.9-15.6 14.1-22.3 6.7-2.9 14.2-2.5 17.2-2.6-6.2 4.4-26.6 42.1-11.2 70.3 1.6 3.4 7.3 10.8 8.6 9.8 1.7-1.3-7.1-11.5-7.3-31.4 1.7 10.3 6.4 21.1 16.2 31.4-19.8 41.8 23.7 41.8 23.7 41.8-3.5 1.8 44.5 89.1 24.3 45l28.9 6.4c25.2 32.2 72.8 54.3 93.1 62.7.1 0-.4 6.4 7.5 14.6 14.9 15.8 35.5 5.7 35.1 4.5 12.5 29.8 44.5 19.6 47.3 18.6 2.4 11.4 12.3 15.8 13.4 14.2.6-.8-1.2-2.9-3.3-6.2-7.9-13.1-.4-28.3.5-33.8 4-5.8 8.5-11.2 12-15.1-.1 1.2 11.4 3.1 22.1-5.4 4.8-3.5 8.5-13.1 7.3-13.5-.1 0 7.4-9 8-21.2 20.4-1.8 14.5-41.6 14.5-41.6 14 24.7-11.3 56.4-11.3 56.4 3.6 10-13.1 27.6-13.1 27.6.5 10.9-11.3 19.4-11.3 19.4 17.6.9 19.9-20.4 19.9-20.4 18.1-4.5 14.5-26.2 14.5-26.2l19-16.7c19.4-13.6.9-43 .9-43 6-10.4 0-19.9 0-19.9 7.9-11 11.6-23.8-9.3-40.4 11.5 7.3 20.2.8 19.7-.1-.4-.8-4.8 1.8-11.1.1-8.3-2.1-15.8-10.4-19.2-13.6-4.3-14.9 9.9-30.2 9.9-30.2 20.8-30.8 0-66.9 0-66.9 9.5-30.3.5-36.2-11.8-61.5-12.2-25.3 0-47.9 0-47.9 10.4.2 13.4-5.1 13.8-10.7 4.5-2.2 17.2-11.5 16.9-29.3-.5-13.6-7.6-22.9-8.3-22.5 17.7-13.3 14.1-22.3 8.8-27.2 0 0 20.3 6.2 27.5-13 0 0 19 0 21.7-16.3 0 0 10.9-10.4 34.4-9 16.2.9 24.9 5.9 33.9-2.7 13.3 7.8 2-.7 58.8 46.1l2.7 28.9c-10 31.2 14.9 42.1 14.9 42.1-23.6 21-10.2 49.3-10.2 49.3-12.9 33.1 3.6 46.6 3.6 47-2 .8 3.2 18.2 3.6 34.6.3 26.2-13.7 24.4-13.1 27.6.3 1.5 11.5 1.4 17.1-10.8-3 36.1-20.2 44.7-38.8 73.1-13.6 12.7-22.7 14-22.2 15.5.3 1.3 7.8-1.1 17.8-8.5-.9 1.5-1-3.2 3.5 39.5-14.3 38.9 3.4 51.6 3.4 51.6s-4.1 16.9-9.3 25.8c-7.3 12.5 10.5 19.6 10.5 19.6-3.6 12.7 6.8 17.2 6.8 17.2-18.5 22.2 2.7 28 2.7 28l-2.7-3.6c-2.7-3.6 10-20.4 7.7-28.5-2.3-8.1 2.3-27.1 2.3-27.1l8.6 9c-9.3 35.9 18.5 42.5 18.5 42.5 1.7 3.6 3.9 6.4 6.5 8.4-7.5-2.2-12.7-6.1-13.8-4.8-2.4 2.7 21.7 22.8 41.1 7.8 13.3-10.8 7.9-14.5 30.9-30.5 11.3 14.9 31.2 7.7 31.2 7.7l54.7-26.3c-4.3 12.8-15.2 13.5-14.6 15.4.2.9 15.5-1.4 18.8-17.4l14.3-6.9s10.2 1.5 20.7-.5c-3.3 2.1-5.6 3.3-5.3 4.2.7 2 27.9-3.6 31.5-29.3 2.7-19.6-10.6-41.4-13.4-41.7zM127 426.7l-14.2 20.6c0-1.7-14.1-3.2-27.9 4.4 7.5-15.9 24.9-21.4 42.1-25zm205.5-191.6c.2-.1-2.4 1.6-6.2 5.1 2.6-4.1 1-3.2 6.2-5.1zm-94.6 546.4c5.8 2.4 9.3 3.6 9.3 3.6 6.2 10.5 12.9 14.9 18.7 16.5-19-1-26-18.4-28-20.1zM307.4 271c-6.8-2.3-15.8-2.8-22-1.9 4.6-7.5 14.2-20.3 40.5-31.4-1.1 2.5-1.4 4.1-1.3 4.1.1.1-14.5 13.8-17.2 29.2zm42.9 506.9c3.4-3.9 5.8-6.4 5.8-6.4 9.7-1 16.4-4.9 21-9.7-10.7 16.2-24.1 14.6-26.8 16.1zm38.9-561.8c-20.8 1.8-36.3 6.9-48 13.4-1.8-.1-4.6 0-8.1.5 11.9-14.7 32.3-24.9 64.6-23.4-5.9 5.1-8.5 9.5-8.5 9.5zM413 400.9c-.1-5.3-2.1-10.2-2.1-10.2 9.3-1.8 13.6-6.7 15.2-12.6-1.8 12.6-9.6 19.5-13.1 22.8zm42.2-207.4c-6.5-1.1-12.5-1.6-18-1.4 27.9-8.3 50.5-4.4 71.1 18-27.2-23.5-53.1-16.6-53.1-16.6zm186.5 75.6c11.2 17.4 13.7 34 15.1 35.2-15.3-5.6-12.8-28.4-15.1-35.2zm-97-41.7c20.2-5.9 34.6-3.4 53.8 5.6-27.6-8.1-45.7-3.5-53.8-5.6zm139.7 90.8c22.7 10.7 22.1 27.4 19.5 52.3-20.8-19.2-1.9-33.9-19.5-52.3zM801 513.7c-12.5-23.1-23.2-42.1-26.1-47.4 19.8 14.8 23.5 37.9 26.1 47.4z"/><g class="hair_outline"><path d="M616.6 315.4c4.5-2.6-1.7-18.1-18.8-30.6-1.3-.9-12.2-21.9-27.8-21.6 3.5-1.7 7.5-5.2 7.4-11.4 0-.5.4 0 2.3-2.4 7.3-8.6.3-20.9-3.5-21-2.5-.1 11.4 11-2.4 21.8 1.1 7.2-3.9 11.7-10.5 14.5 5.5-5.7 1.1-14 1.1-14.1 1.5-2 2.7-17-7.6-21.5-3.6-1.6-7.5-1.5-7.5-.8 0 1.2 16 1.9 11.9 20.9-.6 3.3-.5 1.3.8 4.2 4.9 10.8-5.7 14.3-12.5 23.3-1.1-2.3 5.8-20 2-30.8-3.4-10.1-15.5-12.8-19.1-11.9-.1 0-29.9-32.5-4.8-.9 4.6 5.8 1.9 3.5 7.5 4.3 22.4 3.2 11.6 29.2 13.9 38-6.5-12.3-27.3-37.7-43.7-29-5.5 2.9-9.4 8.3-12.3 13.8-.2.5-38.9-13.6-43.3 30.5-44.8-3.2-19.7 33.4-19.1 33 .2-.1-2.4-4.3-4.1-9.6 1.8-.9 6.8-6.1 14.8-6.8 8.9-.8 16.1 4.4 16.8 3.3.4-.6-3.9-4.5-9.6-6.1-12.2-3.4-20.6 4.9-22.4 8.3-2.9-9.6-2.3-21.8 22.4-19.7 3.1.3 3.5 1.1 3.8-.9.8-.1 1.8-.2 3.1-.4 17.2-2.3 23.4 4.1 24.5 2.5.5-.7-5.1-5.8-14.1-6.4-13.6-1.2-14.2 7.5-12.6-2.3 3.3-16.7 14.9-23.1 18.8-22.5 5.5.8 6.1 4.8 7.2 9.7 22.3-1.8 28.1 12.8 29.1 12.4 1.9-.8-5.8-16.7-26.5-16-.3.1-.7-5.1-5.5-7.3 4.7-.5 9.9 0 15.4 1.5 4.3 1.3 1.8 2 5.8-4.4 1.5-2.4 3.1-4.4 4.8-6 7.9-1.4 15 .5 18.4 13.1 1 3.5.1 2.3 4 3.7 12.9 5 14.2 14.4 15.1 14.2 1.2-.2-.9-13.2-15.6-18-3-9.7-8.3-17.3-18.5-15.7 13-7.7 28 7.5 39.8 26.5 6.2 10 1.1 7.1 10.2-2.5 13.2-14 24.1-7 31.6 1.3-17.7-10.4-33.6 8.8-32.9 10 .3.6 4.1-2.3 5.6-3.4 24-16.3 35.8 4.5 37.4 5.6 7 5 15.1 12.7 17.9 21.2-7.3-9.4-18.3-1-26.2-20.3-1.7-4.3 0-4.1-4.9-1.7-22.4 11.5-21.6 13.1 1.4 2.9.8-.4 3.9 12.6 15.1 15.6 4.1.8 11.6 1.1 15.6 7.5.1 1.1.5 0-3.1 2.9-8.3 6.9-6.6 12.8-6.4 12.7 1 .2-2.3-5.6 9.8-13.2z"/><path d="M379.6 655.6c-3.9-10.5-2.5-22.3 2.6-31.9 2.8-4.6 2.9-3 .5-7.7-6.6-11.8-6.7-28.4 1.5-39.5 2.7-3.6 1.9-.4-1-6.2-8.7-14.9 3.1-38.6 12.9-52.7 3-4.2 3.4-2.7-.9-5.1-15.8-9.2-10-30.2-11.3-32.1-13.4-21.4-15.1-48.7 1.7-75.7 1.6-2.6-14.4-25.4 16.8-50.3 2-1.6.9.5-2.1-6.8-4.3-9.6-1.8-17.2 4.6-21.9 4.9-3.4 2.3 1.4 1.4-10.5-1.3-20.2 8.6-31.5 25.3-34.7 3.4-.6 2.5 1.3 3.3-7.5 6.9-39.6 36.5-48.9 75.6-41.4 14.6 2.9-70.6-28.2-78.6 45.7-.2 1.6-14.8 1.2-23.8 15.1-8.3 13-3.7 29.3-3.8 30-8.4 4.3-13.1 16.8-5.2 29.9.7 1.3-21.4 13.6-19.2 40.2 1.9 18.6 5.6 3-3.4 21.6-16.9 36.8 4.6 66.9 4.3 68.4-1.9 13.2 1.3 25.3 12.6 32.8.5.3-18 21.9-16.4 44.4.8 12.1 5.6 13.2 4.2 15.1-14.1 19.2-1.5 43.1-.3 44.8-12.4 19.3-5.6 44.4 8.7 54.6 2.9 2.1-20.1 3.5-19.1 32.9 0 .7-12.4 7.6-6.3 31 1.5 5.7 1.5.1-7 5.8-16.2 10.9-1.9 28.3-1.1 27.6.3-.3-6.3-6.2-5.5-14.6.5-5.9 4.7-11.6 12.3-13.9 5.4-1.2 4.7.6 3.5-3.4-3.1-11.4-3.1-23.5 6-31 1.4-1.2-3.9-26.3 24.1-32.6-1.5-1.7-11.7-5.9-16.9-20.4zm1.4-36.1s0 .1 0 0c0 .1 0 .1 0 0z"/><path d="M332 491c-9.3-7.7 3-18.2 2.5-18.8-14.7-11.9-12-26.3-5.8-33.9 3.7-5 3.2-2.5-2-5.8-20.8-12.5-24.4-54.7 11.7-71.2 5.7-2.5 3.8.3 2.5-8.3-1.6-14.3 6.6-22.1 20.4-22.6 3.8-.2 2.9 1.2.6-5.5-4.7-15.5-2.8-28.5 11.9-38.5 9.9-6.5 5.2.2 6.3-10.9.5-15 12.8-23.9 27-25.6 3-.3 8.9-67 87.5-45.9 7.7 2.1-9.5-5-28.3-5.3-54.6-.5-56.1 48-62 49-12.1 2.3-22.4 8.9-25.8 20.8-3.7 13.8 2 10.6-3.2 13.5-12.1 6.5-19.9 18.3-18.6 32.7.7 7.3 2.7 11.4 2.9 12.5-10.5.3-21.8 8-22 20.1-1.2 16.4 7 5.2-8.3 15.1-30.4 19.8-25.6 59.7-3.1 73.5-9.6 12.8-5.7 30.5 3.8 36.7-5.1 4.6-6.4 16.3-1.2 19.8-1.6.8-46.4 5.6-31.3 50.9 1.6 4.3 1.6 2.5-.7 5.1-21 22.6 3.6 42.4.8 43.5-31.1 14.2-13.5 46.3-14.4 46.7-33.9 15.5-14.5 41.6-14.7 42-9.7 23 6.7 25.6 3.8 27.3-13.6 8.2-15.3 21.7-8.2 35.9 5 10.2 5.5 3.2-6.1 8.5-21.6 10-11.2 32.8-10.6 32.6.5-.2-4.7-9.2-.9-19.1 2.9-7.7 10.4-13.9 24-14.5-12.1-19.1-12.9-34.9 7.7-43.7-11.3-5.5-12.8-13.6-7.5-25.8.8-1.9 1-.9-1.1-4.5-8.7-16.3-1.8-28.5 14.3-35.9 4.5-2 3.7-.1 1.6-5.6-8.8-22.8-1-35.8 18.3-42.9 1-.3-25.9-22.1-3.3-43.5 2.7-2.6 2.8-.4.2-7.3-8.7-26.2 2.9-42.8 29.7-46.5 11.1-1 8.8 1.3 1.6-4.6z"/><path d="M214.8 571.3c1.2-12.8 8.4-24.9 20.7-31.2-7.7-15-4.8-27.6 11.8-35.6-3.2-18.2 5.4-30.1 22.2-36.9-1.1-5.8.9-10.9 5-14.7 4.3-4.5 5.7-1.6 4.4-6.4-9.2-35 25.3-31.4 25.3-32.5 0-.4-36.8-4.2-27.3 34-12.7 7.8-9.8 17.5-10.7 17.9-16 6.2-23.4 19.3-22.7 34.5.2 3.3 1 1.4-3.5 4.1-12.6 8.2-14.5 20.6-9.2 34.1-4 1.8-22.4 14.6-19.4 44.1.5 3.5 1 .9-3.3 5.3-22 22.3-4.8 49.6-5 49.7-19.9 8.5-27.7 23.6-24.7 42 2.5 16 5.9 10.8 2.2 15.7-24 33.1-.1 56.3.3 55.8 1.1-1.1-23-21.4 1.7-54.4 5.4-6.9 1.1.6-1.5-17.5-3-20.9 7.5-32 26.6-40 .8-.6-21.7-29 6.7-52.2 2.4-1.8-.7-4.3.4-15.8zM91 667.2c.2.9.2 1 0 0zM169.8 542.3c-5.3-17.2 2-31.5 18.8-30.6 11.8 1.8 3.2 1.1 1.8-10.9-1-8.5 4-15.8 10.8-20.9 3.9-2.8 2.5-.4 2-5.8-1.3-15 10.8-24.8 25.1-29-7-26.2 23.3-32.6 23.1-33.4-.1-.6-23.3 4.4-26 22.4-1 6.8.8 9.2-.2 9.5-31 10.6-24.3 32.9-24.8 33.2-11 7.7-16.6 19-11.3 31.6.1.2.4 0-3.1 0-15.7.5-26.3 15.4-19.2 36 .1-.1-30.3 5.3-28.7 33 .6 11.4 4.2 13.4 2.2 13.5-26.5 1.6-41.1 18.5-33.8 45.7 2.1 7.9 2.6 6.8 1.4 6.7-12.6-2-20.8 4.7-16.8 24.2-.6-4-2.9-25.1 15.2-22.3 9.9 1.2 3.4 3.9 1.1-18.1-1.7-20.8 12.3-31.9 33.1-33 7.8-.4 5.9 2 3.1-5.8-6.5-18.9.4-34.4 24.7-40.7 4.7-1.4 2.7-.2 1.5-5.3zM102.5 520.3c6.6 1.8 6.5 2.7 6.2 1.6-6.2-25.6-6-43.4 19.3-47 3.9-16 15.1-30.2 32.4-32.7 5.5-.8.2-.9 2.7-13.5 5-24.8 25.2-24.6 25.2-24.7 5.3-12.9 13-23.4 26.8-19.4 8.2 2.2 6.8 7.5 6.8-2.9 1.5-13.8 8.8-22.6 29.9-24.3 8.1-.6 3.4.7 3.7-7.4.4-9 7.4-20.8 19.7-27.1 13.2-6.7 11-.5 14-6.6 13.4-23.9 36.7-21.1 36.7-22 0-1.2-27.2-1.4-39.5 22.5 0 .3-5.1.3-12.4 3.8-13.3 6.5-21 19.2-21.6 29.2-.3 5.2 1.1 4.3-.9 4.4-22.9 1.7-31.5 11.8-33.1 27.3-.1 1.9-7.6-4.6-18.3 1-10.6 5.4-13.6 18.1-14.8 18.2-9.1 1.3-15.8 6.8-20.4 14-8.8 13.8-4.6 24.1-6.4 24.3-12.2 1.5-26.2 11.8-32.5 31.3-1.3 4.4-33.2 1.2-20.1 48.6.2.8.9.6-3.2-.4-14-3.3-24.7 1.9-24.5 2.3.5.9 9.5-4.5 24.3-.5zM648 528c-16.9-15.9-21.1-37-14.9-59.7.8-2.7.7-1.1-1.5-3.7-9-10.5-10.8-44.5 12.9-60.2 2.9-2 2.6-1.6 2.2-1.8-10.6-5.8-17.6-12.5-16.2-27 1-11.2 2.5-.1-1.2-14.1-2.8-10-3.6-23 6.8-23.4 2.7 0 2 1.5 2.5-6.8.8-40.9-23.7-63.6-49.2-69.1-8.6-1.8 16.5 2.9 31.9 21.1 18.6 21.8 14.5 52 14.4 52.3-5.1-.4-10.9 4.4-11.1 13.9-.1 10.9 4.5 18.2 3.7 20.9-3.1 12.7.3 25 12.3 32.5.6.3-2.6 1.1-8.3 8.1-14.3 18.1-12.3 47.3-2.7 56.6-2.9 8.1-4.4 27.7 1.5 42.7 4.5 11.2 12.4 18.6 12.5 18.5.1 0 0 .1-.5.6-29 37.2-5.8 56-10.7 58.3-15.4 7-38.5 39.7-11.4 69.3 2 2.2 2.2.9-.1 3.2-9.8 12.2-10.4 49.6 3.1 62.2 2.6 2.2 2.4 1.6 2 2.3-6.9 12-7.1 25.8 1.5 37.2 1.8 2.4 1.9 1.5 0 2.5-18.4 10.2-8.6 27.3-8.4 27.2.9-.4-10.4-18.9 12.4-27.2.4-.8-15-12.7-5.6-34.5 3.5-7.9 5-5.3 1.1-7.9-14.5-8.9-13.2-55.8-1.6-61.4 3.8-1.8 2.3-.2-2.3-5.5-24.2-26.8-5.1-58.6 13.9-65.4 3.2-1.2 1.9.7-2.1-8.2-12.1-29.1 14.9-51.7 13.1-53.5zM597 249.3c30.9-1.4 44.1 25 45.9 23.8.6-.4-4.1-9.4-11.9-16.1-20.8-17.7-43.9-8.3-43.3-7 .1.5 3.6-.4 9.3-.7z"/><path d="M681.4 591.7c-13.9-4.2-19-13-18.2-25.4 1.3-9.2 1.6-1.4-2.2-13.3-2.7-8.4-1.3-19.7 6.3-28.1 2.9-3.1 1.6.2-4.9-10.5-9.2-14.2-11.7-31.3-4.4-46.4 4.6-9.7 5.7-4 .1-9.2-6.3-5.5-9.4-13.8-6.6-24.4 1.9-7.2-6.9 9.1 1.7 21.4 5 7.3 6.9 4.8 5.1 7.4-10.1 15.7-10.4 37.4 5.9 58.8 2.2 2.9-10.9 8.5-7 29 1.4 7.3 3.6 9.4 3.3 10.6-5.8 28.5 20.5 32.3 19.4 33.5-6.2 6.3-7.3 15.6-1 24.2 1.3 1.7 1.2.5-1.2 3.5-9.1 11.9-3.8 23.9 3.1 28.7-.1.3-6.6 3.3-11.7 10.4-12.7 16.6-11.5 44.1-4 62.7 3.7 9 4.2 5.7 3.3 8.4-7.8 24.8 13.4 26.6 14.5 31.2 4.9 23.8-5.7 36.4-5 36.9.7.5 11.4-15.4 6.9-38-4.9-6.5-19.3-8.4-14.7-26.1 2.3-11.7 3.2.7-2.4-13.4-8.3-21.4-7.9-53 11.5-67 10.4-7 9.3-2.2 2.5-9-6.8-7.3-7.1-14.8-1.2-22.6 5.1-6.4 5.3-2.7 1.7-7.2-5.9-7.9-4.7-15.4.6-20.6 6.9-6.5 5.9-3.3-1.4-5.5zM747.7 565.8c3.4-12.3-1.3-26.3-17-35.8-9.7-5.9-9.9-1.1-8.2-6.5 14.7-50.7-26.6-65.8-26.6-66.9 0-21.2-12.3-30-12.8-29.3-.6.9 6.6 2.5 10.3 19.4 1.9 14.3-2 9.9 4.1 13.3 13.1 7.2 23.2 20.4 24.9 37 1.2 11.2-1.4 20.7-4.7 30.7-.4 1.4 5.6 1.5 11.3 5 23.2 14.3 14.5 33.3 15 33.9 8 10.8 6.9 18.6-8 23.4-4.1 1.3-3.8-.2-1.7 4.8 1.6 5.3 2.4 9.9-.8 15.1 14.3 25.2 10.2 37.8.8 58.1-1.8 3.9-.7 5.4-.7 5.2 14.4 40-2.3 44.8-1 46.6 6.7 8.9 14.7 22 8 32.5 8.7 32.9-11.5 36.5-11 37.7 0 .1 21-5.3 13.3-37.4 6.3-9.5-.2-23.8-6.9-33-.2-.6 5.8-3.7 6.2-17.6.5-14.5-5.7-30.5-5.7-30.6.5-5 19.7-25.2 2.7-58.6-2-3.9-1.8-2.4-1.2-3.9 3.1-7.8-.5-15.7-.5-15.8 26-8.5 10.3-27.6 10.2-27.3zM818 673.9c4.5-5.5 6.8-13.1 5.2-21.8-1.8-10.7-3.8-5-1.7-12.3 3.3-14.9-10.6-25.4-11.8-26.8 2.3-1.3 14.9-11.5 3.8-29.7.1.2 3.8-15.1-16.5-20.6-1.8.9 10.2-26.4-11.8-41.8-.1 0-1.3-.8-1.3-.8 1.9-19.3-11.8-35.3-28.4-45.2-1.4-.7 6.3-13.5-16.9-29.6-5.5-3.8-11.5-6.5-11.6-6.2-.5 1.2 27.2 12.4 26.3 32-.2 5.3-2.5 3.8 1 5.9 33.8 20.9 25.1 44.1 26.7 45.1 13.5 7.9 15.5 22.4 13 37.8-1.7 10.3-3.1 1.7 9.4 9.1 6.3 3.8 7.7 8.5 6.7 14.1-.2 2.3 11.5 15.6-1.4 26.4-5.8 4.8-7.1 1.1-.2 6.7 8.3 7 13.2 16.3 8.9 27.3 5.8 10.2 5.7 20.7-1.6 30.3-3 3.9-1.4.8 6.2 2.4 11.5 1.9 14.2 11.4 14.6 11.3.2-.1-.7-3-2.9-6.1-6-7.5-15.6-7.4-15.7-7.5zM768.5 693.3c-1.1-1.3-4.1-4.4-5-4.9 5.8-5.4 10-9.6 9.3-18.1-.3-3.7-1.7-7.6-3.1-10-.2-.3-.1 0 1-1.3 7.8-8.4-2.9-18.7-3.5-18.2-.5.4 8.6 9.9 1.7 16.6-1.1 1.2-2.7 1.9-2.5 2.3 5 10.1 4.8 18.9-4.5 25.6-6.5 4.6-6.3.8 0 6.3 10.4 8.9 16.4 23.9 10.5 45-.5.8 1.2 1.2 3.5 5.6 7.1 13.3-7.3 28.3-6.7 28.9.6.6 19.9-17.8 6.5-34.6-.2-.5 10.5-22.4-7.2-43.2zM78.8 538.5c-8.7-4.5-17.4 5.4-16.2 6.5.8.8 5.5-3.7 10.9-4.1 5.8-.5 9.3 4.9 10.3 4.1.7-.5-1.1-4.6-5-6.5zM92.8 455.8c26.9.4 22.3 14.7 25.2 14.3.2 0 .4-.6.4-1.6.7-24.4-46.9-12.8-25.6-12.7zM117.9 652.5c-5 6.9-2.8 20.3-1.7 21.4 0 .4-9.9 9.4-6.7 27 1.2 6.2 3.8 11.2 4.3 10.9.5-.2-1.3-4.5-2-11.2-1.9-19.6 8.9-23.2 7.7-27.8-8.8-31.5 26.9-26.8 27-28.3 0-.8-20.2-4.6-28.6 8zM292.1 699.7c-1.1 6.4 1 11.4.5 11.7-20.9 17-7.9 40.7-1.3 47.6.2.2-3.7 1-7.3 3.7-16.1 12-4.9 38.2-3.8 37.8 1-.4-11.4-32 12.3-38.2 7-1.7 5.6-.1 1.3-5.7-22.4-30.1 3.1-41.9 1.9-45.7-5.8-20.6 8.9-21.6 8.7-22.6-.1-.4-10.4-.1-12.3 11.4zM259.5 696c-.9-3-43 11.9-24.4 47 .8.7-16.2 3.2-13.3 22.5.9 6.1 3.8 11.1 4.2 10.8 1.4-.7-10.6-21.3 10-30 7.5-3.7 3.1 2.5-.9-13.3-7.3-28.8 24.9-35.3 24.4-37zM350.2 733.5c-15.8-22.9-14.1-43.8 6.4-61.9 6.8-6.1 7-2 2-8.4-14.2-17.9-11.9-31.7-2.3-43.5-14.2-24.7 6.3-30.9 6.2-31.2-.1-.4-21.6 4.4-9.1 31-.4.6-3.3 3.1-5.8 9.4-5.2 12.2 1 27.5 9.7 37.9.7.9-21.2 11.9-20.8 37.1.2 13.7 7.9 28.1 11.2 31.6-.1.1-30.8 14.7-17.2 45.1.6 1.3-13.8 7.5-11.8 22.2 1.2 9.3 8.9 16.5 9.2 16.2.4-.5-18-18.9 1.2-33.6 6.3-4.6 5.2-2.1 3.3-7.1-5-13.8-1.6-26.4 9.2-34.8 11.4-9 13-4.2 8.6-10zM415 711.8c-.4.4 1.4 2.9 2 6.5 2.5 14-17.1 34-16 35.1.8.8 10.7-8.1 15.8-18.3 8-16.2-1.1-23.9-1.8-23.3zM409.9 655.7c-8.8-4.9-18.8-5.1-11.3-1.9 21 8.5 20 20.4 22.2 20.1 2-.2-1.6-13.4-10.9-18.2zM400.9 589.7c2 2 23.7-27.7 2.3-50.1-.2-.2-.3-.1.4-.7 7.8-8.1 8.1-16.1 7.3-16.2-1.2-.2 0 6.4-12.1 16.4 23.2 28.5.2 49 2.1 50.6zM824.7 711c1.6-10.6-8.7-15.1-9.2-14.3-.6 1 8.5 4.9 5.9 14.7-1.2 3.6-.4.7 3.7 7.1 12 17.1-3.5 33.3-2.5 34.2.9.9 22-19.5 1.9-40.2-.2-.3 0-.3.2-1.5z"/><path d="M838.3 616.8c6.7-34.3-33.5-62.8-35-60.5-.2.2 37.8 27.8 31.6 60.1-.7 3.8 16.2 13.6 2.6 43.2-1 2.2-1.6 3.4-1.5 3.5.2.1 1.1-.8 2.5-2.9 16.4-24.8-.4-43.1-.2-43.4zM763.1 448.7c7.1 7 10.1 16.4 10.9 16.2 2-.5-6.8-25.6-23.6-26.5-.3 0 .1-.4.3-.6 9.8-16.9-3-21.5-3.4-20.7-.4.9 11.2 5.9-1.5 21.8-4.2 5.4 6-1.3 17.3 9.8zM680.5 346c15.2 11.1 8.8 22.2 9.9 22.7.9.4 8.1-12.2-6.5-24.5-2-24-25.8-24.2-25.8-22.7-.1 2.4 19.9-.9 22.4 24.5z"/></g><pattern id="hair_f" patternTransform="translate(-3910.014 -3882.548) scale(.5241)" xlink:href="#hair_e"/><path fill="url(#hair_f)" d="M258.9 647.3s-22.1-23.2 4.8-47.9c0 0-3.9-23.5 21.1-47.4 0 0-15.5 36-8.2 51.5 0 0-18.4 8.8-17.7 43.8z"/><pattern id="hair_g" patternTransform="translate(-3910.014 -3882.548) scale(.5241)" xlink:href="#hair_e"/><path fill="url(#hair_g)" d="M508.1 220.8s-54-22.6-76.8 25.6c0 .1 20.7-25.6 76.8-25.6z"/><pattern id="hair_h" patternTransform="translate(-3910.014 -3882.548) scale(.5241)" xlink:href="#hair_e"/><path fill="url(#hair_h)" d="M771.3 519s12.3-18.1-24-34.2c0 0 13.4 12.4 24 34.2z"/><pattern id="hair_j" patternTransform="matrix(.4166 0 0 -.4166 -101859.79 -50537.684)" xlink:href="#hair_i"/><path fill="url(#hair_j)" d="M683.7 594.1s-25.7 17.3-21.1 49.3c0 0-16.5 14.4-.9 34.7 0 0 2.1-22.4 22.1-26 0 0-16.9-21.9-1.6-31.3-.1-.1-11.7-14.5 1.5-26.7z"/><pattern id="hair_k" patternTransform="matrix(.4166 0 0 -.4166 -101859.79 -50537.684)" xlink:href="#hair_i"/><path fill="url(#hair_k)" d="M660.5 461.9c-16.5-1.8-31-43.9-31.5-42.6-13.8 32.3 2.6 47.8 2.6 47.8-6.2 27.8 21.3 51.8 21.3 51.8-14.1-32.6 7.6-57 7.6-57z"/><pattern id="hair_l" patternTransform="matrix(.4166 0 0 -.4166 -101859.79 -50537.684)" xlink:href="#hair_i"/><path fill="url(#hair_l)" d="M682.1 345.1s-3.2-21.3-24.2-23.6l-6.5 15.4s30.1 10.1 18.7 34.8L682 377c.1 0 24.3-8.3.1-31.9z"/><pattern id="hair_m" patternTransform="matrix(.4166 0 0 -.4166 -101859.79 -50537.684)" xlink:href="#hair_i"/><path fill="url(#hair_m)" d="M792.8 625.4c5.6-19-13.5-26.1-13.5-26.1 5.3 26.1-12 41.5-12 41.5 36-1.4 25.8 25.8 25.8 25.8 19.7-17.3-.3-41.2-.3-41.2z"/><pattern id="hair_n" patternTransform="matrix(.4166 0 0 -.4166 -101859.79 -50537.684)" xlink:href="#hair_i"/><path fill="url(#hair_n)" d="M332.2 472.6s-21.1-14.8-3.6-37.1l-8.7-4.8s-15.7 6.2-8.8 27.1c0 0-12 9.1-1.8 26.2 0 0-23.7 11.9-12.8 35 0 0 8.7-25 36.1-25.2 0 0-12.6-12-.4-21.2z"/><pattern id="hair_o" patternTransform="matrix(.4166 0 0 -.4166 -101859.79 -50537.684)" xlink:href="#hair_i"/><path fill="url(#hair_o)" d="M166.8 382.3s-20.8 10.8-29.2 29c0 0 15.4-17.6 25.9-15 0 0 9-14.1 24.3-11.9 0 0 .4-17.4 9.8-25.7-.1 0-19.7 0-30.8 23.6z"/><pattern id="hair_p" patternTransform="matrix(.4166 0 0 -.4166 -101859.79 -50537.684)" xlink:href="#hair_i"/><path fill="url(#hair_p)" d="M294.4 371.2c-14.9-1.7-22.3 22.3-22.3 22.3-42.2 9.6-49.4 29-49.4 29-19.9 0-17.1 36-17.1 36 5.1-11.2 21.4-14.4 21.4-14.4.3-31.5 24.4-32.6 24.4-32.6 14.9-18.7 41.4-9.5 41.4-9.5-4.6-21.6 1.6-30.8 1.6-30.8z"/><pattern id="hair_q" patternTransform="matrix(.4166 0 0 -.4166 -101859.79 -50537.684)" xlink:href="#hair_i"/><path fill="url(#hair_q)" d="M617.1 314.2c-.5-15.9-21.3-29-21.3-29-24.7-42.5-46.6-5.4-46.6-5.4s-33.7-61.9-55.6-17.6c0 0-39.3-14-43 29.9 0 0-43.3-6.6-20.3 31.5 0 0 19.9 5.9 27.5-13 0 0 19.6-.3 21.7-16.3 25.8-20.5 59.3 2.2 68.3-11.8 12.8 6.9 58.9 46.2 58.8 46.1-.7-8.4 10.5-14.4 10.5-14.4z"/><pattern id="hair_r" patternTransform="matrix(.4166 0 0 -.4166 -101859.79 -50537.684)" xlink:href="#hair_i"/><path fill="url(#hair_r)" d="M170.3 725.1c.1.7.3 1.4.5 2.1 0-.3-.2-1-.5-2.1z"/><pattern id="hair_s" patternTransform="matrix(.4166 0 0 -.4166 -101859.79 -50537.684)" xlink:href="#hair_i"/><path fill="url(#hair_s)" d="M162.6 678c-17.9 15.1-10.6 49.2-10.6 49.2 0-28.4 18.8-37.6 18.8-37.6-5.2 11.2-1.9 29.3-.5 35.5-3-16.1 13.5-31.8 13.5-31.8-16.9-19 2.7-61.2 2.7-61.2-24.8 11-23.9 45.9-23.9 45.9z"/><pattern id="hair_t" patternTransform="matrix(.4166 0 0 -.4166 -101859.79 -50537.684)" xlink:href="#hair_i"/><path fill="url(#hair_t)" d="M626.5 273.1c-16.9-37.2-45.7-16-45.7-16 30.1-1.2 45.7 16 45.7 16z"/><pattern id="hair_u" patternTransform="matrix(.4166 0 0 -.4166 -101859.79 -50537.684)" xlink:href="#hair_i"/><path fill="url(#hair_u)" d="M630.7 573.3c-19.2 5.6-31.4 33.6-31.4 33.6-18.1 16.2-.7 40.4-.7 40.4-5.8-50 37.9-59.4 37.9-59.4-9.2-3.9-5.8-14.6-5.8-14.6z"/><pattern id="hair_v" patternTransform="matrix(.4166 0 0 -.4166 -101859.79 -50537.684)" xlink:href="#hair_i"/><path fill="url(#hair_v)" d="M107.6 521c-12.3-26.1 2.6-41.9 2.6-41.9-14.4-6.5-19.9 11-19.9 11-14.8-1.4-11.8 30.9-11.8 30.9 18.3-6.1 29.1 0 29.1 0z"/><pattern id="hair_w" patternTransform="matrix(.4166 0 0 -.4166 -101859.79 -50537.684)" xlink:href="#hair_i"/><path fill="url(#hair_w)" d="M548.8 275.5l16.3-11.3c9.3-11.7 22.9-25.1 10.6-35.6-33.2-.4-20 1.5-58-9.4l13.9 16.3c28.6-2 17.2 40 17.2 40z"/><pattern id="hair_x" patternTransform="matrix(.4166 0 0 -.4166 -101859.79 -50537.684)" xlink:href="#hair_i"/><path fill="url(#hair_x)" d="M156.4 529.6c-25.1-.9-28.7 22.2-28.7 22.2-38.4 8.2-34.1 44.8-34.1 44.8-17.1 10.3-7.2 28.9-7.2 28.9.1-21 15.5-25 15.5-25-1.7-31.1 30.4-30.7 30.4-30.7-.9-27.6 24.1-40.2 24.1-40.2z"/><pattern id="hair_y" patternTransform="translate(-3910.614 -3875.764) scale(.5241)" xlink:href="#hair_e"/><path fill="url(#hair_y)" d="M340.4 371.1c.7-1.1-25.8 16-7.8 48.2 0 0-2-32.7 7.8-48.2z"/><pattern id="hair_z" patternTransform="translate(-3910.014 -3882.548) scale(.5241)" xlink:href="#hair_e"/><path fill="url(#hair_z)" d="M651.5 353.7s16 9.1 11.7 25.9c0 0 32.9 1.1 23.9 36.8 0 0-6.4-21.4-29.1-31.4 0 0 3.1-9.1-5.6-26.4"/><pattern id="hair_A" patternTransform="translate(-3910.014 -3882.548) scale(.5241)" xlink:href="#hair_e"/><path fill="url(#hair_A)" d="M646.1 305.5s12.9 18.4-3.2 35.1c0 0 4.9-17.2 3.2-35.1z"/><pattern id="hair_B" patternTransform="translate(-3910.014 -3882.548) scale(.5241)" xlink:href="#hair_e"/><path fill="url(#hair_B)" d="M708.6 527.5c-.9-.6 25.1 5.1 25.8 34.9 0 0 15.8 21.4-17.4 31.7 0 0 17.5-15 5.1-31.7 0 0 7.9-20.4-13.5-34.9z"/><pattern id="hair_C" patternTransform="translate(-3910.014 -3882.548) scale(.5241)" xlink:href="#hair_e"/><path fill="url(#hair_C)" d="M708.5 673.8s15.9 34.9 6.1 64.8c0 0 22 24-2.8 34.8 0 0 31.9-2.3 15.5-41.6.1 0 6-41.4-18.8-58z"/><pattern id="hair_D" patternTransform="translate(-3910.014 -3882.548) scale(.5241)" xlink:href="#hair_e"/><path fill="url(#hair_D)" d="M787.8 573.3s17.5 12.5 11.2 32.3c0 0 22.5-22.9-11.2-32.3z"/></svg>