<svg xmlns="http://www.w3.org/2000/svg" xmlns:xlink="http://www.w3.org/1999/xlink" version="1.1" height='1000px' width='1000px' viewBox='0 0 1000 1000'><style type="text/css">.skin_fill{fill:#894C1A;} .skin_outline{fill:#332624;} .skin_dark{fill:#592F1E;} .skin_halftone{fill:#351810;} .skin_freckles{fill:#663211;} </style><style type="text/css">.hair_fill{fill:#00FFFF;} .hair_outline{fill:#5DABB9;} .hair_shadow{fill:#3B747E;} .hair_brow{fill:#6AC2D2;} </style><style type="text/css">.eye_iris{fill:#CD5C5C;} </style><style type="text/css">.bg_color{fill:#E2F4FF;} .bg_stop_1{stop-color:#E2F4FF;} .bg_stroke_1{stroke:#E2F4FF;} .bg_shape{fill:#FDCC55;} .bg_stop_2{stop-color:#FDCC55;} .bg_stroke_2{stroke:#FDCC55;} .bg_halftone{fill:#4C92E1;} .bg_stop_3{stop-color:#4C92E1;} .bg_stroke_3{stroke:#4C92E1;} </style><pattern id="backdrop_e" width="28.8" height="28.8" y="1000" overflow="visible" patternUnits="userSpaceOnUse" viewBox="1.4 -30.2 28.8 28.8"><defs><path id="backdrop_a" d="M1.4-30.2h28.8v28.8H1.4z"/></defs><clipPath id="backdrop_b"><use overflow="visible" xlink:href="#backdrop_a"/></clipPath><g class="bg_halftone" clip-path="url(#backdrop_b)"><path d="M30.2 0c.8 0 1.4-.6 1.4-1.4s-.6-1.4-1.4-1.4-1.4.6-1.4 1.4c0 .8.6 1.4 1.4 1.4zM15.8 0c.8 0 1.4-.6 1.4-1.4s-.6-1.4-1.4-1.4c-.8 0-1.4.6-1.4 1.4 0 .8.6 1.4 1.4 1.4zM30.2-14.4c.8 0 1.4-.6 1.4-1.4s-.6-1.4-1.4-1.4-1.4.6-1.4 1.4c0 .8.6 1.4 1.4 1.4zM15.8-14.4c.8 0 1.4-.6 1.4-1.4s-.6-1.4-1.4-1.4c-.8 0-1.4.6-1.4 1.4 0 .8.6 1.4 1.4 1.4zM8.6-7.2c.8 0 1.4-.6 1.4-1.4S9.4-10 8.6-10c-.8 0-1.4.6-1.4 1.4 0 .8.6 1.4 1.4 1.4zM23-7.2c.8 0 1.4-.6 1.4-1.4S23.8-10 23-10s-1.4.6-1.4 1.4.6 1.4 1.4 1.4zM8.6-21.6c.8 0 1.4-.6 1.4-1.4s-.6-1.4-1.4-1.4c-.8 0-1.4.6-1.4 1.4 0 .8.6 1.4 1.4 1.4zM23-21.6c.8 0 1.4-.6 1.4-1.4s-.6-1.4-1.4-1.4-1.4.6-1.4 1.4c0 .8.6 1.4 1.4 1.4z"/><g><path d="M1.4 0c.8 0 1.4-.6 1.4-1.4s-.6-1.4-1.4-1.4C.6-2.9 0-2.2 0-1.4 0-.6.6 0 1.4 0zM1.4-14.4c.8 0 1.4-.6 1.4-1.4s-.6-1.4-1.4-1.4-1.4.6-1.4 1.4.6 1.4 1.4 1.4z"/></g><g><path d="M30.2-28.8c.8 0 1.4-.6 1.4-1.4s-.6-1.4-1.4-1.4-1.4.6-1.4 1.4c0 .8.6 1.4 1.4 1.4zM15.8-28.8c.8 0 1.4-.6 1.4-1.4s-.6-1.4-1.4-1.4-1.4.6-1.4 1.4c0 .8.6 1.4 1.4 1.4z"/></g><path d="M1.4-28.8c.8 0 1.4-.6 1.4-1.4s-.6-1.4-1.4-1.4C.6-31.7 0-31 0-30.2c0 .8.6 1.4 1.4 1.4z"/></g></pattern><defs><path id="backdrop_c" d="M0 0h1000v1000H0z"/></defs><use class="bg_color" overflow="visible" xlink:href="#backdrop_c"/><clipPath id="backdrop_d"><use overflow="visible" xlink:href="#backdrop_c"/></clipPath><g clip-path="url(#backdrop_d)"><pattern id="backdrop_f" patternTransform="matrix(1.5 0 0 1.5 3795.442 4307.192)" xlink:href="#backdrop_e"/><path fill="url(#backdrop_f)" d="M716.9 665.5c34.8 148.2 127.4 272.2 172.6 326h92.8c-20.3-35.7-63.5-107.6-111.2-159.6-65.9-71.8-239.9-337.1-116.6-309.2C837 541.4 936.8 636 993.9 696.6V580.2c-64.7-9-145.4-62.2-214.1-130.7-92.9-92.8-158.8-201.2-361.3-278.9C299.4 124.7 188.7 47.4 117.8-8.5H-6.1V90c49.9 45.9 125.4 98.4 230.2 129.5 216.3 64.2 445.9 246.7 492.8 446z"/><pattern id="backdrop_g" patternTransform="matrix(1.5 0 0 1.5 3795.442 4307.192)" xlink:href="#backdrop_e"/><path fill="url(#backdrop_g)" d="M875.7 392.4C987.9 450 968.5 147.9 937.3-8.5H845c29.6 96.3 67 245.8 14.3 244.1C805 233.9 741.1 82.7 707.5-8.5H579.6C677.4 111.2 766 336.1 875.7 392.4z"/><pattern id="backdrop_h" patternTransform="matrix(1.5 0 0 1.5 3795.442 4307.192)" xlink:href="#backdrop_e"/><path fill="url(#backdrop_h)" d="M581.3 188.9C650.9 181.1 557.8 76 469.1-8.5H288.7C381.5 83.7 511 196.7 581.3 188.9z"/><pattern id="backdrop_i" patternTransform="matrix(1.5 0 0 1.5 3795.442 4307.192)" xlink:href="#backdrop_e"/><path fill="url(#backdrop_i)" d="M845.9 664.6c-40.3 24.2 136.7 246.2 177.9 304.1l4.5-168.9c-30.6-62.6-155.1-151.6-182.4-135.2z"/><pattern id="backdrop_j" patternTransform="matrix(1.5 0 0 1.5 3773.396 4317.804)" xlink:href="#backdrop_e"/><path fill="url(#backdrop_j)" d="M201.6 916.8c-40.3 24.2 89 230.5 130.3 288.4l42.5-112.5c-30.6-62.5-145.5-192.3-172.8-175.9z"/><pattern id="backdrop_k" patternTransform="matrix(1.5 0 0 1.5 3795.442 4307.192)" xlink:href="#backdrop_e"/><path fill="url(#backdrop_k)" d="M591.2 733.1c29.1 108.1 77 207.5 104.5 258.4h73.8c-46.7-73.2-76.3-211.9-120.3-332.8C596.3 513.4 313.5 344.8 159.8 290 95.7 267.2 38.7 228.4-6.1 190.9v86.6c47.6 35.1 115.1 74 206.5 103.5 216.2 69.9 348 193.3 390.8 352.1z"/><pattern id="backdrop_l" patternTransform="matrix(1.5 0 0 1.5 3795.442 4307.192)" xlink:href="#backdrop_e"/><path fill="url(#backdrop_l)" d="M146.3 991.5c-45-100.7-91.6-230.3-30.4-224.4 73.2 7 191.5 149.3 249.3 224.4h102.6C339.9 761.5 102.6 651.9-6.1 612v189.2c34.3 41.1 79.5 105.3 113.3 190.3h39.1z"/><pattern id="backdrop_m" patternTransform="matrix(1.5 0 0 1.5 3795.442 4307.192)" xlink:href="#backdrop_e"/><path fill="url(#backdrop_m)" d="M524.4 991.5h62.9c-50.1-75.9-54-161.2-97.7-291.4-55.2-164.7-312.8-252.5-427.7-294.4-24.6-9-47.4-19.2-67.9-29.7v111.9c359.7 84.2 499.1 414.9 530.4 503.6z"/></g><pattern id="ear_k" width="28.8" height="28.8" x="250" y="750" overflow="visible" patternUnits="userSpaceOnUse" viewBox="1.4 -30.2 28.8 28.8"><g fill="#FFF"><path d="M30.2-31.6c.8 0 1.4.6 1.4 1.4 0 .8-.6 1.4-1.4 1.4s-1.4-.6-1.4-1.4c0-.8.6-1.4 1.4-1.4zM15.8-31.6c.8 0 1.4.6 1.4 1.4 0 .8-.6 1.4-1.4 1.4-.8 0-1.4-.6-1.4-1.4 0-.8.6-1.4 1.4-1.4zM30.2-17.2c.8 0 1.4.6 1.4 1.4s-.6 1.4-1.4 1.4-1.4-.6-1.4-1.4c0-.8.6-1.4 1.4-1.4zM15.8-17.2c.8 0 1.4.6 1.4 1.4s-.6 1.4-1.4 1.4c-.8 0-1.4-.6-1.4-1.4 0-.8.6-1.4 1.4-1.4zM8.6-24.4c.8 0 1.4.6 1.4 1.4 0 .8-.6 1.4-1.4 1.4-.8 0-1.4-.6-1.4-1.4 0-.8.6-1.4 1.4-1.4zM23-24.4c.8 0 1.4.6 1.4 1.4 0 .8-.6 1.4-1.4 1.4s-1.4-.6-1.4-1.4.6-1.4 1.4-1.4zM8.6-10c.8 0 1.4.6 1.4 1.4s-.6 1.4-1.4 1.4c-.8 0-1.4-.6-1.4-1.4 0-.8.6-1.4 1.4-1.4zM23-10c.8 0 1.4.6 1.4 1.4s-.6 1.4-1.4 1.4-1.4-.6-1.4-1.4.6-1.4 1.4-1.4z"/></g><g fill="#FFF"><path d="M1.4-31.6c.8 0 1.4.6 1.4 1.4 0 .8-.6 1.4-1.4 1.4-.8.1-1.4-.6-1.4-1.4 0-.8.6-1.4 1.4-1.4zM1.4-17.2c.8 0 1.4.6 1.4 1.4s-.6 1.4-1.4 1.4S0-15 0-15.8s.6-1.4 1.4-1.4z"/></g><g fill="#FFF"><path d="M30.2-2.8c.8 0 1.4.6 1.4 1.4S31 0 30.2 0s-1.4-.6-1.4-1.4c0-.8.6-1.4 1.4-1.4zM15.8-2.8c.8 0 1.4.6 1.4 1.4S16.6 0 15.8 0s-1.4-.6-1.4-1.4c0-.8.6-1.4 1.4-1.4z"/></g><path fill="#FFF" d="M1.4-2.8c.8 0 1.4.6 1.4 1.4S2.2 0 1.4 0C.6.1 0-.6 0-1.4c0-.8.6-1.4 1.4-1.4z"/></pattern><pattern id="ear_n" width="28.8" height="28.8" x="250" y="750" overflow="visible" patternUnits="userSpaceOnUse" viewBox="1.4 -30.2 28.8 28.8"><g fill="#FFF"><path d="M30.2-31.6c.8 0 1.4.6 1.4 1.4 0 .8-.6 1.4-1.4 1.4s-1.4-.6-1.4-1.4c0-.8.6-1.4 1.4-1.4zM15.8-31.6c.8 0 1.4.6 1.4 1.4 0 .8-.6 1.4-1.4 1.4-.8 0-1.4-.6-1.4-1.4 0-.8.6-1.4 1.4-1.4zM30.2-17.2c.8 0 1.4.6 1.4 1.4s-.6 1.4-1.4 1.4-1.4-.6-1.4-1.4c0-.8.6-1.4 1.4-1.4zM15.8-17.2c.8 0 1.4.6 1.4 1.4s-.6 1.4-1.4 1.4c-.8 0-1.4-.6-1.4-1.4 0-.8.6-1.4 1.4-1.4zM8.6-24.4c.8 0 1.4.6 1.4 1.4 0 .8-.6 1.4-1.4 1.4-.8 0-1.4-.6-1.4-1.4 0-.8.6-1.4 1.4-1.4zM23-24.4c.8 0 1.4.6 1.4 1.4 0 .8-.6 1.4-1.4 1.4s-1.4-.6-1.4-1.4.6-1.4 1.4-1.4zM8.6-10c.8 0 1.4.6 1.4 1.4s-.6 1.4-1.4 1.4c-.8 0-1.4-.6-1.4-1.4 0-.8.6-1.4 1.4-1.4zM23-10c.8 0 1.4.6 1.4 1.4s-.6 1.4-1.4 1.4-1.4-.6-1.4-1.4.6-1.4 1.4-1.4z"/></g><g fill="#FFF"><path d="M1.4-31.6c.8 0 1.4.6 1.4 1.4 0 .8-.6 1.4-1.4 1.4-.8.1-1.4-.6-1.4-1.4 0-.8.6-1.4 1.4-1.4zM1.4-17.2c.8 0 1.4.6 1.4 1.4s-.6 1.4-1.4 1.4S0-15 0-15.8s.6-1.4 1.4-1.4z"/></g><g fill="#FFF"><path d="M30.2-2.8c.8 0 1.4.6 1.4 1.4S31 0 30.2 0s-1.4-.6-1.4-1.4c0-.8.6-1.4 1.4-1.4zM15.8-2.8c.8 0 1.4.6 1.4 1.4S16.6 0 15.8 0s-1.4-.6-1.4-1.4c0-.8.6-1.4 1.4-1.4z"/></g><path fill="#FFF" d="M1.4-2.8c.8 0 1.4.6 1.4 1.4S2.2 0 1.4 0C.6.1 0-.6 0-1.4c0-.8.6-1.4 1.4-1.4z"/></pattern><pattern id="ear_i" width="48" height="48" x="250" y="750" overflow="visible" patternUnits="userSpaceOnUse" viewBox="4.8 -52.8 48 48"><defs><path id="ear_a" d="M4.8-52.8h48v48h-48z"/></defs><clipPath id="ear_b"><use overflow="visible" xlink:href="#ear_a"/></clipPath><g class="skin_dark" clip-path="url(#ear_b)"><path d="M28.8-57.6c2.7 0 4.8 2.1 4.8 4.8S31.5-48 28.8-48 24-50.2 24-52.8c0-2.7 2.1-4.8 4.8-4.8zM52.8-57.6c2.7 0 4.8 2.1 4.8 4.8S55.5-48 52.8-48 48-50.2 48-52.8c0-2.7 2.1-4.8 4.8-4.8zM28.8-33.6c2.7 0 4.8 2.1 4.8 4.8S31.5-24 28.8-24 24-26.1 24-28.8s2.1-4.8 4.8-4.8zM52.8-33.6c2.7 0 4.8 2.1 4.8 4.8S55.5-24 52.8-24 48-26.1 48-28.8s2.1-4.8 4.8-4.8zM40.8-45.6c2.7 0 4.8 2.1 4.8 4.8S43.5-36 40.8-36 36-38.2 36-40.8c0-2.7 2.1-4.8 4.8-4.8zM16.8-45.6c2.7 0 4.8 2.1 4.8 4.8S19.5-36 16.8-36 12-38.2 12-40.8c0-2.7 2.1-4.8 4.8-4.8zM40.8-21.6c2.7 0 4.8 2.1 4.8 4.8S43.5-12 40.8-12 36-14.1 36-16.8s2.1-4.8 4.8-4.8zM16.8-21.6c2.7 0 4.8 2.1 4.8 4.8S19.5-12 16.8-12 12-14.1 12-16.8s2.1-4.8 4.8-4.8z"/></g><defs><path id="ear_c" d="M4.8-52.8h48v48h-48z"/></defs><clipPath id="ear_d"><use overflow="visible" xlink:href="#ear_c"/></clipPath><g class="skin_dark" clip-path="url(#ear_d)"><path d="M4.8-57.6c2.7 0 4.8 2.1 4.8 4.8S7.5-48 4.8-48 0-50.1 0-52.8s2.1-4.8 4.8-4.8zM4.8-33.6c2.7 0 4.8 2.1 4.8 4.8S7.5-24 4.8-24 0-26.1 0-28.8s2.1-4.8 4.8-4.8z"/></g><g><defs><path id="ear_e" d="M4.8-52.8h48v48h-48z"/></defs><clipPath id="ear_f"><use overflow="visible" xlink:href="#ear_e"/></clipPath><g class="skin_dark" clip-path="url(#ear_f)"><path d="M28.8-9.6c2.7 0 4.8 2.1 4.8 4.8S31.5 0 28.8 0 24-2.2 24-4.8c0-2.7 2.1-4.8 4.8-4.8zM52.8-9.6c2.7 0 4.8 2.1 4.8 4.8S55.5 0 52.8 0 48-2.2 48-4.8c0-2.7 2.1-4.8 4.8-4.8z"/></g></g><g><defs><path id="ear_g" d="M4.8-52.8h48v48h-48z"/></defs><clipPath id="ear_h"><use overflow="visible" xlink:href="#ear_g"/></clipPath><path class="skin_dark" d="M4.8-9.6c2.7 0 4.8 2.1 4.8 4.8S7.5 0 4.8 0 0-2.2 0-4.8c0-2.7 2.1-4.8 4.8-4.8z" clip-path="url(#ear_h)"/></g></pattern><path class="skin_fill" d="M303.2 465.4v-54.2M695.6 411.2l-19.2-7.6c-22.4 32-10.5 16.9-54.1 67.7l21.3 80.1 20.5-6.1c9-20.7 34.4-79.4 34.4-79.4l-2.9-54.7z"/><pattern id="ear_j" patternTransform="matrix(-.226 0 0 -.226 -105082.07 -29716.85)" xlink:href="#ear_i"/><path fill="url(#ear_j)" d="M689 465.3c0-50-8.5-44.7-7.8-46.7-13.5 35.7-18 48-19.7 52.1-.6 1.5 9.9 3.2 5.1 14.8-10.4 28.3-5.2 5.8-6.2 35.6 0 .3 28.6-55.9 28.6-55.8z"/><path class="skin_outline" d="M663.6 471.7c4.6-9.3 38.6-112.6-2.9-2-1.6 5 8.1 6.7 5 14.7-10.7 26.7-9.1 26.9 2.8 1 3.4-7.6-3.3-13.7-4.9-13.7z"/><path fill="#E9C64A" d="M652.9 526.6c6.5-6.5 16.5 3.3 9.9 9.9-6.6 6.5-16.5-3.3-9.9-9.9z"/><path fill="#E9BB3D" d="M654.3 528.1c4.6-4.6 11.6 2.4 7 7-4.6 4.5-11.6-2.4-7-7z"/><pattern id="ear_l" patternTransform="matrix(-.0825 -.0825 -.0825 .0825 -34039.059 3278.734)" xlink:href="#ear_k"/><path fill="url(#ear_l)" d="M655.9 535c5.8 3.6 9.4-7 2.6-7.7 3.7 2.4 1.7 8.1-2.6 7.7z"/><g><path class="skin_fill" d="M301.5 465.9s25.4 58.7 34.4 79.4l20.5 6.1 21.3-80.1c-43.6-50.8-31.7-35.7-54.1-67.7l-19.2 7.6-2.9 54.7z"/><pattern id="ear_m" patternTransform="matrix(.226 0 0 -.226 42116.316 -29716.85)" xlink:href="#ear_i"/><path fill="url(#ear_m)" d="M339.6 521.1c-1-29.8 4.2-7.2-6.2-35.6-4.8-11.6 5.7-13.3 5.1-14.8-1.7-4.1-6.2-16.4-19.7-52.1.7 1.9-7.8-3.3-7.8 46.7 0-.1 28.6 56.1 28.6 55.8z"/><path class="skin_outline" d="M331.5 485.4c11.9 25.9 13.5 25.7 2.8-1-3.1-8 6.6-9.7 5-14.7-41.5-110.6-7.5-7.3-2.9 2-1.6 0-8.3 6.1-4.9 13.7z"/><path fill="#E9C64A" d="M347.1 526.6c-6.5-6.5-16.5 3.3-9.9 9.9 6.6 6.5 16.5-3.3 9.9-9.9z"/><path fill="#E9BB3D" d="M345.7 528.1c-4.6-4.6-11.6 2.4-7 7 4.6 4.5 11.6-2.4 7-7z"/><pattern id="ear_o" patternTransform="matrix(.0825 -.0825 .0825 .0825 -28972.959 3278.734)" xlink:href="#ear_n"/><path fill="url(#ear_o)" d="M344.1 535c-5.8 3.6-9.4-7-2.6-7.7-3.7 2.4-1.7 8.1 2.6 7.7z"/></g><pattern id="face_i" width="48" height="48" x="250" y="750" overflow="visible" patternUnits="userSpaceOnUse" viewBox="4.8 -52.8 48 48"><defs><path id="face_a" d="M4.8-52.8h48v48h-48z"/></defs><clipPath id="face_b"><use overflow="visible" xlink:href="#face_a"/></clipPath><g class="skin_dark" clip-path="url(#face_b)"><path d="M28.8-57.6c2.7 0 4.8 2.1 4.8 4.8S31.5-48 28.8-48 24-50.2 24-52.8c0-2.7 2.1-4.8 4.8-4.8zM52.8-57.6c2.7 0 4.8 2.1 4.8 4.8S55.5-48 52.8-48 48-50.2 48-52.8c0-2.7 2.1-4.8 4.8-4.8zM28.8-33.6c2.7 0 4.8 2.1 4.8 4.8S31.5-24 28.8-24 24-26.1 24-28.8s2.1-4.8 4.8-4.8zM52.8-33.6c2.7 0 4.8 2.1 4.8 4.8S55.5-24 52.8-24 48-26.1 48-28.8s2.1-4.8 4.8-4.8zM40.8-45.6c2.7 0 4.8 2.1 4.8 4.8S43.5-36 40.8-36 36-38.2 36-40.8c0-2.7 2.1-4.8 4.8-4.8zM16.8-45.6c2.7 0 4.8 2.1 4.8 4.8S19.5-36 16.8-36 12-38.2 12-40.8c0-2.7 2.1-4.8 4.8-4.8zM40.8-21.6c2.7 0 4.8 2.1 4.8 4.8S43.5-12 40.8-12 36-14.1 36-16.8s2.1-4.8 4.8-4.8zM16.8-21.6c2.7 0 4.8 2.1 4.8 4.8S19.5-12 16.8-12 12-14.1 12-16.8s2.1-4.8 4.8-4.8z"/></g><defs><path id="face_c" d="M4.8-52.8h48v48h-48z"/></defs><clipPath id="face_d"><use overflow="visible" xlink:href="#face_c"/></clipPath><g class="skin_dark" clip-path="url(#face_d)"><path d="M4.8-57.6c2.7 0 4.8 2.1 4.8 4.8S7.5-48 4.8-48 0-50.1 0-52.8s2.1-4.8 4.8-4.8zM4.8-33.6c2.7 0 4.8 2.1 4.8 4.8S7.5-24 4.8-24 0-26.1 0-28.8s2.1-4.8 4.8-4.8z"/></g><g><defs><path id="face_e" d="M4.8-52.8h48v48h-48z"/></defs><clipPath id="face_f"><use overflow="visible" xlink:href="#face_e"/></clipPath><g class="skin_dark" clip-path="url(#face_f)"><path d="M28.8-9.6c2.7 0 4.8 2.1 4.8 4.8S31.5 0 28.8 0 24-2.2 24-4.8c0-2.7 2.1-4.8 4.8-4.8zM52.8-9.6c2.7 0 4.8 2.1 4.8 4.8S55.5 0 52.8 0 48-2.2 48-4.8c0-2.7 2.1-4.8 4.8-4.8z"/></g></g><g><defs><path id="face_g" d="M4.8-52.8h48v48h-48z"/></defs><clipPath id="face_h"><use overflow="visible" xlink:href="#face_g"/></clipPath><path class="skin_dark" d="M4.8-9.6c2.7 0 4.8 2.1 4.8 4.8S7.5 0 4.8 0 0-2.2 0-4.8c0-2.7 2.1-4.8 4.8-4.8z" clip-path="url(#face_h)"/></g></pattern><path class="skin_fill" d="M615.2 646.6c18.5-18.1 30.2-26.1 31.4-45.1 12.9-208.3 11.6-193.4 12.6-193.4 9.5-131.6-66.8-198.5-173.6-189.2-43.8 3.2-138.9 24.4-145.2 152.5-1.3 13.1-1.4 26.7-1.3 29.1 14.8 240.5 4.1 207.3 46.2 248.5 0 88.1 10.8 72.7-55 96.6l169.8 150 170.2-150c-66-24-55.1-8-55.1-99z"/><pattern id="face_j" patternTransform="matrix(.26 0 0 -.26 -47499.098 1009.889)" xlink:href="#face_i"/><path fill="url(#face_j)" d="M425.9 710.7c15.6 23.4 34.5 17.8 112.8 17.8 18 0 27.7-9.4 36.7-23l39.7-38.9v-20c-45.6 44.6-38.3 36.8-43.1 44-15.6 23.4-34.5 17.8-112.8 17.8-18 0-27.7-9.4-36.7-23L385.2 649v20c42.9 42 36 34.5 40.7 41.7z"/><path class="skin_outline" d="M347.7 541.5c-1.7.1-8.6-133.3-6.9-133.4 1.8-.1 8.7 133.3 6.9 133.4zM650.3 541.4c-1.7-.1 7.1-133.4 8.9-133.3 1.7.1-7.2 133.4-8.9 133.3z"/><g><pattern id="face_k" patternTransform="matrix(.26 0 0 -.26 -47499.098 1029.889)" xlink:href="#face_i"/><path fill="url(#face_k)" d="M402.1 632.3c1.6-79.2 8-100.8-16.1-117.7-23.1-16.2-26-40.1-26-40.1h-8.2c8.9 135.4-2 108.7 50.3 157.8z"/></g><pattern id="nose_m" width="28.8" height="28.8" x="250" y="750" overflow="visible" patternUnits="userSpaceOnUse" viewBox="1.4 -30.2 28.8 28.8"><defs><path id="nose_a" d="M1.4-30.2h28.8v28.8H1.4z"/></defs><clipPath id="nose_b"><use overflow="visible" xlink:href="#nose_a"/></clipPath><g clip-path="url(#nose_b)"><g fill="#FFF"><path d="M30.2 0c.8 0 1.4-.6 1.4-1.4s-.6-1.4-1.4-1.4-1.4.6-1.4 1.4c0 .8.6 1.4 1.4 1.4zM15.8 0c.8 0 1.4-.6 1.4-1.4s-.6-1.4-1.4-1.4c-.8 0-1.4.6-1.4 1.4 0 .8.6 1.4 1.4 1.4zM30.2-14.4c.8 0 1.4-.6 1.4-1.4s-.6-1.4-1.4-1.4-1.4.6-1.4 1.4c0 .8.6 1.4 1.4 1.4zM15.8-14.4c.8 0 1.4-.6 1.4-1.4s-.6-1.4-1.4-1.4c-.8 0-1.4.6-1.4 1.4 0 .8.6 1.4 1.4 1.4zM8.6-7.2c.8 0 1.4-.6 1.4-1.4S9.4-10 8.6-10c-.8 0-1.4.6-1.4 1.4 0 .8.6 1.4 1.4 1.4zM23-7.2c.8 0 1.4-.6 1.4-1.4S23.8-10 23-10s-1.4.6-1.4 1.4.6 1.4 1.4 1.4zM8.6-21.6c.8 0 1.4-.6 1.4-1.4s-.6-1.4-1.4-1.4c-.8 0-1.4.6-1.4 1.4 0 .8.6 1.4 1.4 1.4zM23-21.6c.8 0 1.4-.6 1.4-1.4s-.6-1.4-1.4-1.4-1.4.6-1.4 1.4c0 .8.6 1.4 1.4 1.4z"/></g><g fill="#FFF"><path d="M1.4 0c.8 0 1.4-.6 1.4-1.4s-.6-1.4-1.4-1.4C.6-2.9 0-2.2 0-1.4 0-.6.6 0 1.4 0zM1.4-14.4c.8 0 1.4-.6 1.4-1.4s-.6-1.4-1.4-1.4-1.4.6-1.4 1.4.6 1.4 1.4 1.4z"/></g><g fill="#FFF"><path d="M30.2-28.8c.8 0 1.4-.6 1.4-1.4s-.6-1.4-1.4-1.4-1.4.6-1.4 1.4c0 .8.6 1.4 1.4 1.4zM15.8-28.8c.8 0 1.4-.6 1.4-1.4s-.6-1.4-1.4-1.4-1.4.6-1.4 1.4c0 .8.6 1.4 1.4 1.4z"/></g><path fill="#FFF" d="M1.4-28.8c.8 0 1.4-.6 1.4-1.4s-.6-1.4-1.4-1.4C.6-31.7 0-31 0-30.2c0 .8.6 1.4 1.4 1.4z"/></g></pattern><pattern id="nose_k" width="48" height="48" x="250" y="750" overflow="visible" patternUnits="userSpaceOnUse" viewBox="4.8 -52.8 48 48"><defs><path id="nose_c" d="M4.8-52.8h48v48h-48z"/></defs><clipPath id="nose_d"><use overflow="visible" xlink:href="#nose_c"/></clipPath><g class="skin_dark" clip-path="url(#nose_d)"><path d="M28.8-57.6c2.7 0 4.8 2.1 4.8 4.8S31.5-48 28.8-48 24-50.2 24-52.8c0-2.7 2.1-4.8 4.8-4.8zM52.8-57.6c2.7 0 4.8 2.1 4.8 4.8S55.5-48 52.8-48 48-50.2 48-52.8c0-2.7 2.1-4.8 4.8-4.8zM28.8-33.6c2.7 0 4.8 2.1 4.8 4.8S31.5-24 28.8-24 24-26.1 24-28.8s2.1-4.8 4.8-4.8zM52.8-33.6c2.7 0 4.8 2.1 4.8 4.8S55.5-24 52.8-24 48-26.1 48-28.8s2.1-4.8 4.8-4.8zM40.8-45.6c2.7 0 4.8 2.1 4.8 4.8S43.5-36 40.8-36 36-38.2 36-40.8c0-2.7 2.1-4.8 4.8-4.8zM16.8-45.6c2.7 0 4.8 2.1 4.8 4.8S19.5-36 16.8-36 12-38.2 12-40.8c0-2.7 2.1-4.8 4.8-4.8zM40.8-21.6c2.7 0 4.8 2.1 4.8 4.8S43.5-12 40.8-12 36-14.1 36-16.8s2.1-4.8 4.8-4.8zM16.8-21.6c2.7 0 4.8 2.1 4.8 4.8S19.5-12 16.8-12 12-14.1 12-16.8s2.1-4.8 4.8-4.8z"/></g><defs><path id="nose_e" d="M4.8-52.8h48v48h-48z"/></defs><clipPath id="nose_f"><use overflow="visible" xlink:href="#nose_e"/></clipPath><g class="skin_dark" clip-path="url(#nose_f)"><path d="M4.8-57.6c2.7 0 4.8 2.1 4.8 4.8S7.5-48 4.8-48 0-50.1 0-52.8s2.1-4.8 4.8-4.8zM4.8-33.6c2.7 0 4.8 2.1 4.8 4.8S7.5-24 4.8-24 0-26.1 0-28.8s2.1-4.8 4.8-4.8z"/></g><g><defs><path id="nose_g" d="M4.8-52.8h48v48h-48z"/></defs><clipPath id="nose_h"><use overflow="visible" xlink:href="#nose_g"/></clipPath><g class="skin_dark" clip-path="url(#nose_h)"><path d="M28.8-9.6c2.7 0 4.8 2.1 4.8 4.8S31.5 0 28.8 0 24-2.2 24-4.8c0-2.7 2.1-4.8 4.8-4.8zM52.8-9.6c2.7 0 4.8 2.1 4.8 4.8S55.5 0 52.8 0 48-2.2 48-4.8c0-2.7 2.1-4.8 4.8-4.8z"/></g></g><g><defs><path id="nose_i" d="M4.8-52.8h48v48h-48z"/></defs><clipPath id="nose_j"><use overflow="visible" xlink:href="#nose_i"/></clipPath><path class="skin_dark" d="M4.8-9.6c2.7 0 4.8 2.1 4.8 4.8S7.5 0 4.8 0 0-2.2 0-4.8c0-2.7 2.1-4.8 4.8-4.8z" clip-path="url(#nose_j)"/></g></pattern><pattern id="nose_l" patternTransform="matrix(.252 0 0 -.252 -70856.242 -7206.028)" xlink:href="#nose_k"/><path fill="url(#nose_l)" d="M484.3 470.3c-1.9 16-3.1 18.7-.1 23.6 6 9.8 7.4 11.1 6.8 15.3-1.4 9.7-11 4.6-18.3 22.3-7.6-12.2-5.5-34.4-5.8-91.9 9.5 8.7 19.3 15.6 17.4 30.7z"/><pattern id="nose_n" patternTransform="rotate(180 27374.346 3312.582) scale(.416)" xlink:href="#nose_m"/><path fill="url(#nose_n)" d="M523.8 448.2l9.3-8.6c-.2 53.1 2.1 79.2-5.8 91.9 0 0-5.2-12.5-14.7-16.1-4-2.5-5.2-9.4-1.8-13.5 4.9-7.9 6.9-10.2 6.9-14.9-1.9-15.8-5.6-28 6.1-38.8zM487 539.6h26.1c-2.5-15.1-23.7-15.1-26.1 0z"/><g><path class="skin_outline" d="M534.1 542.5c-.5 13.8-14.6 12.7-15.6 13.9-2.4 2.9-4.9 6.3-9.8 7.7-4.1 1.1-15.1 1.7-20.4-1.1-3.2-1.7-4.9-4.1-7.2-6.8-20.1-1.8-18.1-21.2-9.4-25.5-.1.6 1-2.8 4.9-7.7 5.4-6.6 10.7-7.9 10.8-7.5.2.6-8 3.2-13.6 16.9-7.7 5.8-5.2 14.7-3.4 14.7 6.4-.4 11.5 4.6 15.4 9.3 4.4 5.1 8.2 5.5 16.3 5.3 8.7-.3 9.6-2.1 14.2-7.2 3.4-3.9 9.2-7.8 14-7 .6.1 4.9-6.7-2.1-14.8-3-3.5 5.8 1.5 5.9 9.8zm-53.3-53.9c.8 5.8 7.9 13.6 8.4 13.3 1.1-.7-4.8-8.8-5.2-13.6-.1-1.1-.1-.6.4-4.3 8.2-64-5.3-7.4-3.6 4.6zm35 5.3c.8.5 2.6-1.6 3.3-4 .9-3.1.2-10.9-1.3-10.9-1.9 0-2.5 14.6-2 14.9z"/></g><pattern id="mouth_i" width="28.8" height="28.8" x="250" y="750" overflow="visible" patternUnits="userSpaceOnUse" viewBox="1.4 -30.2 28.8 28.8"><defs><path id="mouth_a" d="M1.4-30.2h28.8v28.8H1.4z"/></defs><clipPath id="mouth_b"><use overflow="visible" xlink:href="#mouth_a"/></clipPath><g class="skin_halftone" clip-path="url(#mouth_b)"><path d="M30.2 0c1.9 0 1.9-2.8 0-2.8S28.3 0 30.2 0zM15.8 0c1.9 0 1.9-2.8 0-2.8S13.9 0 15.8 0zM30.2-14.4c1.9 0 1.9-2.8 0-2.8s-1.9 2.8 0 2.8zM15.8-14.4c1.9 0 1.9-2.8 0-2.8s-1.9 2.8 0 2.8zM8.6-7.2c1.9 0 1.9-2.8 0-2.8s-1.9 2.8 0 2.8zM23-7.2c1.9 0 1.9-2.8 0-2.8s-1.9 2.8 0 2.8zM8.6-21.6c1.9 0 1.9-2.8 0-2.8s-1.9 2.8 0 2.8zM23-21.6c1.9 0 1.9-2.8 0-2.8s-1.9 2.8 0 2.8z"/></g><defs><path id="mouth_c" d="M1.4-30.2h28.8v28.8H1.4z"/></defs><clipPath id="mouth_d"><use overflow="visible" xlink:href="#mouth_c"/></clipPath><g class="skin_halftone" clip-path="url(#mouth_d)"><path d="M1.4 0c1.9 0 1.9-2.8 0-2.8C-.4-3-.6 0 1.4 0zM1.4-14.4c1.9 0 1.9-2.8 0-2.8s-1.9 2.8 0 2.8z"/></g><g><defs><path id="mouth_e" d="M1.4-30.2h28.8v28.8H1.4z"/></defs><clipPath id="mouth_f"><use overflow="visible" xlink:href="#mouth_e"/></clipPath><g class="skin_halftone" clip-path="url(#mouth_f)"><path d="M30.2-28.8c1.9 0 1.9-2.8 0-2.8s-1.9 2.8 0 2.8zM15.8-28.8c1.9 0 1.9-2.8 0-2.8s-1.9 2.8 0 2.8z"/></g></g><g><defs><path id="mouth_g" d="M1.4-30.2h28.8v28.8H1.4z"/></defs><clipPath id="mouth_h"><use overflow="visible" xlink:href="#mouth_g"/></clipPath><path class="skin_halftone" d="M1.4-28.8c1.9 0 1.9-2.8 0-2.8-1.8-.2-2 2.8 0 2.8z" clip-path="url(#mouth_h)"/></g></pattern><path fill="#241F20" d="M439.5 608.8l25.3 15.8h24.8l59.4-9.8 8.5-6.9-22.2-10.5h-74.7z"/><path fill="#EB8874" d="M457.4 597.4h85v8.7h-85z"/><path fill="#F7F3E8" d="M500 604.1s3.1-2.6 10.3-2.6c5.2 0 7.3 2.3 8 3.6.2.4.8.5 1.2.2 4.1-2.7 7.4-1.2 8.8-.3.4.2.9.1 1.1-.2 2.1-3.1 4.9-1.7 6.1-.8.3.2.8.2 1.1-.1 4.7-5.2 8.6-.2 8.6-.2.2 3.9-1.4 8.3-3.8 8.6-2.4.3-3.9-2.1-3.9-2.1s-.9 4.4-3 4.8c-2.1.3-5.6-2.7-5.6-2.7s0 1.4-3 1.9-7.7-1.9-7.7-1.9c-1.4 2.9-7 3.8-12.4 3.8s-5.9-2.4-5.9-2.4-.5 2.4-5.9 2.4-11-1-12.4-3.8c0 0-4.7 2.4-7.7 1.9s-3-1.9-3-1.9-3.5 3-5.6 2.7c-2.1-.3-3-4.8-3-4.8s-1.5 2.4-3.9 2.1c-2.4-.3-4-4.6-3.8-8.6 0 0 3.9-5 8.6.2.3.3.8.3 1.1.1 1.2-.8 4-2.3 6.1.8.2.4.8.5 1.1.2 1.4-.9 4.8-2.5 8.8.3.4.3.9.2 1.2-.2.7-1.3 2.8-3.6 8-3.6 7.3.1 10.5 2.6 10.5 2.6z"/><path class="skin_dark" d="M564 607.7c-15.8 3.1-35.5 39-67.9 39h-12.9c-12.1 0-23.3-5.7-29.7-15L437.2 608s2.4 1.5 6.3 1.5c10.2 0 13.2 3.3 17.3 6.7 2.5 2 5.2 2.9 9.1 2.9h16.6c9.9 0 48.7-14.9 62.7-9l8.4-2.1 6.4-.3z"/><path class="skin_dark" d="M445.4 606.8c4.6-2.5 12.4-6.6 16.5-7.5 4.9-1.1 20.2 4.8 38.1 4.8 17.9 0 33.2-5.9 38.1-4.8 4.2.9 11.9 4.9 16.5 7.5 2.5 1.3 5.4 1.8 8.2 1.2l2.5-.5h.1l-5.6-1.9c-3.4-1.1-6.1-3.5-7.6-6.5l-1.7-3.5c-2.9-5.9-9.6-9.5-16.7-8.8L500 590l-33.8-3.2c-7.1-.7-13.8 2.9-16.7 8.8l-1.7 3.5c-1.5 3-4.2 5.4-7.6 6.5l-5.6 1.9 2.7.6c2.7.5 5.6.1 8.1-1.3z"/><path fill="url(#mouth_i)" d="M445.4 606.8c4.6-2.5 12.4-6.6 16.5-7.5 4.9-1.1 20.2 4.8 38.1 4.8 17.9 0 33.2-5.9 38.1-4.8 4.2.9 11.9 4.9 16.5 7.5 2.5 1.3 5.4 1.8 8.2 1.2l2.5-.5h.1l-5.6-1.9c-3.4-1.1-6.1-3.5-7.6-6.5l-1.7-3.5c-2.9-5.9-9.6-9.5-16.7-8.8L500 590l-33.8-3.2c-7.1-.7-13.8 2.9-16.7 8.8l-1.7 3.5c-1.5 3-4.2 5.4-7.6 6.5l-5.6 1.9 2.7.6c2.7.5 5.6.1 8.1-1.3z"/><path class="skin_outline" d="M423.8 605.1c.1-.2 2.3 0 6.2.6 2 .3 4.4.7 7.2 1.2 1.3.3 2.7.3 4.1 0 .7-.1 1.4-.3 2.1-.6.7-.3 1.3-.7 2.2-1.1 3.1-1.8 6.6-3.7 10.5-5.4 1-.4 2-.9 3.1-1.3.5-.2 1.1-.4 1.7-.5.3-.1.6-.2.9-.2l1-.1c1.3-.1 2.5 0 3.7.2 1.2.2 2.4.4 3.5.6 4.7.9 9.5 1.9 14.5 2.7 5 .8 10.2 1.3 15.5 1.3 5.3 0 10.5-.5 15.5-1.3s9.8-1.8 14.5-2.7c1.2-.2 2.3-.4 3.5-.6 1.2-.2 2.4-.3 3.7-.2l1 .1c.3.1.6.1.9.2.6.2 1.1.3 1.7.5 1.1.4 2.1.8 3.1 1.3 3.9 1.8 7.3 3.7 10.5 5.4.8.5 1.4.8 2.2 1.1.7.3 1.4.5 2.1.6 1.4.3 2.8.2 4.1 0 2.8-.5 5.2-.9 7.2-1.2 3.9-.6 6.1-.9 6.2-.6s-2.1.9-5.9 2c-1.9.5-4.3 1.1-7 1.8-1.4.4-3.1.6-4.9.3-.9-.1-1.8-.3-2.6-.6-.9-.3-1.8-.8-2.5-1.2-3.2-1.6-6.6-3.4-10.4-4.9-.9-.4-1.9-.8-2.9-1.1-1-.3-2-.7-2.8-.7-1.9 0-4.2.4-6.4.9-4.6.9-9.4 2.1-14.6 2.9-5.1.8-10.5 1.4-16.1 1.4-5.6 0-11-.6-16.1-1.4-5.1-.8-10-1.9-14.6-2.9-2.3-.4-4.6-.9-6.4-.9-.8 0-1.8.3-2.8.7-1 .3-1.9.7-2.9 1.1-3.8 1.6-7.3 3.3-10.4 4.9-.7.4-1.6.9-2.5 1.2-.9.3-1.8.5-2.6.6-1.7.2-3.4 0-4.9-.3-2.8-.7-5.1-1.3-7-1.8-4.1-1.1-6.2-1.8-6.1-2z"/><path fill="none"/><pattern id="eye_i" width="48" height="48" x="250" y="750" overflow="visible" patternUnits="userSpaceOnUse" viewBox="4.8 -52.8 48 48"><defs><path id="eye_a" d="M4.8-52.8h48v48h-48z"/></defs><clipPath id="eye_b"><use overflow="visible" xlink:href="#eye_a"/></clipPath><g class="skin_dark" clip-path="url(#eye_b)"><path d="M28.8-57.6c2.7 0 4.8 2.1 4.8 4.8S31.5-48 28.8-48 24-50.2 24-52.8c0-2.7 2.1-4.8 4.8-4.8zM52.8-57.6c2.7 0 4.8 2.1 4.8 4.8S55.5-48 52.8-48 48-50.2 48-52.8c0-2.7 2.1-4.8 4.8-4.8zM28.8-33.6c2.7 0 4.8 2.1 4.8 4.8S31.5-24 28.8-24 24-26.1 24-28.8s2.1-4.8 4.8-4.8zM52.8-33.6c2.7 0 4.8 2.1 4.8 4.8S55.5-24 52.8-24 48-26.1 48-28.8s2.1-4.8 4.8-4.8zM40.8-45.6c2.7 0 4.8 2.1 4.8 4.8S43.5-36 40.8-36 36-38.2 36-40.8c0-2.7 2.1-4.8 4.8-4.8zM16.8-45.6c2.7 0 4.8 2.1 4.8 4.8S19.5-36 16.8-36 12-38.2 12-40.8c0-2.7 2.1-4.8 4.8-4.8zM40.8-21.6c2.7 0 4.8 2.1 4.8 4.8S43.5-12 40.8-12 36-14.1 36-16.8s2.1-4.8 4.8-4.8zM16.8-21.6c2.7 0 4.8 2.1 4.8 4.8S19.5-12 16.8-12 12-14.1 12-16.8s2.1-4.8 4.8-4.8z"/></g><defs><path id="eye_c" d="M4.8-52.8h48v48h-48z"/></defs><clipPath id="eye_d"><use overflow="visible" xlink:href="#eye_c"/></clipPath><g class="skin_dark" clip-path="url(#eye_d)"><path d="M4.8-57.6c2.7 0 4.8 2.1 4.8 4.8S7.5-48 4.8-48 0-50.1 0-52.8s2.1-4.8 4.8-4.8zM4.8-33.6c2.7 0 4.8 2.1 4.8 4.8S7.5-24 4.8-24 0-26.1 0-28.8s2.1-4.8 4.8-4.8z"/></g><g><defs><path id="eye_e" d="M4.8-52.8h48v48h-48z"/></defs><clipPath id="eye_f"><use overflow="visible" xlink:href="#eye_e"/></clipPath><g class="skin_dark" clip-path="url(#eye_f)"><path d="M28.8-9.6c2.7 0 4.8 2.1 4.8 4.8S31.5 0 28.8 0 24-2.2 24-4.8c0-2.7 2.1-4.8 4.8-4.8zM52.8-9.6c2.7 0 4.8 2.1 4.8 4.8S55.5 0 52.8 0 48-2.2 48-4.8c0-2.7 2.1-4.8 4.8-4.8z"/></g></g><g><defs><path id="eye_g" d="M4.8-52.8h48v48h-48z"/></defs><clipPath id="eye_h"><use overflow="visible" xlink:href="#eye_g"/></clipPath><path class="skin_dark" d="M4.8-9.6c2.7 0 4.8 2.1 4.8 4.8S7.5 0 4.8 0 0-2.2 0-4.8c0-2.7 2.1-4.8 4.8-4.8z" clip-path="url(#eye_h)"/></g></pattern><path fill="#FFF" d="M457.1 457.3s1.7 9.9-24.7 9.9-31-8.4-31-16.2c3.6-28.9 56.2-24.3 55.7 6.3zm85.8 0s-1.7 9.9 24.7 9.9 31-8.4 31-16.2c-3.6-28.9-56.2-24.3-55.7 6.3z"/><path class="eye_iris" d="M584 452.4c0 21.7-32.8 21.7-32.8 0s32.8-21.8 32.8 0zm-168 0c0 21.7 32.8 21.7 32.8 0s-32.8-21.8-32.8 0z"/><pattern id="eye_j" patternTransform="matrix(.252 0 0 -.252 -70871.758 -7216.028)" xlink:href="#eye_i"/><path fill="url(#eye_j)" d="M594 431c-11.9-11.8-44-7.8-50.1 10.4-14.9-53.8 78.4-48 89.1-26.4 4 8-10.2 27.3-18.2 28.6-5.4.9-14.9-8.8-20.8-12.6zm-188 0c11.9-11.8 44-7.8 50.1 10.4 14.9-53.8-78.4-48-89.1-26.4-4 8 10.2 27.3 18.2 28.6 5.4.9 14.9-8.8 20.8-12.6z"/><path d="M574.6 452.4c0 9.2-13.9 9.2-13.9 0-.1-9.3 13.9-9.3 13.9 0zm-149.2 0c0 9.2 13.9 9.2 13.9 0 .1-9.3-13.9-9.3-13.9 0z"/><path class="hair_brow" d="M535.4 402.4c41.8-24 75.5-29.4 97.7 12.6-34.1-23.8-52.4-12.7-91 .1-12.2 4.1-15.5-4.6-18.8-10.3-.1.1 7.3-1.2 12.1-2.4zM522 411c1.1 6.9 7.1 8.4 7.3 7.2.1-.6-2.2-.8-4.2-3.9-.5-.8-3.9-8.9-3.1-3.3zm-57.4-8.6c-41.8-24-75.5-29.4-97.7 12.6 34.1-23.8 52.4-12.7 91 .1 12.2 4.1 15.5-4.6 18.8-10.3.1.1-7.3-1.2-12.1-2.4zm12.2 8.2c-4.1 8.8-6.3 6.3-6.1 7.6.1.5 3.4.6 5.7-2.9 2-3.2 2.4-9.1.4-4.7z"/><path fill="#241F20" d="M597.3 457.2c.5.2-.8 7.3-14 10.3-23.7 5.5-40.7-4-38.6-5.8.4-.4 1.9 1.4 7.6 2.6 8.6 1.9 29.7 1.9 38.6-2.4 4.5-2 5.9-5 6.4-4.7zm-52.4-6.3c9.9-21.3 37.8-21.6 48-9.2 3.8 4.6 5 9.3 5.8 9.2.8-.1.7-5.8-2.7-11.4-11.8-19.3-50.2-12.6-53 10.8-.5 4.2.2 4.4 1.9.6zm-117 18c22.7.9 28-6.6 27.4-7.2-1-.9-2.4 4.7-27.2 3.7-25.1-.8-23.5-9.2-25.4-8.2-1 .4 1.6 10.8 25.2 11.7zm29.2-18.5c-2.7-23.4-41.2-30.1-53-10.8-3.3 5.4-3.6 11.3-2.7 11.4.8.1 1.9-4.6 5.8-9.2 9.9-12.1 37.9-12.5 48 9.2 1.7 3.7 2.3 3.5 1.9-.6z"/><path class="skin_outline" d="M594 431c-.2.2-18-11.7-37.7-1.3-9.3 4.8-11.8 12.1-12.4 11.8-.6-.1 1.9-8.6 11.2-13.9 19.5-11.3 41 1.7 38.9 3.4zm-180.4-3.5c11.3-3.9 27.7-2.2 37.2 7.4 3.6 3.6 4.9 6.7 5.2 6.5.3-.1-.4-3.5-3.9-7.8-9.2-11.1-27.7-13-39.2-7.9-5 2.2-7.2 5-7 5.2.3.4 2.9-1.7 7.7-3.4z"/><pattern id="hair_e" width="28.8" height="28.8" x="250" y="750" overflow="visible" patternUnits="userSpaceOnUse" viewBox="1.4 -30.2 28.8 28.8"><defs><path id="hair_a" d="M1.4-30.2h28.8v28.8H1.4z"/></defs><clipPath id="hair_b"><use overflow="visible" xlink:href="#hair_a"/></clipPath><g class="hair_shadow" clip-path="url(#hair_b)"><path d="M30.2 0c.8 0 1.4-.6 1.4-1.4s-.6-1.4-1.4-1.4-1.4.6-1.4 1.4c0 .8.6 1.4 1.4 1.4zM15.8 0c.8 0 1.4-.6 1.4-1.4s-.6-1.4-1.4-1.4c-.8 0-1.4.6-1.4 1.4 0 .8.6 1.4 1.4 1.4zM30.2-14.4c.8 0 1.4-.6 1.4-1.4s-.6-1.4-1.4-1.4-1.4.6-1.4 1.4c0 .8.6 1.4 1.4 1.4zM15.8-14.4c.8 0 1.4-.6 1.4-1.4s-.6-1.4-1.4-1.4c-.8 0-1.4.6-1.4 1.4 0 .8.6 1.4 1.4 1.4zM8.6-7.2c.8 0 1.4-.6 1.4-1.4S9.4-10 8.6-10c-.8 0-1.4.6-1.4 1.4 0 .8.6 1.4 1.4 1.4zM23-7.2c.8 0 1.4-.6 1.4-1.4S23.8-10 23-10s-1.4.6-1.4 1.4.6 1.4 1.4 1.4zM8.6-21.6c.8 0 1.4-.6 1.4-1.4s-.6-1.4-1.4-1.4c-.8 0-1.4.6-1.4 1.4 0 .8.6 1.4 1.4 1.4zM23-21.6c.8 0 1.4-.6 1.4-1.4s-.6-1.4-1.4-1.4-1.4.6-1.4 1.4c0 .8.6 1.4 1.4 1.4z"/><g><path d="M1.4 0c.8 0 1.4-.6 1.4-1.4s-.6-1.4-1.4-1.4C.6-2.9 0-2.2 0-1.4 0-.6.6 0 1.4 0zM1.4-14.4c.8 0 1.4-.6 1.4-1.4s-.6-1.4-1.4-1.4-1.4.6-1.4 1.4.6 1.4 1.4 1.4z"/></g><g><path d="M30.2-28.8c.8 0 1.4-.6 1.4-1.4s-.6-1.4-1.4-1.4-1.4.6-1.4 1.4c0 .8.6 1.4 1.4 1.4zM15.8-28.8c.8 0 1.4-.6 1.4-1.4s-.6-1.4-1.4-1.4-1.4.6-1.4 1.4c0 .8.6 1.4 1.4 1.4z"/></g><path d="M1.4-28.8c.8 0 1.4-.6 1.4-1.4s-.6-1.4-1.4-1.4C.6-31.7 0-31 0-30.2c0 .8.6 1.4 1.4 1.4z"/></g></pattern><pattern id="hair_g" width="28.8" height="28.8" x="250" y="750" overflow="visible" patternUnits="userSpaceOnUse" viewBox="1.4 -30.2 28.8 28.8"><defs><path id="hair_c" d="M1.4-30.2h28.8v28.8H1.4z"/></defs><clipPath id="hair_d"><use overflow="visible" xlink:href="#hair_c"/></clipPath><g clip-path="url(#hair_d)"><g fill="#FFF"><path d="M30.2 0c.8 0 1.4-.6 1.4-1.4s-.6-1.4-1.4-1.4-1.4.6-1.4 1.4c0 .8.6 1.4 1.4 1.4zM15.8 0c.8 0 1.4-.6 1.4-1.4s-.6-1.4-1.4-1.4c-.8 0-1.4.6-1.4 1.4 0 .8.6 1.4 1.4 1.4zM30.2-14.4c.8 0 1.4-.6 1.4-1.4s-.6-1.4-1.4-1.4-1.4.6-1.4 1.4c0 .8.6 1.4 1.4 1.4zM15.8-14.4c.8 0 1.4-.6 1.4-1.4s-.6-1.4-1.4-1.4c-.8 0-1.4.6-1.4 1.4 0 .8.6 1.4 1.4 1.4zM8.6-7.2c.8 0 1.4-.6 1.4-1.4S9.4-10 8.6-10c-.8 0-1.4.6-1.4 1.4 0 .8.6 1.4 1.4 1.4zM23-7.2c.8 0 1.4-.6 1.4-1.4S23.8-10 23-10s-1.4.6-1.4 1.4.6 1.4 1.4 1.4zM8.6-21.6c.8 0 1.4-.6 1.4-1.4s-.6-1.4-1.4-1.4c-.8 0-1.4.6-1.4 1.4 0 .8.6 1.4 1.4 1.4zM23-21.6c.8 0 1.4-.6 1.4-1.4s-.6-1.4-1.4-1.4-1.4.6-1.4 1.4c0 .8.6 1.4 1.4 1.4z"/></g><g fill="#FFF"><path d="M1.4 0c.8 0 1.4-.6 1.4-1.4s-.6-1.4-1.4-1.4C.6-2.9 0-2.2 0-1.4 0-.6.6 0 1.4 0zM1.4-14.4c.8 0 1.4-.6 1.4-1.4s-.6-1.4-1.4-1.4-1.4.6-1.4 1.4.6 1.4 1.4 1.4z"/></g><g fill="#FFF"><path d="M30.2-28.8c.8 0 1.4-.6 1.4-1.4s-.6-1.4-1.4-1.4-1.4.6-1.4 1.4c0 .8.6 1.4 1.4 1.4zM15.8-28.8c.8 0 1.4-.6 1.4-1.4s-.6-1.4-1.4-1.4-1.4.6-1.4 1.4c0 .8.6 1.4 1.4 1.4z"/></g><path fill="#FFF" d="M1.4-28.8c.8 0 1.4-.6 1.4-1.4s-.6-1.4-1.4-1.4C.6-31.7 0-31 0-30.2c0 .8.6 1.4 1.4 1.4z"/></g></pattern><path class="hair_fill" d="M817.9 551.5c-40.3 7.1-62.9-9.2-75.9-45.8-3.1-9.6-6.2-20-7.4-30.3 14.7 10.1 26.6-5.4 28.5-8.1 14 3 28.4-3.4 28.2-4-.6-1.7-33.6 14.1-51.1-19.3-16.1-31-11.4-113.3-25.7-153.7 23.6 47 19.4 135.4 20.9 99 .6-10.5-.2-28.4-1.4-39.1-13.6-113.6-87.3-121.9-97.9-119.2 8.3-37.4-26.5-57.2-27.2-55.8-.8 1.2 26 16.5 25 46.6-22.6-70.5-87.6-42.6-88-42.8-8.1-16.4-51.6-74.5-124.9-51.2-73.4 23.8-131.6 119.2-139.9 126.3-68.6 58.9-109.6 54.1-109 57.4.1.9 17-2.4 23.1-4.2 36.9-11.4 66.6-34.2 40.4-16.5-22.6 15.4-51.3 33.6-50.8 67.4-.1 25.3 19.2 60.1 11.4 40.7-17.5-44.5-9.1-67.7 20.3-91.6 16.6-13.4 17.7-14.2-1.8 4.2-40.1 38.8-21 77.9 10.3 122.5.1.2.9 1.7 1.2 1.6-.8-.7-10.9 9.4-25.4 14.7-18.7 6.7-27.9-.2-28.6 1.5-.3.7 11.7 8.3 29.8 1.8 18.6-6.8 3.7-7.5-12.8 27.6-22.9 49.5 15.2 82.8 16.2 81.8 1.6-1.6-25.2-21.8-19.4-59.9-1.2 38 37.7 66.7 44.1 90.1 7.4 30.8-24.5 60.3-7.5 87.8 2.8 4.1 3.3 4.1 1.2-.6-5.1-12.8-3.6-23.1.7-36.7-3.6 25.4 6.8 29.3 6.8 29.3-3.6-.7-11.1 65.6 32.1 63.9 2.2-.1 3.4-.3 3.4-.5 6.6 80.2 76 93.8 76 93.8-15.2-24.5 0-43.1 0-43.1 38.8 20.6 56.2 9.9 63.4-8.3-3.7 11.5-8.8 19.5-18.4 26.9-8.3 5.9 3.5.8 9.2-5.2 25.9-25.2 13.8-79.9 11.6-79.3 1.5.5 22.7-56.3-24.2-139.7-4.5-8.1-13-21.3-13.8-20.8 0 0 50.7-56.6 30.4-136-6.4-25.2-9.3-47-9.1-65.7 2.8 47.8 30.9 96 8.7 166.4-5 14.9-8.1 20.6-7.6 20.8 1 .5 8.2-16.8 9.5-20.2 30.1-83.6-19.4-143.5-5.2-197.2 17.8-70.6 108.3-25.9 109.3-28.2 36.3-30.9 80.3-19.2 107.8 20.9 33 49.8 43.3 131 37 159.1-15.4 65.3-83.9 171.4-45.5 246.8 4.2 8.1-3.5-6.3-7.3-26.2-9.8-52.5 17.8-117.2 36.8-166.8-14.8 44.9-26 72.8-26 133.6 0 119.1 89.7 112.3 89.7 112.3-27.9-21.1-5.9-64.2-5.9-64.2 2.5 44.8 53.2 46.5 53.2 46.5-27.6-15.5-18.4-41.3-9.7-56.1-20.4 39.5 10.4 50.5 5.7 46.7-5.1-4.1-8.1-7.5-9.4-15.5-4.6-30.9 23.4-47.3 29.3-81.4-2.8 33.6-26.1 57.6-15.4 45.5 11.1-12.8 18.7-31.9 18.3-56.8-1.1-27.6-13.4-64.3-4.3-35.6 11.9 37.6 12 77.4 12.3 47.6-.2-33.8-19.7-84.4-34.5-101.4 33.8 28.7 82.8 46.6 82.8 46.6-5.9-19.4-55.7-46.5-43.1-42.2 12.7 4.2 28.7-5.1 28.7-5.1-9 1.5-16.9.8-23.9-1.3 23.8 4.6 48.9-4.5 34.7-2.1zM207 399.3c-16.5-31.1-16.1-55.2 6.3-83.8-19.5 28.6-15 60.2-6.3 83.8zm56.4 336.2c-24.3-3.8-31.6-21.6-32.2-46.5 4.6 47.9 44.9 48.4 32.2 46.5zm148.4-38.9c-1.4 26.1 8.7-24.6-40.1-133.4 21.9 40.4 43 85.6 40.1 133.4zm1.1-398.8c9.9-13.4 31.2-13.4 47.6-10.9-16.8-1.7-34.5.1-47.6 10.9zM317 219.2c65-81.5 140.3-108.3 220.8-44.8-111.2-63.3-156.4-19.8-220.8 44.8zm74.1-69.4c-30.1 15.1-55.8 41.1-75.3 68.7-4 5.6-1.1 3.8-27.7 29.3 40.1-53.1 94.9-117.4 161.2-123 39.7-2.3 72.1 19.9 94.8 52.3 11.5 16.5-57.8-75.1-153-27.3zm235 187.6c-14.6-30-38.7-56.1-72.1-55.9 13.7-.9 29.1 2.1 44.6 13.1 15.9 11.2 30.1 48.2 27.5 42.8zm-79-157.6c-.1-.1 55.8-19.5 81.6 35.2-27-48.5-81.6-35.2-81.6-35.2z"/><pattern id="hair_f" patternTransform="matrix(.3974 0 0 -.3974 -97548.352 -48593.836)" xlink:href="#hair_e"/><path fill="url(#hair_f)" d="M320.1 703.6c-13.9 63.3 5.5 104.6 5.5 104.6-30.4-25.2-30.1-74.5-30.1-74.5 12.2-3.8 24.6-30.1 24.6-30.1zm-101-262.1s54.2 45.4 95.8-21.4c0 0-31.7 46.8-88.8 15.6l-7 5.8zm343.2-160c-39.5-140.6-149.7-65.7-149.7-65.7 125.2-45.6 137.5 65.7 137.5 65.7h12.2zm108.8 189.7s30.9 92.4 78.5 106.2L738 554.8s-38.8-27.3-66.9-83.6zm-68.7-173.5c18.2-10.1 35.9-23.4 33.4-66.5 0 0-3.2 44.8-61 52.1 0 .1 19.9 5.3 27.6 14.4zm16.9 23.8c26.9 38.3 72.3 156.4 117.4 165.4l-2-11.5c-39.4-8.6-79.9-127.4-115.4-153.9zm48.6 195.9c21.7 77.7 50.5 120.7 59.9 212.2 36.3-62.5-22.1-101.6-59.9-212.2z"/><path class="hair_outline" d="M601 278.3c-13.2 5.7-26.2 5.8-26.2 5.1 0-.6 12.1-1.2 25.2-7.3 32.9-14.9 33.9-45.2 35.8-44.8.6 0-1.8 33-34.8 47zm-23.7-8.4c-1.5 1.4-14.9 13.3-15.1 11.4-1.5-9.5-8.5-29.3-19.2-45.4-57.3-84.8-157.6.3-155.5-.9 101.7-54.6 148.9 21.9 143.2 50.1-3.3 14.4 11.3-39.1-50.4-62.6-32.9-9.8-59-2.3-92.2 13.6-11.4 5.7-25 23.2-32.2 33.6-16.7 25.1 8.6-20.2 56.3-29.4 55.8-10.4 102.2 32.2 95.2 58.1-.8 2.7-.3 2.6-4-.4-72.8-57.8-124.6-50.1-142.6 43.1C348.4 423 378 474 352 524.9c10.2 22.2 19 35.4 18.6 35.7-.5.3-17.3-24.9-29.8-56.8-7.6 12.4-4.9 62.6-7 112 31.9 39.7 38.3 91 24.7 136 16.4 8.4 35.1 16.5 43.8-.5 6.7-12.9 5.2-30.2 6.3-30.3 1.7 0 5 61.4-40.9 37.6-12.9-6.9-7.4-10-12.9 4.2-4.9 13-11.6 24.5-12.1 24.1-.7-.4 49.9-86.5-6.9-167-3.1-4.7-1.4-6.7-3.2 17.5-4.4 56.4-18.6 72.5-16.1 125.6 1.4 49.4 26.5 66.4 26.2 66.9-.8 1.5-42.9-27.3-24.5-122.2-9.1 21-25.7 34.5-48.9 29.2-6.4-1.5.3-.4 3.4-.2 78.1 6.3 51.3-173.9 64.2-224.6 4.1-16.4 6.4 1.9-3.5-29-.3-1.1.4-1.3-3.5 0-70.4 21.9-3.6 178.6-86.7 189.3-7.1.9-16.5.6-9.6 0 93.4-5.2 24.1-169 92.1-189 12.6-4.1 5.9 7.1-2.6-42.6-2.2-12.8-.2-10.4-4.4-4.9-23.4 30.7-94.6 34.6-94.9 110.5-.1 23.9 8.7 54.1 5.2 43.5-37.4-117.9 69.1-123.8 92.5-159.5-3.7-26.4-.6-28.1-4.6-16.2-23.3 61-92.3 23.4-90.9 21.1 1.6-2.8 61.1 37.6 88.8-22 1.6-3.8 3.5-8.8 4.1-10.1-3.1-65.7 14.1-58.4-11.7-38.7C254.6 405 191 357 206.6 326.2c2.1-4-.2 1.3-.5 4.7-4.7 31.6 58.5 76.2 115.7 18.6 5.1-32.3 15.8-58.7 31.1-81.9 27.1-39.2 64.5-56.1 20.3-30.8-42.8 24.4-85 53.1-134.9 55.1-6.3.2 2.5-.8 6.1-1.4 106-14.9 213.8-152 289.7-69.4 29.7 32.7 28.9 76.2 28 47.5-.7-87.9-126.8-145.2-239.3-55-9.5 7.7 10.1-12.3 35.2-26.3 102.6-57 216.3 3.4 204.2 93.7 2.6-3.8 32.9-23.7 24.4-53.2-5.3-18.3-21.8-32.5-36-44.6-16.1-13.6 74.5 36.7 26.7 86.7zm-228 11.1c-14.7 15.6-54.2 119.5 2.4 243.5 14.8-45.8 7.4-65.7 3.2-117.2-4.3-56.4 5.8-140.1 61.6-148.3 39.2-3.6 85.5 33.9 90 41.3 0-.6.9-3.3.5-8-3.3-35.4-86.9-88.4-157.7-11.3zm267.3 21.1c28.8-1.5 64.8-46.4 95.9-7.7 2.5 3 6.6 8.9 4.6 5-2.4-4.7-6.9-10.6-11.5-14.5-35-30.3-74.7 28.5-102.6 12.5-2.9-1.7-4.2-3.1-4.4-2.9-.2.3 6 8.5 18 7.6zm37.7 67.2c18.7 31.2 35.1 72.5 56 91 12.8 12.1 29.3 17.5 22.6 14-52.3-28.3-53-90.2-108-147.7-17.3-16.9 9.8 9.4 29.4 42.7zm14.4 79.1c33.8 55.5 71.5 51.9 71.5 51.6.1-2-34.6 4-69.2-52.9-24.5-40.2-34-84-35.1-83.7-1.2.2 9.9 47.5 32.8 85zm-32.3-135.9c87.4 3.1 89.1 72.3 91.5 71.9.7-.1-4.8-73.7-91.4-73.7-10.2 0-22.1 1.5-22 2.2 0 .4 8.2-.9 21.9-.4zM739.8 677c-6.3-41.3-50.5-92-67.6-149-7.8-25.6-2.5-21.5-12.4-65.7-2.5-9.8-2.6-9.7-.8.2C682.9 594.3 648.8 675 671.5 740c9.5 26 27.4 40.6 27.7 40.3.8-.8-16-12.4-25.9-40.9-11.2-33.9-7.3-73.7-4.7-117.4 5.4-88.1-5.1-43.8 17.5 16.3 10.9 29.2 18.9 38.3 9.4 70.1-.7 2.5-3.8 11.6-1.2 5.9 23.1-54.7-13.2-51.8-23.4-159.9-.8-9.7-.5-14.2-1.8-31.3 16.2 66.5 71.8 122.4 70 168.2-.5 12-4.9 18.8-4.4 19 .2.1 8.5-12.5 5.1-33.3zm-42.2-160.6c19.3 25.3 39.9 39.1 40.5 38.4.6-.8-17.8-13.1-37.9-40.3-38.7-52.3-52.6-113.7-53.9-113.4-1.5.2 12.3 64.3 51.3 115.3z"/><g><pattern id="hair_h" patternTransform="matrix(.5 0 0 .5 -4099.388 -4110.608)" xlink:href="#hair_g"/><path fill="url(#hair_h)" d="M236.3 308c3.4-1.5 56.1 22.1 87.6-15.9 0 0-14.1 58.6-59.3 49.1 0 0 9.7 15.9 30.9 10.8 0 0-41.4 29.6-81.9-14.4l41.3-10.8-18.6-18.8zm60.8 167.4s-57.4 22.9-54.9 78.2c0 0 17.7-26.2 24.5-36.2 0 0-2.1 83.6-24.6 120.7 45.4-24.2 16.2-120.7 55-162.7zm-13.9 213.7c-5.5 16.9-24.9 27-24.9 27 68.2 1.3 42.2-108 42.2-108-7.6 75.9-52.3 82.7-52.3 82.7 16.8 11.2 35-1.7 35-1.7zm444.6-251.5s-14.2-13.3-29.4-58.6-46.9-54-46.9-54c33.2 88.8 76.3 112.6 76.3 112.6zm-83.1 115.9s-37.6 130.7 13.1 188.4c0 .1-22-102.7-13.1-188.4zm-57-356.7s36 23.9 7 63.4c0 0 45.4-41.3-7-63.4zm-146.4-13.9s-50.1-16.2-131.5 61c0 0 72.2-40.9 131.5-61zM348 585.6s46.6 62.3 36.9 124.7c0 0 28.9-71.9-36.9-124.7zm34.4-274.1s-24.1 30.6-8.7 110.4c12.5 64.9-3.3 89.8-3.3 89.8s28.5-23.4 8.7-106.9c-12.5-52.8 3.3-93.3 3.3-93.3zm311.7 235.7c18.6 38.9 50.6 87 50.6 87-8.7-56.7-50.6-87-52.7-88.9"/></g></svg>