<svg xmlns="http://www.w3.org/2000/svg" xmlns:xlink="http://www.w3.org/1999/xlink" version="1.1" height='1000px' width='1000px' viewBox='0 0 1000 1000'><style type="text/css">.skin_fill{fill:#F1C27D;} .skin_outline{fill:#634F36;} .skin_dark{fill:#D68A6B;} .skin_halftone{fill:#93684C;} .skin_freckles{fill:#C8946B;} </style><style type="text/css">.hair_fill{fill:#FF0000;} .hair_outline{fill:#C4191C;} .hair_shadow{fill:#800A0C;} .hair_brow{fill:#E11E22;} </style><style type="text/css">.eye_iris{fill:#FBCEB1;} </style><style type="text/css">.bg_color{fill:#FFFBFF;} .bg_stop_1{stop-color:#FFFBFF;} .bg_stroke_1{stroke:#FFFBFF;} .bg_shape{fill:#F6E4F7;} .bg_stop_2{stop-color:#F6E4F7;} .bg_stroke_2{stroke:#F6E4F7;} .bg_halftone{fill:#E9BEED;} .bg_stop_3{stop-color:#E9BEED;} .bg_stroke_3{stroke:#E9BEED;} </style><pattern id="backdrop_a" width="72" height="72" y="1000" overflow="visible" patternUnits="userSpaceOnUse" viewBox="0.4 -72.7 72 72"><g class="bg_shape"><path d="M56.8 0c-.7 0-.2-1.2.3-.6.2.2.1.6-.3.6zM4.1-.6c-.7 0-.3-1.2.3-.6.2.2 0 .6-.3.6zM18.9-.6c-.7 0-.2-1.2.3-.6.2.2.1.6-.3.6zM40.7-.4c-.7 0-.3-1.1.3-.6.2.2.1.6-.3.6z"/></g><g class="bg_shape"><path d="M13.3-2.8c-.7 0-.3-1.2.3-.6.2.1.1.6-.3.6zM1.5-3c-.7 0-.2-1.1.3-.6.2.2 0 .6-.3.6zM10.9-4.3c-.7 0-.3-1.2.3-.6.2.2 0 .6-.3.6zM20.1-5.4c-.7 0-.2-1.2.3-.6.2.2 0 .6-.3.6zM4.1-.6c-.7 0-.3-1.2.3-.6.2.2.1.6-.3.6zM7.5-6.9c-.7 0-.2-1.2.3-.6.2.2 0 .6-.3.6zM24.9-2.1c-.7 0-.3-1.1.3-.6.2.2.1.6-.3.6zM27.4-.8c-.7 0-.2-1.1.3-.6.2.2 0 .6-.3.6zM29.4-5.1c-.7 0-.2-1.2.3-.6.2.2.1.6-.3.6zM41.2-6c-.7 0-.2-1.2.3-.6.3.2.1.6-.3.6zM49.7-4.7c-.7 0-.2-1.1.3-.6.2.2 0 .6-.3.6zM35.4-6.6c-.7 0-.3-1.2.3-.6.3.2.1.6-.3.6zM24.9-6.6c-.7 0-.3-1.2.3-.6.2.2.1.6-.3.6zM15.6-6.6c-.7 0-.2-1.2.3-.6.2.2 0 .6-.3.6zM44.2-9.2c-.7 0-.2-1.2.3-.6.3.2.1.6-.3.6zM47.1-.9c-.7 0-.2-1.2.3-.6.2.2 0 .6-.3.6zM18.9-.6c-.7 0-.2-1.2.3-.6.2.3 0 .6-.3.6zM32.8-1.9c-.7 0-.3-1.1.3-.6.2.3 0 .6-.3.6zM40.7-.4c-.7 0-.3-1.1.3-.6.2.2 0 .6-.3.6zM51-24.2c-.7 0-.2-1.2.3-.6.2.2 0 .6-.3.6zM58.7-24.6c-.7 0-.2-1.1.3-.6.2.2 0 .6-.3.6zM63.2-24c-.7 0-.3-1.1.3-.6.2.2 0 .6-.3.6zM67.3-1.7c-.7 0-.2-1.2.3-.6.2.2 0 .6-.3.6zM52.7-11.4c-.7 0-.3-1.1.3-.6.2.1 0 .6-.3.6zM70.9-17.4c-.8 0-.2-1.2.3-.6.2.2 0 .6-.3.6zM71.4-4.3c-.7 0-.3-1.2.3-.6.2.2.1.6-.3.6zM64.3-19.5c-.8 0-.2-1.2.3-.6.2.2 0 .6-.3.6zM62.2-.8c-.7 0-.3-1.1.3-.6.3.3.1.6-.3.6zM54-19.9c-.7 0-.3-1.2.3-.6.2.2 0 .6-.3.6zM52.1-5.6c-.7 0-.2-1.2.3-.6.2.2 0 .6-.3.6zM57.7-17.2c-.7 0-.2-1.1.3-.6.3.1.1.6-.3.6zM61.3-16.5c-.7 0-.3-1.2.3-.6.2.2 0 .6-.3.6zM56.8-3c-.7 0-.2-1.2.3-.6.2.2 0 .6-.3.6zM61.7-9.2c-.7 0-.2-1.1.3-.6.2.2 0 .6-.3.6zM58.3-10.9c-.7 0-.3-1.2.2-.6.3.3.1.6-.2.6zM67.5-7.5c-.7 0-.3-1.1.3-.6.2.2 0 .6-.3.6zM69.6-12.4c-.8 0-.2-1.2.3-.6.2.2 0 .6-.3.6zM65.4-13.5c-.7 0-.3-1.1.3-.6.3.3 0 .6-.3.6zM2.1-15.8c-.7 0-.2-1.1.3-.6.2.3 0 .6-.3.6zM29.6-9.9c-.7 0-.2-1.1.3-.6.2.1.1.6-.3.6zM15.9-21c-.7 0-.3-1.1.3-.7.3.3.1.7-.3.7zM5.2-11.4c-.7 0-.2-1.1.3-.6.3.2.1.6-.3.6zM19.1-18.2c-.7 0-.2-1.2.3-.6.2.2 0 .6-.3.6zM10.1-21.6c-.8 0-.2-1.2.3-.6.2.2.1.6-.3.6zM18.9-24.2c-.7 0-.3-1.1.3-.6.2.2.1.6-.3.6zM21.7-15.9c-.7 0-.2-1.1.3-.6.3.2.1.6-.3.6zM21-12.4c-.7 0-.2-1.2.3-.6.2.2 0 .6-.3.6zM7.5-16.9c-.7 0-.2-1.2.3-.6.2.2.1.6-.3.6zM13.7-12c-.7 0-.3-1.1.3-.6.2.2 0 .6-.3.6zM15.4-15.4c-.8 0-.2-1.2.3-.6.2.2 0 .6-.3.6zM30.6-22.5c-.7 0-.2-1.2.3-.6.2.2 0 .6-.3.6zM36.4-15c-.7 0-.2-1.1.3-.6.2.2 0 .6-.3.6zM42.7-12.9c-.7 0-.2-1.2.3-.6.3.2.1.6-.3.6zM47.1-19.7c-.7 0-.2-1.2.3-.6.2.2 0 .6-.3.6zM47.2-13.7c-.7 0-.2-1.2.3-.6.3.2.1.6-.3.6zM29.1-20.1c-.7 0-.2-1.2.3-.6.2.2 0 .6-.3.6zM31.1-14.8c-.7 0-.3-1.2.3-.6.2.2 0 .6-.3.6zM26.4-16.7c-.7 0-.2-1.2.3-.6.3.2.1.6-.3.6zM39.6-17.1c-.7 0-.2-1.2.3-.6.2.2 0 .6-.3.6zM43.3-22.9c-.7 0-.2-1.2.3-.6.2.3 0 .6-.3.6zM44.4-17.1c-.7 0-.3-1.2.3-.6.2.3.1.6-.3.6zM26.8-24.8c-.7 0-.2-1.2.3-.6.2.2 0 .6-.3.6zM49.7-20.2c-.7 0-.3-1.1.3-.6.2.2 0 .6-.3.6zM36-24.2c-.7 0-.2-1.2.3-.6.2.2 0 .6-.3.6zM36.4-20.2c-.7 0-.2-1.1.3-.6.2.2 0 .6-.3.6zM3.2-23.6c-.7 0-.3-1.2.3-.6.2.2 0 .6-.3.6zM5.6-24.6c-.8 0-.2-1.2.3-.6.3.3 0 .6-.3.6zM3.7-70.5c-.7 0-.2-1.2.3-.6.3.2.1.6-.3.6zM10.5-66.2c-.7 0-.2-1.1.3-.6.2.2 0 .6-.3.6zM4.5-66c-.7 0-.2-1.2.3-.6.2.2 0 .6-.3.6zM22.9-68.6c-.7 0-.3-1.2.3-.6.2.2 0 .6-.3.6zM31.5-71.2c-.7 0-.2-1.2.3-.6.2.1 0 .6-.3.6zM47.2-67.7c-.7 0-.2-1.1.3-.6.3.2.1.6-.3.6zM34.1-67.1c-.8 0-.2-1.2.3-.6.2.1.1.6-.3.6zM23.2-65.2c-.7 0-.2-1.2.3-.6.3.2.1.6-.3.6zM13.7-69.9c-.7 0-.3-1.1.3-.6.2.2 0 .6-.3.6zM16.3-67.1c-.8 0-.2-1.2.3-.6.2.1.1.6-.3.6zM41.6-65.1c-.7 0-.3-1.2.3-.6.2.3 0 .6-.3.6zM7.9-68.8c-.8 0-.2-1.2.3-.6.2.2 0 .6-.3.6zM30-64.9c-.7 0-.2-1.2.3-.6.2.2.1.6-.3.6zM11.1-63.6c-.8 0-.2-1.2.3-.6.2.2 0 .6-.3.6zM34.9-63.4c-.7 0-.3-1.2.3-.6.2.2 0 .6-.3.6zM17.1-71.6c-.7 0-.2-1.2.3-.6.2.2 0 .6-.3.6zM37.3-71.1c-.7 0-.2-1.2.3-.6.2.2.1.6-.3.6zM42.2-69c-.7 0-.3-1.1.3-.6.2.2 0 .6-.3.6zM45.4-63.9c-.7 0-.2-1.2.3-.6.2.2 0 .6-.3.6zM13.3-47.8c-.7 0-.2-1.2.3-.6.2.2.1.6-.3.6zM1.5-48c-.7 0-.2-1.2.3-.6.2.2 0 .6-.3.6zM5.8-42c-.7 0-.2-1.1.3-.6.2.2 0 .6-.3.6zM3.7-35.6c-.7 0-.3-1.2.3-.6.3.2.1.6-.3.6zM10.5-31.3c-.7 0-.3-1.2.3-.6.2.1.1.6-.3.6zM4.5-31.1c-.7 0-.2-1.2.3-.6.2.2 0 .6-.3.6zM10.9-49.3c-.8 0-.2-1.2.3-.6.2.2 0 .6-.3.6zM20.1-50.4c-.7 0-.3-1.1.3-.6.2.2 0 .6-.3.6zM4.1-45.6c-.8 0-.2-1.2.3-.6.2.2.1.6-.3.6zM7.5-51.9c-.7 0-.2-1.2.3-.6.2.2 0 .6-.3.6zM24.9-47.1c-.7 0-.3-1.1.3-.6.3.2.1.6-.3.6zM27.4-45.8c-.7 0-.3-1.2.3-.6.2.3 0 .6-.3.6zM7.9-38.8c-.7 0-.3-1.2.3-.6.2.2 0 .6-.3.6zM22.9-33.8c-.7 0-.3-1.2.3-.6.2.3 0 .6-.3.6zM31.5-36.4c-.7 0-.3-1.1.3-.6.2.2.1.6-.3.6zM29.4-50.1c-.7 0-.3-1.1.3-.6.2.2.1.6-.3.6zM41.2-51c-.7 0-.2-1.2.3-.6.3.2.1.6-.3.6zM27.2-39c-.7 0-.3-1.1.3-.6.2.2 0 .6-.3.6zM47.2-32.8c-.7 0-.2-1.2.3-.6.3.2.1.6-.3.6zM34.1-32.2c-.7 0-.2-1.1.3-.6.2.1.1.6-.3.6zM23.2-30.4c-.7 0-.2-1.2.3-.6.2.2.1.6-.3.6zM13.7-35.1c-.7 0-.2-1.1.3-.6.2.2 0 .6-.3.6zM16.3-32.2c-.7 0-.2-1.1.3-.6.2.2 0 .6-.3.6zM39.1-29.8c-.7 0-.3-1.2.3-.6.2.2.1.6-.3.6zM49.3-39.4c-.7 0-.2-1.2.3-.6.2.2.1.6-.3.6zM30.6-41.4c-.7 0-.2-1.2.3-.6.2.2 0 .6-.3.6zM49.7-49.7c-.7 0-.3-1.1.3-.6.2.3 0 .6-.3.6zM35.4-51.6c-.7 0-.3-1.2.3-.6.3.2 0 .6-.3.6zM7.9-33.9c-.7 0-.2-1.1.3-.6.2.2 0 .6-.3.6zM24.9-51.6c-.7 0-.3-1.2.3-.6.2.2.1.6-.3.6zM15.6-51.6c-.7 0-.2-1.2.3-.6.2.2 0 .6-.3.6zM30-30c-.7 0-.2-1.2.3-.6.2.2 0 .6-.3.6zM11.1-28.7c-.7 0-.2-1.2.3-.6.2.2 0 .6-.3.6zM44.2-54.2c-.7 0-.2-1.2.3-.6.3.2.1.6-.3.6zM34.9-28.5c-.7 0-.3-1.2.3-.6.2.2 0 .6-.3.6zM45.1-47.3c-.7 0-.3-1.2.3-.6.2.2 0 .6-.3.6zM15-42.4c-.7 0-.2-1.2.3-.6.2.3 0 .6-.3.6zM11.1-42c-.7 0-.2-1.1.3-.6.2.2 0 .6-.3.6zM21.2-39.8c-.7 0-.3-1.1.3-.6.2.3 0 .6-.3.6zM22.1-43.1c-.8 0-.2-1.2.3-.6.2.1.1.6-.3.6zM18.9-45.6c-.7 0-.2-1.2.3-.6.2.3.1.6-.3.6zM17.1-36.8c-.7 0-.2-1.2.3-.6.2.2 0 .6-.3.6zM46.3-42.4c-.7 0-.2-1.2.3-.6.2.2.1.6-.3.6zM32.8-46.9c-.7 0-.2-1.2.3-.6.2.2.1.6-.3.6zM39-42c-.7 0-.2-1.2.3-.6.2.2 0 .6-.3.6zM40.7-45.4c-.7 0-.3-1.2.3-.6.2.2 0 .6-.3.6zM37.3-36.2c-.7 0-.2-1.1.3-.6.2.2 0 .6-.3.6zM42.2-34.1c-.7 0-.3-1.1.3-.6.2.2 0 .6-.3.6zM43.3-38.2c-.7 0-.2-1.2.3-.6.2.1 0 .6-.3.6zM45.4-29.1c-.7 0-.3-1.2.3-.6.2.2 0 .6-.3.6zM50.2-29.2c-.7 0-.2-1.2.3-.6.3.2.1.6-.3.6zM54.9-27.4c-.7 0-.2-1.2.3-.6.3.2 0 .6-.3.6zM55.9-52.5c-.7 0-.3-1.2.3-.6.2.2 0 .6-.3.6zM54.2-33.9c-.7 0-.2-1.1.3-.6.2.2 0 .6-.3.6zM60.7-27c-.7 0-.2-1.2.3-.6.3.2.1.6-.3.6zM55.7-40.7c-.7 0-.2-1.1.3-.6.2.2 0 .6-.3.6zM61.7-45c-.7 0-.3-1.1.3-.6.2.2 0 .6-.3.6zM66.4-28.3c-.8 0-.2-1.2.3-.6.2.1 0 .6-.3.6zM72.6-27.2c-.7 0-.2-1.2.3-.6.2.2 0 .6-.3.6zM68.1-42.9c-.8 0-.2-1.2.3-.6.2.1 0 .6-.3.6zM72.4-49.7c-.7 0-.2-1.1.3-.6.2.2 0 .6-.3.6zM72.6-43.7c-.7 0-.2-1.1.3-.6.2.2 0 .6-.3.6zM72.6-32.8c-.8 0-.2-1.2.3-.6.2.1 0 .6-.3.6zM54.4-50.1c-.8 0-.2-1.2.3-.6.2.2 0 .6-.3.6zM53.2-59.2c-.7 0-.2-1.2.3-.6.3.1.1.6-.3.6zM51.2-37.9c-.7 0-.2-1.2.3-.6.2.2.1.6-.3.6zM59.1-41.8c-.7 0-.2-1.2.3-.6.3.2 0 .6-.3.6zM51.7-46.7c-.7 0-.3-1.1.3-.6.3.2 0 .6-.3.6zM56.6-64.1c-.8 0-.2-1.2.3-.6.2.2.1.6-.3.6zM57.9-66.6c-.7 0-.3-1.2.3-.6.2.2.1.6-.3.6zM64.9-47.1c-.7 0-.3-1.1.3-.6.2.2 0 .6-.3.6zM69.9-62.1c-.7 0-.3-1.2.3-.6.2.2.1.6-.3.6zM67.3-70.7c-.7 0-.2-1.2.3-.6.2.2 0 .6-.3.6zM53.6-68.6c-.7 0-.3-1.1.3-.6.2.2 0 .6-.3.6zM64.7-66.4c-.7 0-.2-1.1.3-.6.1.2.1.6-.3.6zM68.6-52.9c-.8 0-.2-1.2.3-.6.2.2.1.6-.3.6zM71.4-55.5c-.7 0-.3-1.1.3-.6.3.3 0 .6-.3.6zM62.2-69.8c-.7 0-.3-1.1.3-.6.3.2.1.6-.3.6zM69.7-47.1c-.7 0-.2-1.2.3-.6.3.2.1.6-.3.6zM52.1-64.1c-.7 0-.2-1.2.3-.6.2.2 0 .6-.3.6zM52.1-54.8c-.7 0-.2-1.1.3-.6.2.3 0 .6-.3.6zM66-30.8c-.7 0-.2-1.2.3-.6.2.2.1.6-.3.6zM63.7-38.6c-.7 0-.2-1.2.3-.6.3.2 0 .6-.3.6zM60.2-32.6c-.7 0-.3-1.2.3-.6.2.2 0 .6-.3.6zM68.8-36.9c-.7 0-.2-1.2.3-.6.2.2 0 .6-.3.6zM61.3-54.2c-.7 0-.3-1.2.3-.6.2.2 0 .6-.3.6zM61.7-50.2c-.7 0-.3-1.1.3-.6.2.2 0 .6-.3.6zM63.9-60.4c-.7 0-.3-1.2.3-.6.2.2.1.6-.3.6zM60.6-61.3c-.7 0-.2-1.2.3-.6.2.2 0 .6-.3.6zM58.1-58.1c-.8 0-.2-1.2.3-.6.2.1 0 .6-.3.6zM66.9-56.2c-.7 0-.2-1.2.3-.6.3.2.1.6-.3.6zM56.8-72c-.7 0-.2-1.2.3-.6.2.2.1.6-.3.6zM46.1-25.5c-.7 0-.2-1.1.3-.6.2.2 0 .6-.3.6zM41.6-26.2c-.8 0-.2-1.2.3-.6.2.2 0 .6-.3.6zM10.1-60.4c-.7 0-.3-1.2.3-.6.3.3 0 .6-.3.6zM18.6-59.1c-.7 0-.3-1.2.3-.6.2.2 0 .6-.3.6zM4.3-60.9c-.7 0-.2-1.2.3-.6.2.2 0 .6-.3.6zM15.9-55.3c-.7 0-.3-1.2.3-.6.2.2.1.6-.3.6zM1.7-56.2c-.8 0-.2-1.2.3-.6.2.1 0 .6-.3.6zM9.6-54.8c-.7 0-.2-1.1.3-.6.2.3 0 .6-.3.6zM24.7-61.9c-.7 0-.2-1.2.3-.6.3.2.1.6-.3.6zM30.6-54.4c-.7 0-.3-1.2.3-.6.2.2 0 .6-.3.6zM41.2-59.1c-.7 0-.3-1.2.3-.6.3.2.1.6-.3.6zM24.6-57.8c-.7 0-.2-1.2.3-.6.2.1.1.6-.3.6zM20.6-56.1c-.7 0-.3-1.2.3-.6.2.2.1.6-.3.6zM33.7-56.4c-.7 0-.2-1.2.3-.6.3.2.1.6-.3.6zM37.5-62.2c-.7 0-.2-1.2.3-.6.2.1 0 .6-.3.6zM38.6-56.4c-.7 0-.3-1.2.3-.6.2.2 0 .6-.3.6zM43.9-59.6c-.7 0-.3-1.2.3-.6.2.2 0 .6-.3.6zM30.6-59.6c-.7 0-.2-1.2.3-.6.2.2 0 .6-.3.6zM15.2-28.1c-.7 0-.3-1.2.3-.6.2.2 0 .6-.3.6zM4.1-72.6c-.7 0-.3-1.2.3-.6.2.2 0 .6-.3.6zM18.9-72.6c-.7 0-.2-1.2.3-.6.2.2.1.6-.3.6zM40.7-72.4c-.7 0-.3-1.1.3-.6.2.2.1.6-.3.6zM56.8 0c-.7 0-.2-1.2.3-.6.2.2 0 .6-.3.6z"/></g><g class="bg_shape"><path d="M.6-27.2c-.7 0-.2-1.2.3-.6.2.2 0 .6-.3.6zM.4-49.7c-.7 0-.2-1.1.3-.6.2.2 0 .6-.3.6zM.6-43.7c-.7 0-.2-1.1.3-.6.2.2 0 .6-.3.6zM.6-32.8c-.8 0-.2-1.2.3-.6.2.1 0 .6-.3.6z"/></g><g class="bg_shape"><path d="M4.1-72.6c-.7 0-.3-1.2.3-.6.2.2.1.6-.3.6zM18.9-72.6c-.7 0-.2-1.2.3-.6.2.3 0 .6-.3.6zM40.7-72.4c-.7 0-.3-1.2.3-.6.2.2 0 .6-.3.6zM56.8-72c-.7 0-.2-1.2.3-.6.2.2 0 .6-.3.6z"/></g></pattern><path class="bg_color" d="M0 0h1000v1000H0z"/><pattern id="backdrop_b" patternTransform="rotate(180 -53006.398 -100360.656) scale(7.5)" xlink:href="#backdrop_a"/><path fill="url(#backdrop_b)" d="M0 0h1000v1000H0z"/><pattern id="ear_i" width="48" height="48" y="1000" overflow="visible" patternUnits="userSpaceOnUse" viewBox="4.8 -52.8 48 48"><defs><path id="ear_a" d="M4.8-52.8h48v48h-48z"/></defs><clipPath id="ear_b"><use overflow="visible" xlink:href="#ear_a"/></clipPath><g class="skin_dark" clip-path="url(#ear_b)"><path d="M28.8 0c2.7 0 4.8-2.1 4.8-4.8s-2.1-4.8-4.8-4.8S24-7.4 24-4.8C24-2.1 26.1 0 28.8 0zM52.8 0c2.7 0 4.8-2.1 4.8-4.8s-2.1-4.8-4.8-4.8S48-7.4 48-4.8C48-2.1 50.1 0 52.8 0zM28.8-24c2.7 0 4.8-2.1 4.8-4.8s-2.1-4.8-4.8-4.8-4.8 2.1-4.8 4.8 2.1 4.8 4.8 4.8zM52.8-24c2.7 0 4.8-2.1 4.8-4.8s-2.1-4.8-4.8-4.8-4.8 2.1-4.8 4.8 2.1 4.8 4.8 4.8zM40.8-12c2.7 0 4.8-2.1 4.8-4.8s-2.1-4.8-4.8-4.8-4.8 2.2-4.8 4.8c0 2.7 2.1 4.8 4.8 4.8zM16.8-12c2.7 0 4.8-2.1 4.8-4.8s-2.1-4.8-4.8-4.8-4.8 2.2-4.8 4.8c0 2.7 2.1 4.8 4.8 4.8zM40.8-36c2.7 0 4.8-2.1 4.8-4.8s-2.1-4.8-4.8-4.8-4.8 2.1-4.8 4.8 2.1 4.8 4.8 4.8zM16.8-36c2.7 0 4.8-2.1 4.8-4.8s-2.1-4.8-4.8-4.8-4.8 2.1-4.8 4.8 2.1 4.8 4.8 4.8z"/></g><defs><path id="ear_c" d="M4.8-52.8h48v48h-48z"/></defs><clipPath id="ear_d"><use overflow="visible" xlink:href="#ear_c"/></clipPath><g class="skin_dark" clip-path="url(#ear_d)"><path d="M4.8 0c2.7 0 4.8-2.1 4.8-4.8S7.5-9.6 4.8-9.6 0-7.5 0-4.8 2.1 0 4.8 0zM4.8-24c2.7 0 4.8-2.1 4.8-4.8s-2.1-4.8-4.8-4.8S0-31.5 0-28.8 2.1-24 4.8-24z"/></g><g><defs><path id="ear_e" d="M4.8-52.8h48v48h-48z"/></defs><clipPath id="ear_f"><use overflow="visible" xlink:href="#ear_e"/></clipPath><g class="skin_dark" clip-path="url(#ear_f)"><path d="M28.8-48c2.7 0 4.8-2.1 4.8-4.8s-2.1-4.8-4.8-4.8-4.8 2.2-4.8 4.8c0 2.7 2.1 4.8 4.8 4.8zM52.8-48c2.7 0 4.8-2.1 4.8-4.8s-2.1-4.8-4.8-4.8-4.8 2.2-4.8 4.8c0 2.7 2.1 4.8 4.8 4.8z"/></g></g><g><defs><path id="ear_g" d="M4.8-52.8h48v48h-48z"/></defs><clipPath id="ear_h"><use overflow="visible" xlink:href="#ear_g"/></clipPath><path class="skin_dark" d="M4.8-48c2.7 0 4.8-2.1 4.8-4.8s-2.1-4.8-4.8-4.8S0-55.4 0-52.8C0-50.1 2.1-48 4.8-48z" clip-path="url(#ear_h)"/></g></pattern><path class="skin_fill" d="M660.4 425.7l15.9-24.3h12c2 49.2 4 59.7-2.7 80.9-6.1 19.1-16 49.4-21.9 63.1h-20.5V428.6l17.2-2.9z"/><pattern id="ear_j" patternTransform="rotate(180 -4945.557 -5040.347) scale(.226)" xlink:href="#ear_i"/><path fill="url(#ear_j)" d="M684.3 465.3c-24.4 72.3-19.2 63.5-20 39 0 0 17.1-31.3-2.8-31.3 7.9-50.3 33.2-103.5 22.8-7.7z"/><path class="skin_outline" d="M664.3 504.3c-1.3-.6 12.7-26.5-1.6-29.4-4.1 0-3.5-.2-3.3-1.4 3-36 21.9-64.4 23.8-62.5 1.2 1-16.5 19.9-20.2 60.6 4.5 0 8.5 3.4 9 10.6.3 9.5-7 22.4-7.7 22.1z"/><g><path class="skin_fill" d="M356.4 428.6v116.8h-20.5c-5.9-13.7-15.8-44-21.9-63.1-6.7-21.2-4.7-31.7-2.7-80.9h12l15.9 24.3 17.2 2.9z"/><pattern id="ear_k" patternTransform="matrix(.226 0 0 -.226 -36220.055 -10080.693)" xlink:href="#ear_i"/><path fill="url(#ear_k)" d="M338.1 473c-19.9 0-2.8 31.3-2.8 31.3-.8 24.5 4.4 33.3-20-39-10.4-95.8 14.9-42.6 22.8 7.7z"/><path class="skin_outline" d="M327.6 482.2c.5-7.2 4.5-10.6 9-10.6-3.7-40.7-21.4-59.6-20.2-60.6 1.9-1.9 20.8 26.5 23.8 62.5.2 1.2.8 1.4-3.3 1.4-14.3 2.9-.3 28.8-1.6 29.4-.7.3-8-12.6-7.7-22.1z"/></g><g><path fill="#E9BB3D" d="M340.6 567.6c0-34.1.6-38-1.4-36-13.4 13.4-9 8.3-10.5 12.4-.8 2-2.9 3.2-5 3l-9.6 9.6c-5.6 5.6 26.5 19 26.5 11z"/><g fill="#E0984D"><path d="M333.9 559.7c4.5 0 4.5 6.8 0 6.8s-4.5-6.8 0-6.8zM327.3 552.9c3.2 0 3.2 4.8 0 4.8s-3.2-4.8 0-4.8zM340.6 541.1c-1.6-1.6-5-1.1-6 1.5-1.6 3.9 3.2 6.9 6 4.4v-5.9z"/></g><path fill="#E0984D" d="M340.4 531.7c.1 0 .3.4.3.6 0 35.3 1.2 38.3-2.8 38-8.7-.6-17.2-4.3-23.4-9.7 3.9 3.9 7 7.7 15.3 11.1 4.5 1.9 15.3 5.3 15.3.4 0-43 1.5-34.2-4.7-40.4z"/><g><path fill="#E9BB3D" d="M656.6 567.6c0-34.1-.6-38 1.4-36 13.4 13.4 9 8.3 10.5 12.4.8 2 2.9 3.2 5 3l9.6 9.6c5.6 5.6-26.5 19-26.5 11z"/><g fill="#E0984D"><path d="M663.3 559.7c4.5 0 4.5 6.8 0 6.8s-4.5-6.8 0-6.8zM669.9 552.9c3.2 0 3.2 4.8 0 4.8s-3.2-4.8 0-4.8zM656.6 541.1c1.6-1.6 5-1.1 6 1.5 1.6 3.9-3.2 6.9-6 4.4v-5.9z"/></g><path fill="#E0984D" d="M656.8 531.7c.1 0-.3.1-.3.6 0 35.3-1.2 38.3 2.8 38 8.7-.6 17.2-4.3 23.4-9.7-3.9 3.9-7 7.7-15.3 11.1-4.5 1.9-15.3 5.3-15.3.4 0-42.7-1.6-34.1 4.7-40.4z"/></g></g><pattern id="face_i" width="48" height="48" x="250" y="750" overflow="visible" patternUnits="userSpaceOnUse" viewBox="4.8 -52.8 48 48"><defs><path id="face_a" d="M4.8-52.8h48v48h-48z"/></defs><clipPath id="face_b"><use overflow="visible" xlink:href="#face_a"/></clipPath><g class="skin_dark" clip-path="url(#face_b)"><path d="M28.8-57.6c2.7 0 4.8 2.1 4.8 4.8S31.5-48 28.8-48 24-50.2 24-52.8c0-2.7 2.1-4.8 4.8-4.8zM52.8-57.6c2.7 0 4.8 2.1 4.8 4.8S55.5-48 52.8-48 48-50.2 48-52.8c0-2.7 2.1-4.8 4.8-4.8zM28.8-33.6c2.7 0 4.8 2.1 4.8 4.8S31.5-24 28.8-24 24-26.1 24-28.8s2.1-4.8 4.8-4.8zM52.8-33.6c2.7 0 4.8 2.1 4.8 4.8S55.5-24 52.8-24 48-26.1 48-28.8s2.1-4.8 4.8-4.8zM40.8-45.6c2.7 0 4.8 2.1 4.8 4.8S43.5-36 40.8-36 36-38.2 36-40.8c0-2.7 2.1-4.8 4.8-4.8zM16.8-45.6c2.7 0 4.8 2.1 4.8 4.8S19.5-36 16.8-36 12-38.2 12-40.8c0-2.7 2.1-4.8 4.8-4.8zM40.8-21.6c2.7 0 4.8 2.1 4.8 4.8S43.5-12 40.8-12 36-14.1 36-16.8s2.1-4.8 4.8-4.8zM16.8-21.6c2.7 0 4.8 2.1 4.8 4.8S19.5-12 16.8-12 12-14.1 12-16.8s2.1-4.8 4.8-4.8z"/></g><defs><path id="face_c" d="M4.8-52.8h48v48h-48z"/></defs><clipPath id="face_d"><use overflow="visible" xlink:href="#face_c"/></clipPath><g class="skin_dark" clip-path="url(#face_d)"><path d="M4.8-57.6c2.7 0 4.8 2.1 4.8 4.8S7.5-48 4.8-48 0-50.1 0-52.8s2.1-4.8 4.8-4.8zM4.8-33.6c2.7 0 4.8 2.1 4.8 4.8S7.5-24 4.8-24 0-26.1 0-28.8s2.1-4.8 4.8-4.8z"/></g><g><defs><path id="face_e" d="M4.8-52.8h48v48h-48z"/></defs><clipPath id="face_f"><use overflow="visible" xlink:href="#face_e"/></clipPath><g class="skin_dark" clip-path="url(#face_f)"><path d="M28.8-9.6c2.7 0 4.8 2.1 4.8 4.8S31.5 0 28.8 0 24-2.2 24-4.8c0-2.7 2.1-4.8 4.8-4.8zM52.8-9.6c2.7 0 4.8 2.1 4.8 4.8S55.5 0 52.8 0 48-2.2 48-4.8c0-2.7 2.1-4.8 4.8-4.8z"/></g></g><g><defs><path id="face_g" d="M4.8-52.8h48v48h-48z"/></defs><clipPath id="face_h"><use overflow="visible" xlink:href="#face_g"/></clipPath><path class="skin_dark" d="M4.8-9.6c2.7 0 4.8 2.1 4.8 4.8S7.5 0 4.8 0 0-2.2 0-4.8c0-2.7 2.1-4.8 4.8-4.8z" clip-path="url(#face_h)"/></g></pattern><path class="skin_fill" d="M615.2 646.6c18.5-18.1 30.2-26.1 31.4-45.1 12.9-208.3 11.6-193.4 12.6-193.4 9.5-131.6-66.8-198.5-173.6-189.2-43.8 3.2-138.9 24.4-145.2 152.5-1.3 13.1-1.4 26.7-1.3 29.1 14.8 240.5 4.1 207.3 46.2 248.5 0 88.1 10.8 72.7-55 96.6l169.8 150 170.2-150c-66-24-55.1-8-55.1-99z"/><pattern id="face_j" patternTransform="matrix(.26 0 0 -.26 -47499.098 1009.889)" xlink:href="#face_i"/><path fill="url(#face_j)" d="M425.9 710.7c15.6 23.4 34.5 17.8 112.8 17.8 18 0 27.7-9.4 36.7-23l39.7-38.9v-20c-45.6 44.6-38.3 36.8-43.1 44-15.6 23.4-34.5 17.8-112.8 17.8-18 0-27.7-9.4-36.7-23L385.2 649v20c42.9 42 36 34.5 40.7 41.7z"/><path class="skin_outline" d="M347.7 541.5c-1.7.1-8.6-133.3-6.9-133.4 1.8-.1 8.7 133.3 6.9 133.4zM650.3 541.4c-1.7-.1 7.1-133.4 8.9-133.3 1.7.1-7.2 133.4-8.9 133.3z"/><g><pattern id="face_k" patternTransform="matrix(.26 0 0 -.26 -47499.098 1029.889)" xlink:href="#face_i"/><path fill="url(#face_k)" d="M402.1 632.3c1.6-79.2 8-100.8-16.1-117.7-23.1-16.2-26-40.1-26-40.1h-8.2c8.9 135.4-2 108.7 50.3 157.8z"/></g><pattern id="nose_o" width="28.8" height="28.8" y="1000" overflow="visible" patternUnits="userSpaceOnUse" viewBox="1.4 -30.2 28.8 28.8"><defs><path id="nose_a" d="M1.4-30.2h28.8v28.8H1.4z"/></defs><clipPath id="nose_b"><use overflow="visible" xlink:href="#nose_a"/></clipPath><g clip-path="url(#nose_b)"><g fill="#FFF"><path d="M30.2 0c1.9 0 1.9-2.8 0-2.8S28.3 0 30.2 0zM15.8 0c1.9 0 1.9-2.8 0-2.8S13.9 0 15.8 0zM30.2-14.4c1.9 0 1.9-2.8 0-2.8s-1.9 2.8 0 2.8zM15.8-14.4c1.9 0 1.9-2.8 0-2.8s-1.9 2.8 0 2.8zM8.6-7.2c1.9 0 1.9-2.8 0-2.8s-1.9 2.8 0 2.8zM23-7.2c1.9 0 1.9-2.8 0-2.8s-1.9 2.8 0 2.8zM8.6-21.6c1.9 0 1.9-2.8 0-2.8s-1.9 2.8 0 2.8zM23-21.6c1.9 0 1.9-2.8 0-2.8s-1.9 2.8 0 2.8z"/></g><g fill="#FFF"><path d="M1.4 0c1.9 0 1.9-2.8 0-2.8C-.4-3-.6 0 1.4 0zM1.4-14.4c1.9 0 1.9-2.8 0-2.8s-1.9 2.8 0 2.8z"/></g><g fill="#FFF"><path d="M30.2-28.8c1.9 0 1.9-2.8 0-2.8s-1.9 2.8 0 2.8zM15.8-28.8c1.9 0 1.9-2.8 0-2.8s-1.9 2.8 0 2.8z"/></g><path fill="#FFF" d="M1.4-28.8c1.9 0 1.9-2.8 0-2.8-1.8-.2-2 2.8 0 2.8z"/></g></pattern><pattern id="nose_k" width="48" height="48" y="1000" overflow="visible" patternUnits="userSpaceOnUse" viewBox="4.8 -52.8 48 48"><defs><path id="nose_c" d="M4.8-52.8h48v48h-48z"/></defs><clipPath id="nose_d"><use overflow="visible" xlink:href="#nose_c"/></clipPath><g class="skin_dark" clip-path="url(#nose_d)"><path d="M28.8-57.6c6.4 0 6.4 9.6 0 9.6-6.3 0-6.4-9.6 0-9.6zM52.8-57.6c6.4 0 6.4 9.6 0 9.6-6.3 0-6.4-9.6 0-9.6zM28.8-33.6c6.4 0 6.4 9.6 0 9.6s-6.4-9.6 0-9.6zM52.8-33.6c6.4 0 6.4 9.6 0 9.6s-6.4-9.6 0-9.6zM40.8-45.6c6.4 0 6.4 9.6 0 9.6-6.3 0-6.4-9.6 0-9.6zM16.8-45.6c6.4 0 6.4 9.6 0 9.6-6.3 0-6.4-9.6 0-9.6zM40.8-21.6c6.4 0 6.4 9.6 0 9.6s-6.4-9.6 0-9.6zM16.8-21.6c6.4 0 6.4 9.6 0 9.6s-6.4-9.6 0-9.6z"/></g><defs><path id="nose_e" d="M4.8-52.8h48v48h-48z"/></defs><clipPath id="nose_f"><use overflow="visible" xlink:href="#nose_e"/></clipPath><g class="skin_dark" clip-path="url(#nose_f)"><path d="M4.8-57.6c6.4 0 6.4 9.6 0 9.6s-6.4-9.6 0-9.6zM4.8-33.6c6.4 0 6.4 9.6 0 9.6s-6.4-9.6 0-9.6z"/></g><g><defs><path id="nose_g" d="M4.8-52.8h48v48h-48z"/></defs><clipPath id="nose_h"><use overflow="visible" xlink:href="#nose_g"/></clipPath><g class="skin_dark" clip-path="url(#nose_h)"><path d="M28.8-9.6c6.4 0 6.4 9.6 0 9.6-6.3 0-6.4-9.6 0-9.6zM52.8-9.6c6.4 0 6.4 9.6 0 9.6-6.3 0-6.4-9.6 0-9.6z"/></g></g><g><defs><path id="nose_i" d="M4.8-52.8h48v48h-48z"/></defs><clipPath id="nose_j"><use overflow="visible" xlink:href="#nose_i"/></clipPath><path class="skin_dark" d="M4.8-9.6c6.4 0 6.4 9.6 0 9.6-6.3 0-6.4-9.6 0-9.6z" clip-path="url(#nose_j)"/></g></pattern><pattern id="nose_l" patternTransform="matrix(.2222 0 0 -.2222 17223.752 -18004.856)" xlink:href="#nose_k"/><path fill="url(#nose_l)" d="M496.5 577.8h8.1V594h-8.1z"/><pattern id="nose_m" patternTransform="translate(17217.606 1022.85) scale(.2222)" xlink:href="#nose_k"/><path fill="url(#nose_m)" d="M517.5 552.3c-12.3 13.4-24.7 13.4-37 0L470 560c31 16.3 28.4 15.6 58 0l-10.5-7.7z"/><pattern id="nose_n" patternTransform="matrix(.26 0 0 -.26 -58619.84 -3764.922)" xlink:href="#nose_k"/><path fill="url(#nose_n)" d="M481.4 520.3v-72.8l-12.8-12.7v105.6z"/><pattern id="nose_p" patternTransform="matrix(-.416 0 0 -.416 33204.258 -880.87)" xlink:href="#nose_o"/><path fill="url(#nose_p)" d="M516.6 520.3v-72.8l12.8-12.7v105.6z"/><path class="skin_outline" d="M535.2 542.5c-6.7-3.5-4.7-1.7-10.9-11-9.4-13.3-12.2-16.7-1.6 1 6.3 10.2 3.8 8.1 11.2 12.3 7.7 4.4 3.9 13.5-2.9 13.2-2.7-.2-4.1-1.7-7-3.5-11.3-7.6-6.2-1-16.6 4-4.7 2.5-11.1 2.9-17.4 0-7.7-3.8-7.5-9.2-11.7-7.1-.7 0-8.3 6.3-11.9 6.6-6.5.6-10.7-8.8-2.9-13.2 7.5-4.3 4.9-2.1 11.2-12.3 12.9-21.5 4-10.2-2.2-1-7.2 10.4-3.3 6.6-10.9 11-10.7 5.3-5.4 19.3 4.3 18.7 3.7-.2-2.6-.5 18.4-1.9 9.1 6.9 20.4 6 28.3-.1 21.3 1.4 13.8 1.7 18.3 2 10.2.3 14.7-13.5 4.3-18.7z"/><g><pattern id="nose_q" patternTransform="matrix(.416 0 0 .416 -79821.89 -16047.193)" xlink:href="#nose_o"/><path fill="url(#nose_q)" d="M514 545.5c-7.7-11.8-22.3-11.7-30 0h30z"/></g><pattern id="mouth_i" width="28.8" height="28.8" x="250" y="750" overflow="visible" patternUnits="userSpaceOnUse" viewBox="1.4 -30.2 28.8 28.8"><defs><path id="mouth_a" d="M1.4-30.2h28.8v28.8H1.4z"/></defs><clipPath id="mouth_b"><use overflow="visible" xlink:href="#mouth_a"/></clipPath><g class="skin_halftone" clip-path="url(#mouth_b)"><path d="M30.2 0c1.9 0 1.9-2.8 0-2.8S28.3 0 30.2 0zM15.8 0c1.9 0 1.9-2.8 0-2.8S13.9 0 15.8 0zM30.2-14.4c1.9 0 1.9-2.8 0-2.8s-1.9 2.8 0 2.8zM15.8-14.4c1.9 0 1.9-2.8 0-2.8s-1.9 2.8 0 2.8zM8.6-7.2c1.9 0 1.9-2.8 0-2.8s-1.9 2.8 0 2.8zM23-7.2c1.9 0 1.9-2.8 0-2.8s-1.9 2.8 0 2.8zM8.6-21.6c1.9 0 1.9-2.8 0-2.8s-1.9 2.8 0 2.8zM23-21.6c1.9 0 1.9-2.8 0-2.8s-1.9 2.8 0 2.8z"/></g><defs><path id="mouth_c" d="M1.4-30.2h28.8v28.8H1.4z"/></defs><clipPath id="mouth_d"><use overflow="visible" xlink:href="#mouth_c"/></clipPath><g class="skin_halftone" clip-path="url(#mouth_d)"><path d="M1.4 0c1.9 0 1.9-2.8 0-2.8C-.4-3-.6 0 1.4 0zM1.4-14.4c1.9 0 1.9-2.8 0-2.8s-1.9 2.8 0 2.8z"/></g><g><defs><path id="mouth_e" d="M1.4-30.2h28.8v28.8H1.4z"/></defs><clipPath id="mouth_f"><use overflow="visible" xlink:href="#mouth_e"/></clipPath><g class="skin_halftone" clip-path="url(#mouth_f)"><path d="M30.2-28.8c1.9 0 1.9-2.8 0-2.8s-1.9 2.8 0 2.8zM15.8-28.8c1.9 0 1.9-2.8 0-2.8s-1.9 2.8 0 2.8z"/></g></g><g><defs><path id="mouth_g" d="M1.4-30.2h28.8v28.8H1.4z"/></defs><clipPath id="mouth_h"><use overflow="visible" xlink:href="#mouth_g"/></clipPath><path class="skin_halftone" d="M1.4-28.8c1.9 0 1.9-2.8 0-2.8-1.8-.2-2 2.8 0 2.8z" clip-path="url(#mouth_h)"/></g></pattern><path fill="#241F20" d="M439.5 608.8l25.3 15.8h24.8l59.4-9.8 8.5-6.9-22.2-10.5h-74.7z"/><path fill="#EB8874" d="M457.4 597.4h85v8.7h-85z"/><path fill="#F7F3E8" d="M500 604.1s3.1-2.6 10.3-2.6c5.2 0 7.3 2.3 8 3.6.2.4.8.5 1.2.2 4.1-2.7 7.4-1.2 8.8-.3.4.2.9.1 1.1-.2 2.1-3.1 4.9-1.7 6.1-.8.3.2.8.2 1.1-.1 4.7-5.2 8.6-.2 8.6-.2.2 3.9-1.4 8.3-3.8 8.6-2.4.3-3.9-2.1-3.9-2.1s-.9 4.4-3 4.8c-2.1.3-5.6-2.7-5.6-2.7s0 1.4-3 1.9-7.7-1.9-7.7-1.9c-1.4 2.9-7 3.8-12.4 3.8s-5.9-2.4-5.9-2.4-.5 2.4-5.9 2.4-11-1-12.4-3.8c0 0-4.7 2.4-7.7 1.9s-3-1.9-3-1.9-3.5 3-5.6 2.7c-2.1-.3-3-4.8-3-4.8s-1.5 2.4-3.9 2.1c-2.4-.3-4-4.6-3.8-8.6 0 0 3.9-5 8.6.2.3.3.8.3 1.1.1 1.2-.8 4-2.3 6.1.8.2.4.8.5 1.1.2 1.4-.9 4.8-2.5 8.8.3.4.3.9.2 1.2-.2.7-1.3 2.8-3.6 8-3.6 7.3.1 10.5 2.6 10.5 2.6z"/><path class="skin_dark" d="M564 607.7c-15.8 3.1-35.5 39-67.9 39h-12.9c-12.1 0-23.3-5.7-29.7-15L437.2 608s2.4 1.5 6.3 1.5c10.2 0 13.2 3.3 17.3 6.7 2.5 2 5.2 2.9 9.1 2.9h16.6c9.9 0 48.7-14.9 62.7-9l8.4-2.1 6.4-.3z"/><path class="skin_dark" d="M445.4 606.8c4.6-2.5 12.4-6.6 16.5-7.5 4.9-1.1 20.2 4.8 38.1 4.8 17.9 0 33.2-5.9 38.1-4.8 4.2.9 11.9 4.9 16.5 7.5 2.5 1.3 5.4 1.8 8.2 1.2l2.5-.5h.1l-5.6-1.9c-3.4-1.1-6.1-3.5-7.6-6.5l-1.7-3.5c-2.9-5.9-9.6-9.5-16.7-8.8L500 590l-33.8-3.2c-7.1-.7-13.8 2.9-16.7 8.8l-1.7 3.5c-1.5 3-4.2 5.4-7.6 6.5l-5.6 1.9 2.7.6c2.7.5 5.6.1 8.1-1.3z"/><path fill="url(#mouth_i)" d="M445.4 606.8c4.6-2.5 12.4-6.6 16.5-7.5 4.9-1.1 20.2 4.8 38.1 4.8 17.9 0 33.2-5.9 38.1-4.8 4.2.9 11.9 4.9 16.5 7.5 2.5 1.3 5.4 1.8 8.2 1.2l2.5-.5h.1l-5.6-1.9c-3.4-1.1-6.1-3.5-7.6-6.5l-1.7-3.5c-2.9-5.9-9.6-9.5-16.7-8.8L500 590l-33.8-3.2c-7.1-.7-13.8 2.9-16.7 8.8l-1.7 3.5c-1.5 3-4.2 5.4-7.6 6.5l-5.6 1.9 2.7.6c2.7.5 5.6.1 8.1-1.3z"/><path class="skin_outline" d="M423.8 605.1c.1-.2 2.3 0 6.2.6 2 .3 4.4.7 7.2 1.2 1.3.3 2.7.3 4.1 0 .7-.1 1.4-.3 2.1-.6.7-.3 1.3-.7 2.2-1.1 3.1-1.8 6.6-3.7 10.5-5.4 1-.4 2-.9 3.1-1.3.5-.2 1.1-.4 1.7-.5.3-.1.6-.2.9-.2l1-.1c1.3-.1 2.5 0 3.7.2 1.2.2 2.4.4 3.5.6 4.7.9 9.5 1.9 14.5 2.7 5 .8 10.2 1.3 15.5 1.3 5.3 0 10.5-.5 15.5-1.3s9.8-1.8 14.5-2.7c1.2-.2 2.3-.4 3.5-.6 1.2-.2 2.4-.3 3.7-.2l1 .1c.3.1.6.1.9.2.6.2 1.1.3 1.7.5 1.1.4 2.1.8 3.1 1.3 3.9 1.8 7.3 3.7 10.5 5.4.8.5 1.4.8 2.2 1.1.7.3 1.4.5 2.1.6 1.4.3 2.8.2 4.1 0 2.8-.5 5.2-.9 7.2-1.2 3.9-.6 6.1-.9 6.2-.6s-2.1.9-5.9 2c-1.9.5-4.3 1.1-7 1.8-1.4.4-3.1.6-4.9.3-.9-.1-1.8-.3-2.6-.6-.9-.3-1.8-.8-2.5-1.2-3.2-1.6-6.6-3.4-10.4-4.9-.9-.4-1.9-.8-2.9-1.1-1-.3-2-.7-2.8-.7-1.9 0-4.2.4-6.4.9-4.6.9-9.4 2.1-14.6 2.9-5.1.8-10.5 1.4-16.1 1.4-5.6 0-11-.6-16.1-1.4-5.1-.8-10-1.9-14.6-2.9-2.3-.4-4.6-.9-6.4-.9-.8 0-1.8.3-2.8.7-1 .3-1.9.7-2.9 1.1-3.8 1.6-7.3 3.3-10.4 4.9-.7.4-1.6.9-2.5 1.2-.9.3-1.8.5-2.6.6-1.7.2-3.4 0-4.9-.3-2.8-.7-5.1-1.3-7-1.8-4.1-1.1-6.2-1.8-6.1-2z"/><path fill="#28351A" d="M627.2 486.2c5.3-2.5 3.5-10.5-2.3-10.5-4.2 0-3.2 1.5-3.2-5.8-4.1 0-3.1-1.5-3.1 5.8-3.6 0-2.7 1.3-2.7-5.8-4.1 0-3.1-1.5-3.1 5.8-8.5 0-6.9-1-6.9 3.1h4.6v18.4c-5.8 0-4.6-.9-4.6 3.1h6.9v6.2c4.1 0 3.1 1.5 3.1-6.2 3.6 0 2.7-1.2 2.7 6.2 4.1 0 3.1 1.5 3.1-6.2h3.2c8.2 0 10.1-11.5 2.3-14.1zm-11.4-7.3c3.3 0 7.6-.6 7.6 3.3 0 4-4.2 3.3-7.6 3.3v-6.6zm0 18.3v-8.3c4.2 0 9.4-.8 9.4 4.2.1 4.9-5.2 4.1-9.4 4.1z"/><path fill="none" stroke="#28351A" stroke-miterlimit="10" d="M636.1 488.2h7.7M636.1 485.2c3.5 0 2.2.6 5.9-3.1"/><path fill="#28351A" d="M643.3 481.9c0 1.5-2.2 1.5-2.2 0s2.2-1.5 2.2 0z"/><path fill="none" stroke="#28351A" stroke-miterlimit="10" d="M636.1 491.1c3.5 0 2.2-.6 5.9 3.1"/><path fill="#28351A" d="M643.3 494.4c0-1.5-2.2-1.5-2.2 0s2.2 1.5 2.2 0zM644.9 488.2c0 1.5-2.2 1.5-2.2 0s2.2-1.5 2.2 0z"/><g><path fill="none" stroke="#28351A" stroke-miterlimit="10" d="M602.6 488.2h-7.7M602.6 485.2c-3.5 0-2.2.6-5.9-3.1"/><path fill="#28351A" d="M595.4 481.9c0 1.5 2.2 1.5 2.2 0s-2.2-1.5-2.2 0z"/><path fill="none" stroke="#28351A" stroke-miterlimit="10" d="M602.6 491.1c-3.5 0-2.2-.6-5.9 3.1"/><path fill="#28351A" d="M595.4 494.4c0-1.5 2.2-1.5 2.2 0s-2.2 1.5-2.2 0zM593.8 488.2c0 1.5 2.2 1.5 2.2 0s-2.2-1.5-2.2 0z"/></g><pattern id="eye_i" width="48" height="48" x="250" y="750" overflow="visible" patternUnits="userSpaceOnUse" viewBox="4.8 -52.8 48 48"><defs><path id="eye_a" d="M4.8-52.8h48v48h-48z"/></defs><clipPath id="eye_b"><use overflow="visible" xlink:href="#eye_a"/></clipPath><g class="skin_dark" clip-path="url(#eye_b)"><path d="M28.8-57.6c2.7 0 4.8 2.1 4.8 4.8S31.5-48 28.8-48 24-50.2 24-52.8c0-2.7 2.1-4.8 4.8-4.8zM52.8-57.6c2.7 0 4.8 2.1 4.8 4.8S55.5-48 52.8-48 48-50.2 48-52.8c0-2.7 2.1-4.8 4.8-4.8zM28.8-33.6c2.7 0 4.8 2.1 4.8 4.8S31.5-24 28.8-24 24-26.1 24-28.8s2.1-4.8 4.8-4.8zM52.8-33.6c2.7 0 4.8 2.1 4.8 4.8S55.5-24 52.8-24 48-26.1 48-28.8s2.1-4.8 4.8-4.8zM40.8-45.6c2.7 0 4.8 2.1 4.8 4.8S43.5-36 40.8-36 36-38.2 36-40.8c0-2.7 2.1-4.8 4.8-4.8zM16.8-45.6c2.7 0 4.8 2.1 4.8 4.8S19.5-36 16.8-36 12-38.2 12-40.8c0-2.7 2.1-4.8 4.8-4.8zM40.8-21.6c2.7 0 4.8 2.1 4.8 4.8S43.5-12 40.8-12 36-14.1 36-16.8s2.1-4.8 4.8-4.8zM16.8-21.6c2.7 0 4.8 2.1 4.8 4.8S19.5-12 16.8-12 12-14.1 12-16.8s2.1-4.8 4.8-4.8z"/></g><defs><path id="eye_c" d="M4.8-52.8h48v48h-48z"/></defs><clipPath id="eye_d"><use overflow="visible" xlink:href="#eye_c"/></clipPath><g class="skin_dark" clip-path="url(#eye_d)"><path d="M4.8-57.6c2.7 0 4.8 2.1 4.8 4.8S7.5-48 4.8-48 0-50.1 0-52.8s2.1-4.8 4.8-4.8zM4.8-33.6c2.7 0 4.8 2.1 4.8 4.8S7.5-24 4.8-24 0-26.1 0-28.8s2.1-4.8 4.8-4.8z"/></g><g><defs><path id="eye_e" d="M4.8-52.8h48v48h-48z"/></defs><clipPath id="eye_f"><use overflow="visible" xlink:href="#eye_e"/></clipPath><g class="skin_dark" clip-path="url(#eye_f)"><path d="M28.8-9.6c2.7 0 4.8 2.1 4.8 4.8S31.5 0 28.8 0 24-2.2 24-4.8c0-2.7 2.1-4.8 4.8-4.8zM52.8-9.6c2.7 0 4.8 2.1 4.8 4.8S55.5 0 52.8 0 48-2.2 48-4.8c0-2.7 2.1-4.8 4.8-4.8z"/></g></g><g><defs><path id="eye_g" d="M4.8-52.8h48v48h-48z"/></defs><clipPath id="eye_h"><use overflow="visible" xlink:href="#eye_g"/></clipPath><path class="skin_dark" d="M4.8-9.6c2.7 0 4.8 2.1 4.8 4.8S7.5 0 4.8 0 0-2.2 0-4.8c0-2.7 2.1-4.8 4.8-4.8z" clip-path="url(#eye_h)"/></g></pattern><path fill="#FFF" d="M457.1 457.3s1.7 9.9-24.7 9.9-31-8.4-31-16.2c3.6-28.9 56.2-24.3 55.7 6.3zm85.8 0s-1.7 9.9 24.7 9.9 31-8.4 31-16.2c-3.6-28.9-56.2-24.3-55.7 6.3z"/><path class="eye_iris" d="M584 452.4c0 21.7-32.8 21.7-32.8 0s32.8-21.8 32.8 0zm-168 0c0 21.7 32.8 21.7 32.8 0s-32.8-21.8-32.8 0z"/><pattern id="eye_j" patternTransform="matrix(.252 0 0 -.252 -70871.758 -7216.028)" xlink:href="#eye_i"/><path fill="url(#eye_j)" d="M594 431c-11.9-11.8-44-7.8-50.1 10.4-14.9-53.8 78.4-48 89.1-26.4 4 8-10.2 27.3-18.2 28.6-5.4.9-14.9-8.8-20.8-12.6zm-188 0c11.9-11.8 44-7.8 50.1 10.4 14.9-53.8-78.4-48-89.1-26.4-4 8 10.2 27.3 18.2 28.6 5.4.9 14.9-8.8 20.8-12.6z"/><path d="M574.6 452.4c0 9.2-13.9 9.2-13.9 0-.1-9.3 13.9-9.3 13.9 0zm-149.2 0c0 9.2 13.9 9.2 13.9 0 .1-9.3-13.9-9.3-13.9 0z"/><path class="hair_brow" d="M535.4 402.4c41.8-24 75.5-29.4 97.7 12.6-34.1-23.8-52.4-12.7-91 .1-12.2 4.1-15.5-4.6-18.8-10.3-.1.1 7.3-1.2 12.1-2.4zM522 411c1.1 6.9 7.1 8.4 7.3 7.2.1-.6-2.2-.8-4.2-3.9-.5-.8-3.9-8.9-3.1-3.3zm-57.4-8.6c-41.8-24-75.5-29.4-97.7 12.6 34.1-23.8 52.4-12.7 91 .1 12.2 4.1 15.5-4.6 18.8-10.3.1.1-7.3-1.2-12.1-2.4zm12.2 8.2c-4.1 8.8-6.3 6.3-6.1 7.6.1.5 3.4.6 5.7-2.9 2-3.2 2.4-9.1.4-4.7z"/><path fill="#241F20" d="M597.3 457.2c.5.2-.8 7.3-14 10.3-23.7 5.5-40.7-4-38.6-5.8.4-.4 1.9 1.4 7.6 2.6 8.6 1.9 29.7 1.9 38.6-2.4 4.5-2 5.9-5 6.4-4.7zm-52.4-6.3c9.9-21.3 37.8-21.6 48-9.2 3.8 4.6 5 9.3 5.8 9.2.8-.1.7-5.8-2.7-11.4-11.8-19.3-50.2-12.6-53 10.8-.5 4.2.2 4.4 1.9.6zm-117 18c22.7.9 28-6.6 27.4-7.2-1-.9-2.4 4.7-27.2 3.7-25.1-.8-23.5-9.2-25.4-8.2-1 .4 1.6 10.8 25.2 11.7zm29.2-18.5c-2.7-23.4-41.2-30.1-53-10.8-3.3 5.4-3.6 11.3-2.7 11.4.8.1 1.9-4.6 5.8-9.2 9.9-12.1 37.9-12.5 48 9.2 1.7 3.7 2.3 3.5 1.9-.6z"/><path class="skin_outline" d="M594 431c-.2.2-18-11.7-37.7-1.3-9.3 4.8-11.8 12.1-12.4 11.8-.6-.1 1.9-8.6 11.2-13.9 19.5-11.3 41 1.7 38.9 3.4zm-180.4-3.5c11.3-3.9 27.7-2.2 37.2 7.4 3.6 3.6 4.9 6.7 5.2 6.5.3-.1-.4-3.5-3.9-7.8-9.2-11.1-27.7-13-39.2-7.9-5 2.2-7.2 5-7 5.2.3.4 2.9-1.7 7.7-3.4z"/><pattern id="hair_c" width="28.8" height="28.8" x="250" y="750" overflow="visible" patternUnits="userSpaceOnUse" viewBox="1.4 -30.2 28.8 28.8"><defs><path id="hair_a" d="M1.4-30.2h28.8v28.8H1.4z"/></defs><clipPath id="hair_b"><use overflow="visible" xlink:href="#hair_a"/></clipPath><g fill="#B3986F" clip-path="url(#hair_b)"><path d="M30.2 0c.8 0 1.4-.6 1.4-1.4s-.6-1.4-1.4-1.4-1.4.6-1.4 1.4c0 .8.6 1.4 1.4 1.4zM15.8 0c.8 0 1.4-.6 1.4-1.4s-.6-1.4-1.4-1.4c-.8 0-1.4.6-1.4 1.4 0 .8.6 1.4 1.4 1.4zM30.2-14.4c.8 0 1.4-.6 1.4-1.4s-.6-1.4-1.4-1.4-1.4.6-1.4 1.4c0 .8.6 1.4 1.4 1.4zM15.8-14.4c.8 0 1.4-.6 1.4-1.4s-.6-1.4-1.4-1.4c-.8 0-1.4.6-1.4 1.4 0 .8.6 1.4 1.4 1.4zM8.6-7.2c.8 0 1.4-.6 1.4-1.4S9.4-10 8.6-10c-.8 0-1.4.6-1.4 1.4 0 .8.6 1.4 1.4 1.4zM23-7.2c.8 0 1.4-.6 1.4-1.4S23.8-10 23-10s-1.4.6-1.4 1.4.6 1.4 1.4 1.4zM8.6-21.6c.8 0 1.4-.6 1.4-1.4s-.6-1.4-1.4-1.4c-.8 0-1.4.6-1.4 1.4 0 .8.6 1.4 1.4 1.4zM23-21.6c.8 0 1.4-.6 1.4-1.4s-.6-1.4-1.4-1.4-1.4.6-1.4 1.4c0 .8.6 1.4 1.4 1.4z"/><g><path d="M1.4 0c.8 0 1.4-.6 1.4-1.4s-.6-1.4-1.4-1.4C.6-2.9 0-2.2 0-1.4 0-.6.6 0 1.4 0zM1.4-14.4c.8 0 1.4-.6 1.4-1.4s-.6-1.4-1.4-1.4-1.4.6-1.4 1.4.6 1.4 1.4 1.4z"/></g><g><path d="M30.2-28.8c.8 0 1.4-.6 1.4-1.4s-.6-1.4-1.4-1.4-1.4.6-1.4 1.4c0 .8.6 1.4 1.4 1.4zM15.8-28.8c.8 0 1.4-.6 1.4-1.4s-.6-1.4-1.4-1.4-1.4.6-1.4 1.4c0 .8.6 1.4 1.4 1.4z"/></g><path d="M1.4-28.8c.8 0 1.4-.6 1.4-1.4s-.6-1.4-1.4-1.4C.6-31.7 0-31 0-30.2c0 .8.6 1.4 1.4 1.4z"/></g></pattern><path fill="#BEA98A" d="M223.2 524.3c-4.9-.2 4.2-102.4 108.1-167 26.5-16.4-24 14.5-62.7 60.7-47.5 59.4-43.1 106.4-45.4 106.3z"/><path class="hair_fill" d="M500 220.8c-143.1 0-162.8 145.6-158.5 139.7 61.2-85.4 255.7-85.7 317.1 0 4.1 5.8-15.4-139.7-158.6-139.7z"/><path fill="#F7F3E8" d="M851.4 332.2c8.7-5 15.8-9.2 28-8.7-13.7-24.5-62.7-44.9-62.7-44.9h14.8c-30.6-24-57.3-9.7-57.3-9.7-8.1 1.2.1 1.6-44-3.8 51.4 1 85.8-34.3 85.8-34.3-43.9-36.5-60.2-26.6-92-26.3-19 .2-22.4 8.8-50.7 4.3 68.4-.8 81.8-57.7 81.8-57.7-77.6-28.5-97.5 9-97.5 9 1.2-10.8 9.5-22 9.5-22-7.5-.1-14.9 1.5-22 4.6 8.6-26 2.4-54.7 2.4-54.7-82.1 1.2-76.3 67-76.3 67-6.4-9.9-2.9-33.8-2.9-33.8-31.1 27.1-17.3 32.6-24.2-5.1l-14.7 31.6c19.6-55.2-21.3-71-29.4-107.8-8.2 36.8-49 52.6-29.4 107.8l-14.7-31.6c-6.9 37.7 6.9 32.2-24.2 5.1 0 0 3.5 23.9-2.9 33.8 0 0 5.8-65.8-76.3-67 0 0-6.2 28.8 2.4 54.7-7.1-3.1-14.4-4.7-22-4.6 0 0 8.3 11.2 9.5 22 0 0-19.9-37.5-97.5-9 0 0 13.4 56.9 81.8 57.7-29.3 4.7-30.6-4.2-50.7-4.3-31.8-.3-48.1-10.2-92 26.3 0 0 34.3 35.3 85.8 34.3-44.2 5.4-35.9 5-44 3.8 0 0-26.7-14.2-57.3 9.7h14.8s-49 20.5-62.7 44.9c12.2-.5 19.3 3.7 28 8.7 29.2 16.8 65.4 8.2 81.1-9.7-11.5 26-37.6 21.7-53.3 54.4 0 0 15.1-5.3 24.2-3 0 0-52.4 3.1-57.4 71.3 0 0 59.8 3.4 75.4-36.2 0 0-6.9 21.1-11.5 26.2 0 0 5.9-1.8 15.4-5.2-10.7 26.7-12.8 58.8.8 94.3 0 0 48.8-24 39.3-61 0 0 11.5 9.9 11.1 17.9 0 0 60-51 64.8-117.8 6-6.5 11.1-13.3 14.6-20.5 5.8-2.2 11.2-4.8 16.2-7.9 0 0-1.4-3.6-6-9.1 17.4.1 35.3-2.7 53.2-9.6-23.4-33.7-23.1-13.2 34.8-10-6.5-31.6-14.4-25.3 24.4-.4 12.8-32.5-3.7-28.1 24.2-2.1 28-26 11.5-30.4 24.2 2.1 38.7-24.8 30.9-31.2 24.4.4 57.6-3.1 58.1-23.5 34.8 10 17.9 6.9 35.8 9.7 53.2 9.6-4.5 5.6-6 9.1-6 9.1 5 3.1 10.5 5.7 16.2 7.9 3.6 7.2 8.6 14 14.6 20.5 4.8 66.8 64.8 117.8 64.8 117.8-.4-8 11.1-17.9 11.1-17.9-9.5 36.9 39.3 61 39.3 61 13.7-35.5 11.5-67.6.8-94.3 9.5 3.4 15.4 5.2 15.4 5.2-4.6-5.2-11.5-26.2-11.5-26.2 15.6 39.6 75.4 36.2 75.4 36.2-4.9-68.1-57.4-71.3-57.4-71.3 9.1-2.3 24.2 3 24.2 3-16.1-33.6-41.4-27.4-53.3-54.4 15.9 18 52.1 26.5 81.3 9.7z"/><pattern id="hair_d" patternTransform="matrix(.4707 0 0 -.4707 -114028.367 -56048.727)" xlink:href="#hair_c"/><path fill="url(#hair_d)" d="M363.1 325.9c-74.8 0-140.4-55-140.4-55s58.3 72.7 140.4 55z"/><pattern id="hair_e" patternTransform="matrix(.4707 0 0 -.4707 -114001.898 -56041.219)" xlink:href="#hair_c"/><path fill="url(#hair_e)" d="M451.3 306.2c-76.2-.4-105.6-51.1-105.6-51.1l12.1-7.6c-49.9 7.1-66.6-40.3-66.6-40.3s27.6 98.7 160.1 99z"/><pattern id="hair_f" patternTransform="matrix(.4707 0 0 -.4707 -114003.164 -56041.219)" xlink:href="#hair_c"/><path fill="url(#hair_f)" d="M450.5 287.5c-66.4-49.2-92.2-120.8-92.2-120.8l26.8 10.5c-13-6-21.3-15.6-26.4-26.4H343s29 93.2 107.5 136.7z"/><pattern id="hair_g" patternTransform="rotate(180 48827.7 -28024.363) scale(.4707)" xlink:href="#hair_c"/><path fill="url(#hair_g)" d="M636.9 325.9c74.8 0 140.4-55 140.4-55s-58.3 72.7-140.4 55z"/><pattern id="hair_h" patternTransform="rotate(180 48814.465 -28020.61) scale(.4707)" xlink:href="#hair_c"/><path fill="url(#hair_h)" d="M548.7 306.2c76.2-.4 105.6-51.1 105.6-51.1l-12.1-7.6c49.9 7.1 66.6-40.3 66.6-40.3s-27.6 98.7-160.1 99z"/><pattern id="hair_i" patternTransform="rotate(180 48815.098 -28020.61) scale(.4707)" xlink:href="#hair_c"/><path fill="url(#hair_i)" d="M549.5 287.5c66.4-49.2 92.2-120.8 92.2-120.8l-26.8 10.5c13-6 21.3-15.6 26.4-26.4H657S628 244 549.5 287.5z"/><pattern id="hair_j" patternTransform="rotate(180 48815.355 -28020.61) scale(.4707)" xlink:href="#hair_c"/><path fill="url(#hair_j)" d="M520.6 282c31.9-45.8 29.9-108.8 26.8-137.6 0 0 37 82.8-26.8 137.6z"/><pattern id="hair_k" patternTransform="rotate(180 48812.742 -28021.584) scale(.4707)" xlink:href="#hair_c"/><path fill="url(#hair_k)" d="M649.7 343.9c56.1 19.4 139.1-.9 139.1-.9s-77.2 39.7-139.1.9z"/><pattern id="hair_l" patternTransform="rotate(180 48807.418 -28027.123) scale(.4707)" xlink:href="#hair_c"/><path fill="url(#hair_l)" d="M666.9 369.4c33.1 31.7 89.3 53.8 114 62.5 0 0-92.4-.2-114-62.5z"/><pattern id="hair_m" patternTransform="matrix(.4707 0 0 -.4707 -114003.68 -56041.219)" xlink:href="#hair_c"/><path fill="url(#hair_m)" d="M479.4 282c-31.9-45.8-29.9-108.8-26.8-137.6 0 0-37 82.8 26.8 137.6z"/><path fill="#F7F3E8" d="M659.2 427.7s22 62.1 9.6 104.4c0 0-11.5 49.7-1.2 62.1 0 0-6.3 3.1-8.3-4.6 0 0 20.3 68.3-5 113.9 0 0-5.3 19.7-2.1 28.7 0 0-9.9-22-6.4-36.6 0 0-7 14.6-7.1 19.1 0 0-12.8-48.4-5.3-70.4 6.4-19 12.5-24.2 12.5-24.2s-5.6 7.9-14.8 9.4c17.4-33.8 8.4-94.5 22.7-207.9l5.4 6.1zM340.8 427.7s-22 62.1-9.6 104.4c0 0 11.5 49.7 1.2 62.1 0 0 6.3 3.1 8.3-4.6 0 0-20.3 68.3 5 113.9 0 0 5.3 19.7 2.1 28.7 0 0 9.9-22 6.4-36.6 0 0 7 14.6 7.1 19.1 0 0 12.8-48.4 5.3-70.4-6.4-19-12.5-24.2-12.5-24.2s5.6 7.9 14.8 9.4c-17.4-33.8-8.4-94.5-22.7-207.9l-5.4 6.1z"/><pattern id="hair_n" patternTransform="matrix(.4707 0 0 -.4707 -114002.805 -56041.219)" xlink:href="#hair_c"/><path fill="url(#hair_n)" d="M659.2 589.6s-10.1-25.8-7.9-54.3c0 0-10.7 43 7.9 54.3z"/><pattern id="hair_o" patternTransform="matrix(.4707 0 0 -.4707 -114002.805 -56041.219)" xlink:href="#hair_c"/><path fill="url(#hair_o)" d="M645.7 695.6s.4-19.8 8.1-39c0 0-20.7 28.4-15.2 58.1-.1 0 1.9-12.2 7.1-19.1z"/><pattern id="hair_p" patternTransform="matrix(.4707 0 0 -.4707 -114002.805 -56041.219)" xlink:href="#hair_c"/><path fill="url(#hair_p)" d="M667 455.8s-15.4-11.7-13.4-34.1c0 0 .6 12 7.1 10.4l6.3 23.7z"/><pattern id="hair_q" patternTransform="matrix(.4707 0 0 -.4707 -114002.805 -56041.219)" xlink:href="#hair_c"/><path fill="url(#hair_q)" d="M340.8 589.6s10.1-25.8 7.9-54.3c0 0 10.7 43-7.9 54.3z"/><pattern id="hair_r" patternTransform="matrix(.4707 0 0 -.4707 -114002.805 -56041.219)" xlink:href="#hair_c"/><path fill="url(#hair_r)" d="M354.4 695.6s-.4-19.8-8.1-39c0 0 20.7 28.4 15.2 58.1 0 0-2-12.2-7.1-19.1z"/><pattern id="hair_s" patternTransform="matrix(.4707 0 0 -.4707 -114002.805 -56041.219)" xlink:href="#hair_c"/><path fill="url(#hair_s)" d="M333 455.8s15.4-11.7 13.4-34.1c0 0-.6 12-7.1 10.4l-6.3 23.7z"/><pattern id="hair_t" patternTransform="matrix(.4707 0 0 -.4707 -113998.46 -56043.168)" xlink:href="#hair_c"/><path fill="url(#hair_t)" d="M350.3 343.9c-56.1 19.4-139.1-.9-139.1-.9s77.2 39.7 139.1.9z"/><pattern id="hair_u" patternTransform="matrix(.4707 0 0 -.4707 -113987.805 -56054.246)" xlink:href="#hair_c"/><path fill="url(#hair_u)" d="M333.1 369.4c-33.1 31.7-89.3 53.8-114 62.5 0 0 92.4-.2 114-62.5z"/><g fill="#EFCA94"><path d="M262.6 451.8c-1.6 7.6-11.9 11.4-11.9 11.4 11.9-11.4 10.8-38.7 10.8-38.7-13.4 3.1-31.2 18.8-31.2 18.8l4.5-13.4c-9.8 5-17.9 16.8-18 16.8-5.3 21.6-5.1 47.6 6.4 77.6 0 0 48.8-24 39.3-61l.1-11.5zM244.3 373.1c-13.4-.1-29.2 5.6-36.6 8.6 8.1-4.6 15.2-14.9 15.2-14.9-10.6 9.1-19.5 6.6-26.7 7.8-12.7 2.5-48.9 14.6-53 70.6 0 0 53.9 3.1 72.7-30.5 4.6-9.1 5.2-22.4 28.4-41.6zM241.4 283.1c-4.2-4.9-9.6-10-16.3-14.5-4.4-2-28.9-11.6-56.6 10.1h14.8s-49 20.5-62.7 44.9c12.2-.5 19.3 3.7 28 8.7 23.6 13.6 53.8 11.9 75.3-4.6 5.5-4.3 14-16.3 31.3-11.5 0 0-11.6-11.2-25.6-9.2l23.8-5.8s-2.2-5.1-7-11.9c62.7 40.8 116.7 38 116.7 36.5 0-2.4-48.1 3.5-121.7-42.7zM348.1 255.8c0-.1 16.8-10.6 16.6-10.6-12.8 1.2-29.9 4.4-48.4-8 2.9-7.4 6.2-18.8 3.5-27.6 9.8 1 20.2.7 31.2-1.2 23.3-29.3-55.4-48.2 4.7-30.7 0 0-3.6-9.5-13.7-20.1 3.1 14.8-7.3-39.4-97.1-6.4 5.1 21.6 22.3 41.3 47 51.5-33.6-2.8-86.5.1-107.9 28.1 0 0 34.3 35.3 85.8 34.3 0 0 28.8 4 49 2.5 0 0-25.9-19.3-44.7-23.7l38.6 1.2s1.2-2.2 2.6-5.6c27.9 19.6 46 3 28.7 14.7-.8.5-.6.3-.3 1 24.7 48.9 107.4 53.6 107.5 51.1.2-1.3-76.2-3.7-103.1-50.5z"/><path d="M370.7 191.7c-5.5-10.1-10.5-22.3-10-22.1 26.8 10.2 22.9 9.8 24.4 6.4-21.6-9.7-30.6-33-26.1-22.6 7.8 17.7 22.9 21.3 3.7 13.6-8.7-3.5-7.5-3-7.3-2.4 23.6 72.6 93.7 124.1 94.6 123 1.4-1.9-45.1-32.1-79.3-95.9zM417.8 192.3s7-27.1 0-49.8c0 0 5.6 4.3 10.6 10.6.2-10.8-2.6-64-76.4-65.1 0 0-7 32.3 4.1 59.3.2.2 32.1 15.9 61.7 45zM765.2 429.9l4.5 13.4s-17.7-15.7-31.2-18.8c0 0-1.1 27.3 10.8 38.7 0 0-10.3-3.8-11.9-11.4l.1 11.5c-9.5 36.9 39.3 61 39.3 61 11.6-30.1 11.7-56.1 6.4-77.6 0 0-8.1-11.8-18-16.8zM803.8 374.5c-7.3-1.2-16.1 1.3-26.7-7.8 0 0 7.1 10.3 15.2 14.9-7.3-3-23.2-8.6-36.6-8.6 23.2 19.2 23.8 32.5 28.4 41.5 18.8 33.6 72.7 30.5 72.7 30.5-4-55.9-40.3-67.9-53-70.5zM816.7 278.6h14.8c-27.7-21.7-52.2-12.1-56.6-10.1-19 12.6-4.6 9.3-37.3 26.7-59.3 32.2-100.6 28.7-100.6 30.6 0 1.3 53.9 4.1 116.6-36.5-4.8 6.7-7 11.8-7 11.8l23.8 5.8c-14-2-25.6 9.2-25.6 9.2 17.3-4.9 25.8 7.2 31.3 11.5 21.5 16.5 51.7 18.1 75.3 4.6 8.7-5 15.8-9.2 28-8.7-13.7-24.4-62.7-44.9-62.7-44.9zM654.9 257.6c2-3.3 1.8-2.9-.1-4.1-15.5-9.7 3.9 4.8 30-13.6 1.4 3.2 2.5 5.3 2.5 5.3l38.6-1.2c-18.9 4.5-44.7 23.7-44.7 23.7 20.2 1.5 49-2.5 49-2.5 51.4 1 85.8-34.3 85.8-34.3-21.3-27.9-74.3-30.9-107.9-28.1 24.8-10.3 41.9-29.9 47-51.5-89.8-33-100.2 21.2-97.1 6.4-10.1 10.5-13.7 20.1-13.7 20.1 60.1-17.4-18.5 1.6 4.7 30.7 11 1.9 21.4 2.2 31.2 1.2-2.7 8.9.6 20.3 3.6 27.8-26.4 17.9-55.3 3.5-46.9 8.9 17.3 10.9 15.3 9 14.3 10.6-29.3 46.3-102.6 47.9-102.5 49.3.1 2.9 80.1-3 106.2-48.7z"/><path d="M644.3 165.6c.7-2.2 3-2.5-16.5 5.1 10.8-9.2 14.3-19.7 14-19.8-.8-.4-7.5 16.1-24.6 24.1-3.1 1.2-2.6.4-1.3 3.5 19.4-7.3 22.9-8.7 23.3-8.9-.6.2 3-3.8-7.7 17.8-28 58.4-82.5 99-81.5 100.2 1.6 1.9 71.5-53.4 94.3-122zM582.2 142.5c-7 22.7 0 49.8 0 49.8 29.6-29.1 61.5-44.8 61.7-44.9 11.1-27 4.1-59.3 4.1-59.3-73.8 1-76.6 54.3-76.4 65.1 5-6.4 10.6-10.7 10.6-10.7zM788.8 343c-.3-1.3-48.2 9.8-96.9 7.1-28.1-1.6-41.9-7.2-42.2-6.2-.3.9 17.4 7.5 42 9.4 48.2 3.7 97.4-9 97.1-10.3zM780.7 431.1c.5-1.6-56.4-20.8-98.6-51.1-5.1-3.4-15-11.8-15.4-11.4-.5.5 9.9 10.3 13.9 13.3 38.8 31.2 99.7 50.6 100.1 49.2zM500 39.9c-5.6 25.2-26.5 40.6-32.9 65.5 7.5 45 32.9 51.4 32.9 51.4s25.4-6.4 32.9-51.4c-6.4-25-27.3-40.3-32.9-65.5zM453.7 138.9c.9-22.5-6.3 26.6.3 70.3 7.3 47.7 26.2 71.5 26.6 71.3 3.6-2.3-31.2-28.5-26.9-141.6zM546.3 132.9c-.4 0 .3 9.7.5 22.3 1.3 91.3-29.7 123.8-27.3 125.3.1.1 1.4-1.6 3.6-4.9 36.1-57.2 24.2-142.8 23.2-142.7zM308.1 350.1c-48.6 2.7-96.6-8.4-96.9-7.1-.4 1.6 72.5 20 127.8 5.2.8-.2 11.6-3.5 11.3-4.3-.4-1.1-12.7 4.6-42.2 6.2zM317.9 380c-42.2 30.3-99.2 49.6-98.6 51.1.5 1.3 61.5-18.1 100.1-49.2 2.3-1.7 14.7-12.5 13.9-13.3-.4-.4-10.6 8.3-15.4 11.4z"/></g><path fill="#241F20" d="M340.7 407.7v10c65.1-46.4 253.3-46.6 318.5 0v-10c-83-59.3-235.6-59.2-318.5 0z"/><path fill="#BEA98A" d="M294.7 353.9c-86.9 30.2-134 76-135.6 74.1-.4-.4 47-45.7 126.1-73.9l9.5-.2zM299.3 315.6c-60.5-11.4-126.4-5.6-126.6-7-.2-2.9 91-7.2 126.6 7zM231.8 238.3c.6-2.4 103.3 24.9 178.3 73.3 17.3 10.9-2.3 0-19.8-8.8-102-52.2-159-62.4-158.5-64.5zM705.3 353.9c86.9 30.2 134 76 135.6 74.1.4-.4-47-45.7-126.1-73.9l-9.5-.2zM700.7 315.6c60.5-11.4 126.4-5.6 126.6-7 .2-2.9-91-7.2-126.6 7zM768.2 238.3c-.6-2.4-103.3 24.9-178.3 73.3-17.3 10.9 2.3 0 19.8-8.8 102-52.2 159-62.4 158.5-64.5zM448.2 301c-1.9 1.6-44.1-54.3-117.6-105.9-41.9-29-68.2-35.5-68-36.3.1-.2 3.4.3 9.1 2.2 80.6 25.5 178.9 138 176.5 140zM396.7 137.6c.5-.5 25.4 19.3 50.9 78.6 18.7 43.4 29.3 89.4 28.1 89.7-1 .2-12-43.4-31.4-88.3-27.8-65.1-49-78.5-47.6-80z"/><path fill="#BEA98A" d="M768.2 238.3c.8 3.1-51.8 8.2-177.6 74.5-19.5 10.2 4.8-4.9 17.9-12.1 81.6-45.5 159.3-64 159.7-62.4zM551.8 301c-.3-.3 45-60 115.8-108.6 36.4-24.6 69.5-35.2 69.9-33.6.2.8-27.5 8.3-68 36.3C593.9 248.2 554 302.9 551.8 301zM603.3 137.6c1.3 1.3-20.3 16.4-47.7 80-19.4 45-30.3 88.5-31.4 88.3-1.2-.3 9.3-45.9 28.1-89.7 25.1-58.3 50.4-79.2 51-78.6zM500 110c2.3 0 2.3 193.8 0 193.8S497.7 110 500 110z"/><g><path fill="#A0E0E8" d="M634.5 335.5l-20.6 32.2c11.6 5.6 21 11.3 28.2 16.3-7.2-52.7-6-47.2-7.6-48.5zM595.7 313.4l-27.2 37.8c17 4.3 31.6 9.9 43.8 15.7-16.5-58.3-14.2-52.5-16.6-53.5z"/><path fill="#241F20" d="M635.6 336.4l6.5 47.6c1.8 1.2-1 4.1 17.4-22.2-4.4-6.7-13.2-16.8-23.9-25.4zM597.4 314.1c16.5 58.5 14.2 52.4 16.5 53.5l20.6-32.2c-11-8.5-23.6-15.6-37.1-21.3zM551.8 301c16.4 55.3 14 49.5 16.6 50.2l27.2-37.8c-13.7-5.5-28.5-9.6-43.8-12.4zM500 296.8c21.6 51.7 19 46.6 20.6 46.7l30.3-42.7c-16.6-2.8-33.8-4.1-50.9-4z"/><path fill="#A0E0E8" d="M550.9 300.9l-30.3 42.7c16.8 1.2 32.2 3.8 46 7.2-16.4-55.2-14.4-49.7-15.7-49.9zM643.4 384.9c21.5-30.7 19.1-32.5 7.3 5.4l-7.3-5.4z"/><g><path fill="#A0E0E8" d="M365.5 335.5l20.6 32.2c-11.6 5.6-21 11.3-28.2 16.3 7.2-52.7 6-47.2 7.6-48.5zM404.4 313.4l27.2 37.8c-17 4.3-31.6 9.9-43.8 15.7 16.4-58.3 14.1-52.5 16.6-53.5z"/><path fill="#241F20" d="M364.4 336.4l-6.5 47.6c-1.8 1.2 1 4.1-17.4-22.2 4.4-6.7 13.2-16.8 23.9-25.4zM402.6 314.1c-16.5 58.5-14.2 52.4-16.5 53.5l-20.6-32.2c11-8.5 23.6-15.6 37.1-21.3zM448.2 301c-16.4 55.3-14 49.5-16.6 50.2l-27.2-37.8c13.7-5.5 28.5-9.6 43.8-12.4zM500 296.8c-21.6 51.7-19 46.6-20.6 46.7l-30.3-42.7c16.6-2.8 33.8-4.1 50.9-4z"/><path fill="#A0E0E8" d="M449.1 300.9l30.3 42.7c-16.8 1.2-32.2 3.8-46 7.2 16.4-55.2 14.4-49.7 15.7-49.9zM356.6 384.9c-21.5-30.7-19.1-32.5-7.3 5.4l7.3-5.4z"/></g><path fill="#A0E0E8" d="M480.5 343.5l19.5-46.7 19.5 46.7z"/></g><path fill="#C91431" d="M500 342.9c-105.1 0-159.3 54.8-159.3 54.8v10c83-59.2 235.6-59.1 318.5 0v-10c.1 0-54.1-54.8-159.2-54.8z"/><g><path fill="#EFCA94" d="M649.2 396.7c0 46.3 20.1 46.8 20.1 0 0-46.3-20.1-46.8-20.1 0z"/><path fill="#C91431" d="M659.2 396.7c0 32.1 6.9 32.2 6.9 0 .1-32.1-6.9-32.2-6.9 0z"/></g><g><path fill="#EFCA94" d="M350.9 396.7c0 46.3-20.1 46.8-20.1 0-.1-46.3 20.1-46.8 20.1 0z"/><path fill="#C91431" d="M340.8 396.7c0 32.1-6.9 32.2-6.9 0-.1-32.1 6.9-32.2 6.9 0z"/></g></svg>