<svg xmlns="http://www.w3.org/2000/svg" xmlns:xlink="http://www.w3.org/1999/xlink" version="1.1" height='1000px' width='1000px' viewBox='0 0 1000 1000'><style type="text/css">.skin_fill{fill:#E0AB8B;} .skin_outline{fill:#644747;} .skin_dark{fill:#BF806A;} .skin_halftone{fill:#896451;} .skin_freckles{fill:#BB8A70;} </style><style type="text/css">.hair_fill{fill:#D6C4C2;} .hair_outline{fill:#B2A3A2;} .hair_shadow{fill:#9E9190;} .hair_brow{fill:#C8B7B5;} </style><style type="text/css">.eye_iris{fill:#F49AC2;} </style><style type="text/css">.bg_color{fill:#F6D047;} .bg_stop_1{stop-color:#F6D047;} .bg_stroke_1{stroke:#F6D047;} .bg_shape{fill:#4ECF99;} .bg_stop_2{stop-color:#4ECF99;} .bg_stroke_2{stroke:#4ECF99;} .bg_halftone{fill:#F7374D;} .bg_stop_3{stop-color:#F7374D;} .bg_stroke_3{stroke:#F7374D;} </style><defs><path id="backdrop_a" d="M0 0h1000v1000H0z"/></defs><use class="bg_color" overflow="visible" xlink:href="#backdrop_a"/><clipPath id="backdrop_b"><use overflow="visible" xlink:href="#backdrop_a"/></clipPath><g clip-path="url(#backdrop_b)"><g fill="none" class="bg_stroke_2" stroke-dasharray="0,12" stroke-linecap="round" stroke-linejoin="round" stroke-miterlimit="10" stroke-width="4"><path d="M-153.8-173.2L597 1173.2M31.8-173.2l750.8 1346.4M-525-173.2l750.7 1346.4M-339.4-173.2l750.7 1346.4M588.7-173.2l750.7 1346.4M774.3-173.2L1525 1173.2M217.4-173.2l750.8 1346.4M403-173.2l750.8 1346.4"/><g><path d="M-153.8 1173.2L597-173.2M31.8 1173.2L782.6-173.2M-525 1173.2L225.7-173.2M-339.4 1173.2L411.3-173.2M588.7 1173.2l750.7-1346.4M774.3 1173.2L1525-173.2M217.4 1173.2L968.2-173.2M403 1173.2l750.8-1346.4"/></g><path d="M-216.7 166.4h1437.5M-216.7 335h1437.5M-216.7 500h1437.5M-216.7 666.4h1437.5M-216.7 832.9h1437.5"/></g><g class="bg_halftone"><path d="M45.7 166.4c0 13.4-20.2 13.4-20.2 0-.1-13.4 20.2-13.4 20.2 0zM232.1 166.4c0 13.4-20.2 13.4-20.2 0s20.2-13.4 20.2 0zM417.7 166.4c0 13.4-20.2 13.4-20.2 0s20.2-13.4 20.2 0zM604.2 166.4c0 13.4-20.2 13.4-20.2 0-.1-13.4 20.2-13.4 20.2 0zM788.9 166.4c0 13.4-20.2 13.4-20.2 0s20.2-13.4 20.2 0zM975.4 166.4c0 13.4-20.2 13.4-20.2 0-.1-13.4 20.2-13.4 20.2 0z"/></g><g class="bg_halftone"><path d="M135 332.7c0 13.4-20.2 13.4-20.2 0s20.2-13.4 20.2 0zM323.2 334.4c0 13.4-20.2 13.4-20.2 0-.1-13.3 20.2-13.3 20.2 0zM511.3 334.4c0 13.4-20.2 13.4-20.2 0 0-13.3 20.2-13.3 20.2 0zM696.1 334.4c0 13.4-20.2 13.4-20.2 0 0-13.3 20.2-13.3 20.2 0zM882.6 334.4c0 13.4-20.2 13.4-20.2 0-.1-13.3 20.2-13.3 20.2 0z"/></g><g class="bg_halftone"><path d="M45.7 500.7c0 13.4-20.2 13.4-20.2 0-.1-13.4 20.2-13.4 20.2 0zM232.1 500.7c0 13.4-20.2 13.4-20.2 0s20.2-13.4 20.2 0zM417.7 500.7c0 13.4-20.2 13.4-20.2 0s20.2-13.4 20.2 0zM604.2 500.7c0 13.4-20.2 13.4-20.2 0-.1-13.4 20.2-13.4 20.2 0zM788.9 500.7c0 13.4-20.2 13.4-20.2 0s20.2-13.4 20.2 0zM975.4 500.7c0 13.4-20.2 13.4-20.2 0-.1-13.4 20.2-13.4 20.2 0z"/></g><g class="bg_halftone"><path d="M135 667c0 13.4-20.2 13.4-20.2 0s20.2-13.4 20.2 0zM323.2 668.8c0 13.4-20.2 13.4-20.2 0-.1-13.4 20.2-13.4 20.2 0zM511.3 668.8c0 13.4-20.2 13.4-20.2 0s20.2-13.4 20.2 0zM696.1 668.8c0 13.4-20.2 13.4-20.2 0s20.2-13.4 20.2 0zM882.6 668.8c0 13.4-20.2 13.4-20.2 0-.1-13.4 20.2-13.4 20.2 0z"/></g><g class="bg_halftone"><path d="M45.7 835c0 13.4-20.2 13.4-20.2 0-.1-13.3 20.2-13.4 20.2 0zM232.1 835c0 13.4-20.2 13.4-20.2 0 0-13.3 20.2-13.4 20.2 0zM417.7 835c0 13.4-20.2 13.4-20.2 0 0-13.3 20.2-13.4 20.2 0zM604.2 835c0 13.4-20.2 13.4-20.2 0-.1-13.3 20.2-13.4 20.2 0zM788.9 835c0 13.4-20.2 13.4-20.2 0 0-13.3 20.2-13.4 20.2 0zM975.4 835c0 13.4-20.2 13.4-20.2 0-.1-13.3 20.2-13.4 20.2 0z"/></g></g><pattern id="ear_i" width="48" height="48" x="250" y="750" overflow="visible" patternUnits="userSpaceOnUse" viewBox="4.8 -52.8 48 48"><defs><path id="ear_a" d="M4.8-52.8h48v48h-48z"/></defs><clipPath id="ear_b"><use overflow="visible" xlink:href="#ear_a"/></clipPath><g class="skin_dark" clip-path="url(#ear_b)"><path d="M28.8-57.6c2.7 0 4.8 2.1 4.8 4.8S31.5-48 28.8-48 24-50.2 24-52.8c0-2.7 2.1-4.8 4.8-4.8zM52.8-57.6c2.7 0 4.8 2.1 4.8 4.8S55.5-48 52.8-48 48-50.2 48-52.8c0-2.7 2.1-4.8 4.8-4.8zM28.8-33.6c2.7 0 4.8 2.1 4.8 4.8S31.5-24 28.8-24 24-26.1 24-28.8s2.1-4.8 4.8-4.8zM52.8-33.6c2.7 0 4.8 2.1 4.8 4.8S55.5-24 52.8-24 48-26.1 48-28.8s2.1-4.8 4.8-4.8zM40.8-45.6c2.7 0 4.8 2.1 4.8 4.8S43.5-36 40.8-36 36-38.2 36-40.8c0-2.7 2.1-4.8 4.8-4.8zM16.8-45.6c2.7 0 4.8 2.1 4.8 4.8S19.5-36 16.8-36 12-38.2 12-40.8c0-2.7 2.1-4.8 4.8-4.8zM40.8-21.6c2.7 0 4.8 2.1 4.8 4.8S43.5-12 40.8-12 36-14.1 36-16.8s2.1-4.8 4.8-4.8zM16.8-21.6c2.7 0 4.8 2.1 4.8 4.8S19.5-12 16.8-12 12-14.1 12-16.8s2.1-4.8 4.8-4.8z"/></g><defs><path id="ear_c" d="M4.8-52.8h48v48h-48z"/></defs><clipPath id="ear_d"><use overflow="visible" xlink:href="#ear_c"/></clipPath><g class="skin_dark" clip-path="url(#ear_d)"><path d="M4.8-57.6c2.7 0 4.8 2.1 4.8 4.8S7.5-48 4.8-48 0-50.1 0-52.8s2.1-4.8 4.8-4.8zM4.8-33.6c2.7 0 4.8 2.1 4.8 4.8S7.5-24 4.8-24 0-26.1 0-28.8s2.1-4.8 4.8-4.8z"/></g><g><defs><path id="ear_e" d="M4.8-52.8h48v48h-48z"/></defs><clipPath id="ear_f"><use overflow="visible" xlink:href="#ear_e"/></clipPath><g class="skin_dark" clip-path="url(#ear_f)"><path d="M28.8-9.6c2.7 0 4.8 2.1 4.8 4.8S31.5 0 28.8 0 24-2.2 24-4.8c0-2.7 2.1-4.8 4.8-4.8zM52.8-9.6c2.7 0 4.8 2.1 4.8 4.8S55.5 0 52.8 0 48-2.2 48-4.8c0-2.7 2.1-4.8 4.8-4.8z"/></g></g><g><defs><path id="ear_g" d="M4.8-52.8h48v48h-48z"/></defs><clipPath id="ear_h"><use overflow="visible" xlink:href="#ear_g"/></clipPath><path class="skin_dark" d="M4.8-9.6c2.7 0 4.8 2.1 4.8 4.8S7.5 0 4.8 0 0-2.2 0-4.8c0-2.7 2.1-4.8 4.8-4.8z" clip-path="url(#ear_h)"/></g></pattern><path class="skin_fill" d="M367.8 526l-17.1 11.9c-6.4 4.4-15.2 1.9-18.2-5.2l-39-89.7v-22.5c0-17.9 28.4-17.2 40.5-2 13.6 17 34 42.4 33.9 41.6-.3-1.2-.1 65.9-.1 65.9z"/><pattern id="ear_j" patternTransform="matrix(-.26 0 0 -.26 31108.844 993.389)" xlink:href="#ear_i"/><path fill="url(#ear_j)" d="M302.9 442.6c35.6 76.8 17.5 45.8 32.5 47.9 0 0-4.6-36.9-11.1-52s-21.4-28.8-21.4-13.5v17.6z"/><path class="skin_outline" d="M302.9 440.3c-.3 0-2.6-17.9 1-22 4.8-4.8 11.7 1.3 15.6 6.9 9.4 13.8 14.4 41.3 16.6 57.8 1.4 11 1.7 9.1-1.3 9.1-17.3-.3 6.3 30.7 5.4 31.4-.6.5-27.4-30.6-6.6-34.4.2-1.2-8.2-63.6-24.4-69.5-8.5-3.8-4 20.7-6.3 20.7z"/><path class="skin_fill" d="M632.2 526l17.1 11.9c6.4 4.4 15.2 1.9 18.2-5.2l39-89.7v-22.5c0-17.9-28.4-17.2-40.5-2-13.6 17-34 42.4-33.9 41.6.3-1.2.1 65.9.1 65.9z"/><pattern id="ear_k" patternTransform="matrix(.26 0 0 -.26 -47473.004 993.389)" xlink:href="#ear_i"/><path fill="url(#ear_k)" d="M697.1 442.6c-35.6 76.8-17.5 45.8-32.5 47.9 0 0 4.6-36.9 11.1-52 6.5-15.1 21.4-28.8 21.4-13.5v17.6z"/><path class="skin_outline" d="M697.1 440.3c.3 0 2.6-17.9-1-22-4.8-4.8-11.7 1.3-15.6 6.9-9.4 13.8-14.4 41.3-16.6 57.8-1.4 11-1.7 9.1 1.3 9.1 17.3-.3-6.3 30.7-5.4 31.4.6.5 27.4-30.6 6.6-34.4-.2-1.2 8.2-63.6 24.4-69.5 8.5-3.8 4 20.7 6.3 20.7z"/><g><path fill="#A9A9AC" d="M305.7 429.4c-12.7 0-15.6.8-15.6-2.4 0-1.3 1.1-2.4 2.4-2.4 13.9 0 14.1-.4 14.1 1 .1 1.8.5 3.8-.9 3.8zM305.7 437c-12.7 0-15.6.8-15.6-2.4 0-1.3 1.1-2.4 2.4-2.4 13.9 0 14.1-.4 14.1 1 .1 1.8.5 3.8-.9 3.8z"/><path fill="#CACACC" d="M305.7 428.4c-12.7 0-15.6.8-15.6-2.4 0-1.3 1.1-2.4 2.4-2.4 13.9 0 14.1-.4 14.1 1 .1 1.8.5 3.8-.9 3.8zM305.7 436c-12.7 0-15.6.8-15.6-2.4 0-1.3 1.1-2.4 2.4-2.4 13.9 0 14.1-.4 14.1 1 .1 1.8.5 3.8-.9 3.8z"/><g fill="#DFDFE0"><path d="M305.7 423.5c-12.7 0-15.6-.8-15.6 2.4 0 1.7-.1-1.4 2.4-1.4 13.9 0 14.1-.4 14.1 1 .1-1.9-.4-2-.9-2zM305.7 431.1c-12.7 0-15.6-.8-15.6 2.4 0 1.7-.1-1.4 2.4-1.4 13.9 0 14.1-.4 14.1 1 .1-1.9-.4-2-.9-2z"/></g></g><pattern id="face_i" width="48" height="48" x="250" y="750" overflow="visible" patternUnits="userSpaceOnUse" viewBox="4.8 -52.8 48 48"><defs><path id="face_a" d="M4.8-52.8h48v48h-48z"/></defs><clipPath id="face_b"><use overflow="visible" xlink:href="#face_a"/></clipPath><g class="skin_dark" clip-path="url(#face_b)"><path d="M28.8-57.6c2.7 0 4.8 2.1 4.8 4.8S31.5-48 28.8-48 24-50.2 24-52.8c0-2.7 2.1-4.8 4.8-4.8zM52.8-57.6c2.7 0 4.8 2.1 4.8 4.8S55.5-48 52.8-48 48-50.2 48-52.8c0-2.7 2.1-4.8 4.8-4.8zM28.8-33.6c2.7 0 4.8 2.1 4.8 4.8S31.5-24 28.8-24 24-26.1 24-28.8s2.1-4.8 4.8-4.8zM52.8-33.6c2.7 0 4.8 2.1 4.8 4.8S55.5-24 52.8-24 48-26.1 48-28.8s2.1-4.8 4.8-4.8zM40.8-45.6c2.7 0 4.8 2.1 4.8 4.8S43.5-36 40.8-36 36-38.2 36-40.8c0-2.7 2.1-4.8 4.8-4.8zM16.8-45.6c2.7 0 4.8 2.1 4.8 4.8S19.5-36 16.8-36 12-38.2 12-40.8c0-2.7 2.1-4.8 4.8-4.8zM40.8-21.6c2.7 0 4.8 2.1 4.8 4.8S43.5-12 40.8-12 36-14.1 36-16.8s2.1-4.8 4.8-4.8zM16.8-21.6c2.7 0 4.8 2.1 4.8 4.8S19.5-12 16.8-12 12-14.1 12-16.8s2.1-4.8 4.8-4.8z"/></g><defs><path id="face_c" d="M4.8-52.8h48v48h-48z"/></defs><clipPath id="face_d"><use overflow="visible" xlink:href="#face_c"/></clipPath><g class="skin_dark" clip-path="url(#face_d)"><path d="M4.8-57.6c2.7 0 4.8 2.1 4.8 4.8S7.5-48 4.8-48 0-50.1 0-52.8s2.1-4.8 4.8-4.8zM4.8-33.6c2.7 0 4.8 2.1 4.8 4.8S7.5-24 4.8-24 0-26.1 0-28.8s2.1-4.8 4.8-4.8z"/></g><g><defs><path id="face_e" d="M4.8-52.8h48v48h-48z"/></defs><clipPath id="face_f"><use overflow="visible" xlink:href="#face_e"/></clipPath><g class="skin_dark" clip-path="url(#face_f)"><path d="M28.8-9.6c2.7 0 4.8 2.1 4.8 4.8S31.5 0 28.8 0 24-2.2 24-4.8c0-2.7 2.1-4.8 4.8-4.8zM52.8-9.6c2.7 0 4.8 2.1 4.8 4.8S55.5 0 52.8 0 48-2.2 48-4.8c0-2.7 2.1-4.8 4.8-4.8z"/></g></g><g><defs><path id="face_g" d="M4.8-52.8h48v48h-48z"/></defs><clipPath id="face_h"><use overflow="visible" xlink:href="#face_g"/></clipPath><path class="skin_dark" d="M4.8-9.6c2.7 0 4.8 2.1 4.8 4.8S7.5 0 4.8 0 0-2.2 0-4.8c0-2.7 2.1-4.8 4.8-4.8z" clip-path="url(#face_h)"/></g></pattern><path class="skin_fill" d="M615.2 646.6c18.5-18.1 30.2-26.1 31.4-45.1 12.9-208.3 11.6-193.4 12.6-193.4 9.5-131.6-66.8-198.5-173.6-189.2-43.8 3.2-138.9 24.4-145.2 152.5-1.3 13.1-1.4 26.7-1.3 29.1 14.8 240.5 4.1 207.3 46.2 248.5 0 88.1 10.8 72.7-55 96.6l169.8 150 170.2-150c-66-24-55.1-8-55.1-99z"/><pattern id="face_j" patternTransform="matrix(.26 0 0 -.26 -47499.098 1009.889)" xlink:href="#face_i"/><path fill="url(#face_j)" d="M425.9 710.7c15.6 23.4 34.5 17.8 112.8 17.8 18 0 27.7-9.4 36.7-23l39.7-38.9v-20c-45.6 44.6-38.3 36.8-43.1 44-15.6 23.4-34.5 17.8-112.8 17.8-18 0-27.7-9.4-36.7-23L385.2 649v20c42.9 42 36 34.5 40.7 41.7z"/><path class="skin_outline" d="M347.7 541.5c-1.7.1-8.6-133.3-6.9-133.4 1.8-.1 8.7 133.3 6.9 133.4zM650.3 541.4c-1.7-.1 7.1-133.4 8.9-133.3 1.7.1-7.2 133.4-8.9 133.3z"/><g><pattern id="face_k" patternTransform="matrix(.26 0 0 -.26 -47499.098 1029.889)" xlink:href="#face_i"/><path fill="url(#face_k)" d="M402.1 632.3c1.6-79.2 8-100.8-16.1-117.7-23.1-16.2-26-40.1-26-40.1h-8.2c8.9 135.4-2 108.7 50.3 157.8z"/></g><pattern id="nose_o" width="28.8" height="28.8" y="1000" overflow="visible" patternUnits="userSpaceOnUse" viewBox="1.4 -30.2 28.8 28.8"><defs><path id="nose_a" d="M1.4-30.2h28.8v28.8H1.4z"/></defs><clipPath id="nose_b"><use overflow="visible" xlink:href="#nose_a"/></clipPath><g clip-path="url(#nose_b)"><g fill="#FFF"><path d="M30.2 0c1.9 0 1.9-2.8 0-2.8S28.3 0 30.2 0zM15.8 0c1.9 0 1.9-2.8 0-2.8S13.9 0 15.8 0zM30.2-14.4c1.9 0 1.9-2.8 0-2.8s-1.9 2.8 0 2.8zM15.8-14.4c1.9 0 1.9-2.8 0-2.8s-1.9 2.8 0 2.8zM8.6-7.2c1.9 0 1.9-2.8 0-2.8s-1.9 2.8 0 2.8zM23-7.2c1.9 0 1.9-2.8 0-2.8s-1.9 2.8 0 2.8zM8.6-21.6c1.9 0 1.9-2.8 0-2.8s-1.9 2.8 0 2.8zM23-21.6c1.9 0 1.9-2.8 0-2.8s-1.9 2.8 0 2.8z"/></g><g fill="#FFF"><path d="M1.4 0c1.9 0 1.9-2.8 0-2.8C-.4-3-.6 0 1.4 0zM1.4-14.4c1.9 0 1.9-2.8 0-2.8s-1.9 2.8 0 2.8z"/></g><g fill="#FFF"><path d="M30.2-28.8c1.9 0 1.9-2.8 0-2.8s-1.9 2.8 0 2.8zM15.8-28.8c1.9 0 1.9-2.8 0-2.8s-1.9 2.8 0 2.8z"/></g><path fill="#FFF" d="M1.4-28.8c1.9 0 1.9-2.8 0-2.8-1.8-.2-2 2.8 0 2.8z"/></g></pattern><pattern id="nose_k" width="48" height="48" y="1000" overflow="visible" patternUnits="userSpaceOnUse" viewBox="4.8 -52.8 48 48"><defs><path id="nose_c" d="M4.8-52.8h48v48h-48z"/></defs><clipPath id="nose_d"><use overflow="visible" xlink:href="#nose_c"/></clipPath><g class="skin_dark" clip-path="url(#nose_d)"><path d="M28.8-57.6c6.4 0 6.4 9.6 0 9.6-6.3 0-6.4-9.6 0-9.6zM52.8-57.6c6.4 0 6.4 9.6 0 9.6-6.3 0-6.4-9.6 0-9.6zM28.8-33.6c6.4 0 6.4 9.6 0 9.6s-6.4-9.6 0-9.6zM52.8-33.6c6.4 0 6.4 9.6 0 9.6s-6.4-9.6 0-9.6zM40.8-45.6c6.4 0 6.4 9.6 0 9.6-6.3 0-6.4-9.6 0-9.6zM16.8-45.6c6.4 0 6.4 9.6 0 9.6-6.3 0-6.4-9.6 0-9.6zM40.8-21.6c6.4 0 6.4 9.6 0 9.6s-6.4-9.6 0-9.6zM16.8-21.6c6.4 0 6.4 9.6 0 9.6s-6.4-9.6 0-9.6z"/></g><defs><path id="nose_e" d="M4.8-52.8h48v48h-48z"/></defs><clipPath id="nose_f"><use overflow="visible" xlink:href="#nose_e"/></clipPath><g class="skin_dark" clip-path="url(#nose_f)"><path d="M4.8-57.6c6.4 0 6.4 9.6 0 9.6s-6.4-9.6 0-9.6zM4.8-33.6c6.4 0 6.4 9.6 0 9.6s-6.4-9.6 0-9.6z"/></g><g><defs><path id="nose_g" d="M4.8-52.8h48v48h-48z"/></defs><clipPath id="nose_h"><use overflow="visible" xlink:href="#nose_g"/></clipPath><g class="skin_dark" clip-path="url(#nose_h)"><path d="M28.8-9.6c6.4 0 6.4 9.6 0 9.6-6.3 0-6.4-9.6 0-9.6zM52.8-9.6c6.4 0 6.4 9.6 0 9.6-6.3 0-6.4-9.6 0-9.6z"/></g></g><g><defs><path id="nose_i" d="M4.8-52.8h48v48h-48z"/></defs><clipPath id="nose_j"><use overflow="visible" xlink:href="#nose_i"/></clipPath><path class="skin_dark" d="M4.8-9.6c6.4 0 6.4 9.6 0 9.6-6.3 0-6.4-9.6 0-9.6z" clip-path="url(#nose_j)"/></g></pattern><pattern id="nose_l" patternTransform="matrix(.2222 0 0 -.2222 17223.752 -18004.856)" xlink:href="#nose_k"/><path fill="url(#nose_l)" d="M496.5 577.8h8.1V594h-8.1z"/><pattern id="nose_m" patternTransform="translate(17217.606 1022.85) scale(.2222)" xlink:href="#nose_k"/><path fill="url(#nose_m)" d="M517.5 552.3c-12.3 13.4-24.7 13.4-37 0L470 560c31 16.3 28.4 15.6 58 0l-10.5-7.7z"/><pattern id="nose_n" patternTransform="matrix(.26 0 0 -.26 -58619.84 -3764.922)" xlink:href="#nose_k"/><path fill="url(#nose_n)" d="M481.4 520.3v-72.8l-12.8-12.7v105.6z"/><pattern id="nose_p" patternTransform="matrix(-.416 0 0 -.416 33204.258 -880.87)" xlink:href="#nose_o"/><path fill="url(#nose_p)" d="M516.6 520.3v-72.8l12.8-12.7v105.6z"/><path class="skin_outline" d="M535.2 542.5c-6.7-3.5-4.7-1.7-10.9-11-9.4-13.3-12.2-16.7-1.6 1 6.3 10.2 3.8 8.1 11.2 12.3 7.7 4.4 3.9 13.5-2.9 13.2-2.7-.2-4.1-1.7-7-3.5-11.3-7.6-6.2-1-16.6 4-4.7 2.5-11.1 2.9-17.4 0-7.7-3.8-7.5-9.2-11.7-7.1-.7 0-8.3 6.3-11.9 6.6-6.5.6-10.7-8.8-2.9-13.2 7.5-4.3 4.9-2.1 11.2-12.3 12.9-21.5 4-10.2-2.2-1-7.2 10.4-3.3 6.6-10.9 11-10.7 5.3-5.4 19.3 4.3 18.7 3.7-.2-2.6-.5 18.4-1.9 9.1 6.9 20.4 6 28.3-.1 21.3 1.4 13.8 1.7 18.3 2 10.2.3 14.7-13.5 4.3-18.7z"/><g><pattern id="nose_q" patternTransform="matrix(.416 0 0 .416 -79821.89 -16047.193)" xlink:href="#nose_o"/><path fill="url(#nose_q)" d="M514 545.5c-7.7-11.8-22.3-11.7-30 0h30z"/></g><pattern id="mouth_i" width="28.8" height="28.8" x="250" y="750" overflow="visible" patternUnits="userSpaceOnUse" viewBox="1.4 -30.2 28.8 28.8"><defs><path id="mouth_a" d="M1.4-30.2h28.8v28.8H1.4z"/></defs><clipPath id="mouth_b"><use overflow="visible" xlink:href="#mouth_a"/></clipPath><g class="skin_halftone" clip-path="url(#mouth_b)"><path d="M30.2 0c1.9 0 1.9-2.8 0-2.8S28.3 0 30.2 0zM15.8 0c1.9 0 1.9-2.8 0-2.8S13.9 0 15.8 0zM30.2-14.4c1.9 0 1.9-2.8 0-2.8s-1.9 2.8 0 2.8zM15.8-14.4c1.9 0 1.9-2.8 0-2.8s-1.9 2.8 0 2.8zM8.6-7.2c1.9 0 1.9-2.8 0-2.8s-1.9 2.8 0 2.8zM23-7.2c1.9 0 1.9-2.8 0-2.8s-1.9 2.8 0 2.8zM8.6-21.6c1.9 0 1.9-2.8 0-2.8s-1.9 2.8 0 2.8zM23-21.6c1.9 0 1.9-2.8 0-2.8s-1.9 2.8 0 2.8z"/></g><defs><path id="mouth_c" d="M1.4-30.2h28.8v28.8H1.4z"/></defs><clipPath id="mouth_d"><use overflow="visible" xlink:href="#mouth_c"/></clipPath><g class="skin_halftone" clip-path="url(#mouth_d)"><path d="M1.4 0c1.9 0 1.9-2.8 0-2.8C-.4-3-.6 0 1.4 0zM1.4-14.4c1.9 0 1.9-2.8 0-2.8s-1.9 2.8 0 2.8z"/></g><g><defs><path id="mouth_e" d="M1.4-30.2h28.8v28.8H1.4z"/></defs><clipPath id="mouth_f"><use overflow="visible" xlink:href="#mouth_e"/></clipPath><g class="skin_halftone" clip-path="url(#mouth_f)"><path d="M30.2-28.8c1.9 0 1.9-2.8 0-2.8s-1.9 2.8 0 2.8zM15.8-28.8c1.9 0 1.9-2.8 0-2.8s-1.9 2.8 0 2.8z"/></g></g><g><defs><path id="mouth_g" d="M1.4-30.2h28.8v28.8H1.4z"/></defs><clipPath id="mouth_h"><use overflow="visible" xlink:href="#mouth_g"/></clipPath><path class="skin_halftone" d="M1.4-28.8c1.9 0 1.9-2.8 0-2.8-1.8-.2-2 2.8 0 2.8z" clip-path="url(#mouth_h)"/></g></pattern><path fill="#241F20" d="M517.4 602.3c-35.8 0-39.7-1.2-47.9 3.6-18 10.3-15.6 9.7-21.3 9.7 4.9 0 5.9.9 19 6.3 23.7-4.6 42.3-4.6 66.1 0 13.1-5.4 14.1-6.3 19-6.3-11.5 0-19.5-13.3-34.9-13.3z"/><path fill="#F7F3E8" d="M500.1 620.6c0-2.3-.5-5 1.9-5 13.5 0 13-.9 13 3.6 0-1.4-.3-3.6 1.9-3.6 9.1 0 8.6-1 8.7 5 0-2.3-.6-5 1.9-5 6.3 0 5.9.1 9 4.9 1 6.9-73.8 6.9-72.8 0l1.8-2.7c2-3 7.3-2.2 7.2-2.2 2.5 0 1.9 2.7 1.9 5 0-2.4-.4-5 2-5 8.9 0 8.6-.6 8.6 3.6 0-1.4-.3-3.6 1.9-3.6 14 0 13-1.3 13 5z"/><path fill="#F7F3E8" d="M486.6 615.6c15.6 0 13.6 1.3 13.6-13.2h-17.3c0 7.2-1.2 13.2 3.7 13.2z"/><path fill="#F7F3E8" d="M470.6 614.6c14.2 0 12.3 1.2 12.3-13.2h-16c0 7.3-1.2 13.2 3.7 13.2zM513.7 615.6c-15.6 0-13.6 1.3-13.6-13.2h17.3c0 7.2 1.3 13.2-3.7 13.2z"/><path fill="#F7F3E8" d="M529.8 614.6c-14.2 0-12.3 1.2-12.3-13.2h16c0 7.3 1.2 13.2-3.7 13.2z"/><path fill="#ED8A74" d="M533.7 602.5c0 3.1.1 4.2-.3 3.8-4.9-4.3-15.3.3-16.1-1.2-2.1-4.2-16.5 2.4-17.4 2.1-17.9-7.2-15.8-1.1-17.7-1.6-15.3-3.7-15.6 2.7-15.6.2-.1-4.6-10-3.3 67.1-3.3z"/><path class="skin_dark" d="M533.2 621.8c20.5-8.4 16.7-8.2 31.9-.8-12.9 7.5-20.2 13.1-37.6 11.5-36.2-3.4-51.5 14-73 .6l-19.7-12.6c15.2-6.5 8.3-7 39.1 1.3 25.8-8 61.7.5 59.3 0z"/><path class="skin_dark" d="M565.1 621l-11.3-5.5c-14.7 0-20.4-13.2-36.5-13.2-35.8 0-39.7-1.2-47.9 3.6-16.7 9.6-14.8 9.7-23 9.7l-11.6 5c16.2-15.2 23.5-26.1 40.9-26.1 70 0 57.3-4.9 89.4 26.5z"/><pattern id="mouth_j" patternTransform="matrix(.415 0 0 .415 -27594.234 2194.082)" xlink:href="#mouth_i"/><path fill="url(#mouth_j)" d="M565.1 621l-11.3-5.5c-14.7 0-20.4-13.2-36.5-13.2-35.8 0-39.7-1.2-47.9 3.6-16.7 9.6-14.8 9.7-23 9.7l-11.6 5c16.2-15.2 23.5-26.1 40.9-26.1 70 0 57.3-4.9 89.4 26.5z"/><g><path class="skin_outline" d="M446.6 614.7c10.8-.3 14-6.3 24.7-11.1 7.4-3.4 12.3-2.6 28.8-2.6 18.3 0 21.9-.6 28.8 2.6 11.8 5.3 13.5 10.6 24.4 11.1 2.3.6 15.8 8 15.6 8.3-.4.8-13.4-6.6-17.4-6.6-12.3-.3-18.6-12.2-33-12.7-42.5-1.5-43.3.4-51.7 5.2-14.7 8.2-11.8 7.5-20.1 7.6-34.9 14.1-.7-1.8-.1-1.8z"/></g><g><path fill="#B7B7D0" d="M475.7 638.2c-4.7 0-4.6-17 0-16.9 3.5-.9-4.2-2.8-4.2 8.4 0 5.2 2.8 11.3 5.9 8.3-2 .2-1.4.2-1.7.2z"/><path fill="#B7B7D0" d="M475.7 641.5c-9.1 0-9.1-23.5 0-23.5 3 0 3.4 2.5 4.8 2.2-4.7-6.4-12.3-1.4-12.3 9.5 0 12.1 9.1 16.6 13.4 7.8-1.7.4-2.2 4-5.9 4z"/><path fill="#A5A5B7" d="M475.7 618c-9.1 0-9.1 23.5 0 23.5 2 0 3.8-1.5 5.1-3.8-1 .2-2.2.3-3.4.4-3.1 3.1-5.9-3.2-5.9-8.3 0-5 2.5-10.6 5.3-8.7.8-.2 1.8-.4 3-.7-1.1-1.5-2.5-2.4-4.1-2.4z"/></g><path fill="#28351A" d="M627.2 486.2c5.3-2.5 3.5-10.5-2.3-10.5-4.2 0-3.2 1.5-3.2-5.8-4.1 0-3.1-1.5-3.1 5.8-3.6 0-2.7 1.3-2.7-5.8-4.1 0-3.1-1.5-3.1 5.8-8.5 0-6.9-1-6.9 3.1h4.6v18.4c-5.8 0-4.6-.9-4.6 3.1h6.9v6.2c4.1 0 3.1 1.5 3.1-6.2 3.6 0 2.7-1.2 2.7 6.2 4.1 0 3.1 1.5 3.1-6.2h3.2c8.2 0 10.1-11.5 2.3-14.1zm-11.4-7.3c3.3 0 7.6-.6 7.6 3.3 0 4-4.2 3.3-7.6 3.3v-6.6zm0 18.3v-8.3c4.2 0 9.4-.8 9.4 4.2.1 4.9-5.2 4.1-9.4 4.1z"/><path fill="none" stroke="#28351A" stroke-miterlimit="10" d="M636.1 488.2h7.7M636.1 485.2c3.5 0 2.2.6 5.9-3.1"/><path fill="#28351A" d="M643.3 481.9c0 1.5-2.2 1.5-2.2 0s2.2-1.5 2.2 0z"/><path fill="none" stroke="#28351A" stroke-miterlimit="10" d="M636.1 491.1c3.5 0 2.2-.6 5.9 3.1"/><path fill="#28351A" d="M643.3 494.4c0-1.5-2.2-1.5-2.2 0s2.2 1.5 2.2 0zM644.9 488.2c0 1.5-2.2 1.5-2.2 0s2.2-1.5 2.2 0z"/><g><path fill="none" stroke="#28351A" stroke-miterlimit="10" d="M602.6 488.2h-7.7M602.6 485.2c-3.5 0-2.2.6-5.9-3.1"/><path fill="#28351A" d="M595.4 481.9c0 1.5 2.2 1.5 2.2 0s-2.2-1.5-2.2 0z"/><path fill="none" stroke="#28351A" stroke-miterlimit="10" d="M602.6 491.1c-3.5 0-2.2-.6-5.9 3.1"/><path fill="#28351A" d="M595.4 494.4c0-1.5 2.2-1.5 2.2 0s-2.2 1.5-2.2 0zM593.8 488.2c0 1.5 2.2 1.5 2.2 0s-2.2-1.5-2.2 0z"/></g><pattern id="eye_i" width="48" height="48" x="250" y="750" overflow="visible" patternUnits="userSpaceOnUse" viewBox="4.8 -52.8 48 48"><defs><path id="eye_a" d="M4.8-52.8h48v48h-48z"/></defs><clipPath id="eye_b"><use overflow="visible" xlink:href="#eye_a"/></clipPath><g class="skin_dark" clip-path="url(#eye_b)"><path d="M28.8-57.6c2.7 0 4.8 2.1 4.8 4.8S31.5-48 28.8-48 24-50.2 24-52.8c0-2.7 2.1-4.8 4.8-4.8zM52.8-57.6c2.7 0 4.8 2.1 4.8 4.8S55.5-48 52.8-48 48-50.2 48-52.8c0-2.7 2.1-4.8 4.8-4.8zM28.8-33.6c2.7 0 4.8 2.1 4.8 4.8S31.5-24 28.8-24 24-26.1 24-28.8s2.1-4.8 4.8-4.8zM52.8-33.6c2.7 0 4.8 2.1 4.8 4.8S55.5-24 52.8-24 48-26.1 48-28.8s2.1-4.8 4.8-4.8zM40.8-45.6c2.7 0 4.8 2.1 4.8 4.8S43.5-36 40.8-36 36-38.2 36-40.8c0-2.7 2.1-4.8 4.8-4.8zM16.8-45.6c2.7 0 4.8 2.1 4.8 4.8S19.5-36 16.8-36 12-38.2 12-40.8c0-2.7 2.1-4.8 4.8-4.8zM40.8-21.6c2.7 0 4.8 2.1 4.8 4.8S43.5-12 40.8-12 36-14.1 36-16.8s2.1-4.8 4.8-4.8zM16.8-21.6c2.7 0 4.8 2.1 4.8 4.8S19.5-12 16.8-12 12-14.1 12-16.8s2.1-4.8 4.8-4.8z"/></g><defs><path id="eye_c" d="M4.8-52.8h48v48h-48z"/></defs><clipPath id="eye_d"><use overflow="visible" xlink:href="#eye_c"/></clipPath><g class="skin_dark" clip-path="url(#eye_d)"><path d="M4.8-57.6c2.7 0 4.8 2.1 4.8 4.8S7.5-48 4.8-48 0-50.1 0-52.8s2.1-4.8 4.8-4.8zM4.8-33.6c2.7 0 4.8 2.1 4.8 4.8S7.5-24 4.8-24 0-26.1 0-28.8s2.1-4.8 4.8-4.8z"/></g><g><defs><path id="eye_e" d="M4.8-52.8h48v48h-48z"/></defs><clipPath id="eye_f"><use overflow="visible" xlink:href="#eye_e"/></clipPath><g class="skin_dark" clip-path="url(#eye_f)"><path d="M28.8-9.6c2.7 0 4.8 2.1 4.8 4.8S31.5 0 28.8 0 24-2.2 24-4.8c0-2.7 2.1-4.8 4.8-4.8zM52.8-9.6c2.7 0 4.8 2.1 4.8 4.8S55.5 0 52.8 0 48-2.2 48-4.8c0-2.7 2.1-4.8 4.8-4.8z"/></g></g><g><defs><path id="eye_g" d="M4.8-52.8h48v48h-48z"/></defs><clipPath id="eye_h"><use overflow="visible" xlink:href="#eye_g"/></clipPath><path class="skin_dark" d="M4.8-9.6c2.7 0 4.8 2.1 4.8 4.8S7.5 0 4.8 0 0-2.2 0-4.8c0-2.7 2.1-4.8 4.8-4.8z" clip-path="url(#eye_h)"/></g></pattern><path fill="#FFF" d="M457.1 457.3s1.7 9.9-24.7 9.9-31-8.4-31-16.2c3.6-28.9 56.2-24.3 55.7 6.3zm85.8 0s-1.7 9.9 24.7 9.9 31-8.4 31-16.2c-3.6-28.9-56.2-24.3-55.7 6.3z"/><path class="eye_iris" d="M584 452.4c0 21.7-32.8 21.7-32.8 0s32.8-21.8 32.8 0zm-168 0c0 21.7 32.8 21.7 32.8 0s-32.8-21.8-32.8 0z"/><pattern id="eye_j" patternTransform="matrix(.252 0 0 -.252 -70871.758 -7216.028)" xlink:href="#eye_i"/><path fill="url(#eye_j)" d="M594 431c-11.9-11.8-44-7.8-50.1 10.4-14.9-53.8 78.4-48 89.1-26.4 4 8-10.2 27.3-18.2 28.6-5.4.9-14.9-8.8-20.8-12.6zm-188 0c11.9-11.8 44-7.8 50.1 10.4 14.9-53.8-78.4-48-89.1-26.4-4 8 10.2 27.3 18.2 28.6 5.4.9 14.9-8.8 20.8-12.6z"/><path d="M574.6 452.4c0 9.2-13.9 9.2-13.9 0-.1-9.3 13.9-9.3 13.9 0zm-149.2 0c0 9.2 13.9 9.2 13.9 0 .1-9.3-13.9-9.3-13.9 0z"/><path class="hair_brow" d="M535.4 402.4c41.8-24 75.5-29.4 97.7 12.6-34.1-23.8-52.4-12.7-91 .1-12.2 4.1-15.5-4.6-18.8-10.3-.1.1 7.3-1.2 12.1-2.4zM522 411c1.1 6.9 7.1 8.4 7.3 7.2.1-.6-2.2-.8-4.2-3.9-.5-.8-3.9-8.9-3.1-3.3zm-57.4-8.6c-41.8-24-75.5-29.4-97.7 12.6 34.1-23.8 52.4-12.7 91 .1 12.2 4.1 15.5-4.6 18.8-10.3.1.1-7.3-1.2-12.1-2.4zm12.2 8.2c-4.1 8.8-6.3 6.3-6.1 7.6.1.5 3.4.6 5.7-2.9 2-3.2 2.4-9.1.4-4.7z"/><path fill="#241F20" d="M597.3 457.2c.5.2-.8 7.3-14 10.3-23.7 5.5-40.7-4-38.6-5.8.4-.4 1.9 1.4 7.6 2.6 8.6 1.9 29.7 1.9 38.6-2.4 4.5-2 5.9-5 6.4-4.7zm-52.4-6.3c9.9-21.3 37.8-21.6 48-9.2 3.8 4.6 5 9.3 5.8 9.2.8-.1.7-5.8-2.7-11.4-11.8-19.3-50.2-12.6-53 10.8-.5 4.2.2 4.4 1.9.6zm-117 18c22.7.9 28-6.6 27.4-7.2-1-.9-2.4 4.7-27.2 3.7-25.1-.8-23.5-9.2-25.4-8.2-1 .4 1.6 10.8 25.2 11.7zm29.2-18.5c-2.7-23.4-41.2-30.1-53-10.8-3.3 5.4-3.6 11.3-2.7 11.4.8.1 1.9-4.6 5.8-9.2 9.9-12.1 37.9-12.5 48 9.2 1.7 3.7 2.3 3.5 1.9-.6z"/><path class="skin_outline" d="M594 431c-.2.2-18-11.7-37.7-1.3-9.3 4.8-11.8 12.1-12.4 11.8-.6-.1 1.9-8.6 11.2-13.9 19.5-11.3 41 1.7 38.9 3.4zm-180.4-3.5c11.3-3.9 27.7-2.2 37.2 7.4 3.6 3.6 4.9 6.7 5.2 6.5.3-.1-.4-3.5-3.9-7.8-9.2-11.1-27.7-13-39.2-7.9-5 2.2-7.2 5-7 5.2.3.4 2.9-1.7 7.7-3.4z"/><pattern id="hair_g" width="28.8" height="28.8" x="250" y="750" overflow="visible" patternUnits="userSpaceOnUse" viewBox="1.4 -30.2 28.8 28.8"><defs><path id="hair_a" d="M1.4-30.2h28.8v28.8H1.4z"/></defs><clipPath id="hair_b"><use overflow="visible" xlink:href="#hair_a"/></clipPath><g clip-path="url(#hair_b)"><g fill="#FFF"><path d="M30.2 0c.8 0 1.4-.6 1.4-1.4s-.6-1.4-1.4-1.4-1.4.6-1.4 1.4c0 .8.6 1.4 1.4 1.4zM15.8 0c.8 0 1.4-.6 1.4-1.4s-.6-1.4-1.4-1.4c-.8 0-1.4.6-1.4 1.4 0 .8.6 1.4 1.4 1.4zM30.2-14.4c.8 0 1.4-.6 1.4-1.4s-.6-1.4-1.4-1.4-1.4.6-1.4 1.4c0 .8.6 1.4 1.4 1.4zM15.8-14.4c.8 0 1.4-.6 1.4-1.4s-.6-1.4-1.4-1.4c-.8 0-1.4.6-1.4 1.4 0 .8.6 1.4 1.4 1.4zM8.6-7.2c.8 0 1.4-.6 1.4-1.4S9.4-10 8.6-10c-.8 0-1.4.6-1.4 1.4 0 .8.6 1.4 1.4 1.4zM23-7.2c.8 0 1.4-.6 1.4-1.4S23.8-10 23-10s-1.4.6-1.4 1.4.6 1.4 1.4 1.4zM8.6-21.6c.8 0 1.4-.6 1.4-1.4s-.6-1.4-1.4-1.4c-.8 0-1.4.6-1.4 1.4 0 .8.6 1.4 1.4 1.4zM23-21.6c.8 0 1.4-.6 1.4-1.4s-.6-1.4-1.4-1.4-1.4.6-1.4 1.4c0 .8.6 1.4 1.4 1.4z"/></g><g fill="#FFF"><path d="M1.4 0c.8 0 1.4-.6 1.4-1.4s-.6-1.4-1.4-1.4C.6-2.9 0-2.2 0-1.4 0-.6.6 0 1.4 0zM1.4-14.4c.8 0 1.4-.6 1.4-1.4s-.6-1.4-1.4-1.4-1.4.6-1.4 1.4.6 1.4 1.4 1.4z"/></g><g fill="#FFF"><path d="M30.2-28.8c.8 0 1.4-.6 1.4-1.4s-.6-1.4-1.4-1.4-1.4.6-1.4 1.4c0 .8.6 1.4 1.4 1.4zM15.8-28.8c.8 0 1.4-.6 1.4-1.4s-.6-1.4-1.4-1.4-1.4.6-1.4 1.4c0 .8.6 1.4 1.4 1.4z"/></g><path fill="#FFF" d="M1.4-28.8c.8 0 1.4-.6 1.4-1.4s-.6-1.4-1.4-1.4C.6-31.7 0-31 0-30.2c0 .8.6 1.4 1.4 1.4z"/></g></pattern><pattern id="hair_e" width="28.8" height="28.8" x="250" y="750" overflow="visible" patternUnits="userSpaceOnUse" viewBox="1.4 -30.2 28.8 28.8"><defs><path id="hair_c" d="M1.4-30.2h28.8v28.8H1.4z"/></defs><clipPath id="hair_d"><use overflow="visible" xlink:href="#hair_c"/></clipPath><g class="hair_shadow" clip-path="url(#hair_d)"><path d="M30.2 0c.8 0 1.4-.6 1.4-1.4s-.6-1.4-1.4-1.4-1.4.6-1.4 1.4c0 .8.6 1.4 1.4 1.4zM15.8 0c.8 0 1.4-.6 1.4-1.4s-.6-1.4-1.4-1.4c-.8 0-1.4.6-1.4 1.4 0 .8.6 1.4 1.4 1.4zM30.2-14.4c.8 0 1.4-.6 1.4-1.4s-.6-1.4-1.4-1.4-1.4.6-1.4 1.4c0 .8.6 1.4 1.4 1.4zM15.8-14.4c.8 0 1.4-.6 1.4-1.4s-.6-1.4-1.4-1.4c-.8 0-1.4.6-1.4 1.4 0 .8.6 1.4 1.4 1.4zM8.6-7.2c.8 0 1.4-.6 1.4-1.4S9.4-10 8.6-10c-.8 0-1.4.6-1.4 1.4 0 .8.6 1.4 1.4 1.4zM23-7.2c.8 0 1.4-.6 1.4-1.4S23.8-10 23-10s-1.4.6-1.4 1.4.6 1.4 1.4 1.4zM8.6-21.6c.8 0 1.4-.6 1.4-1.4s-.6-1.4-1.4-1.4c-.8 0-1.4.6-1.4 1.4 0 .8.6 1.4 1.4 1.4zM23-21.6c.8 0 1.4-.6 1.4-1.4s-.6-1.4-1.4-1.4-1.4.6-1.4 1.4c0 .8.6 1.4 1.4 1.4z"/><g><path d="M1.4 0c.8 0 1.4-.6 1.4-1.4s-.6-1.4-1.4-1.4C.6-2.9 0-2.2 0-1.4 0-.6.6 0 1.4 0zM1.4-14.4c.8 0 1.4-.6 1.4-1.4s-.6-1.4-1.4-1.4-1.4.6-1.4 1.4.6 1.4 1.4 1.4z"/></g><g><path d="M30.2-28.8c.8 0 1.4-.6 1.4-1.4s-.6-1.4-1.4-1.4-1.4.6-1.4 1.4c0 .8.6 1.4 1.4 1.4zM15.8-28.8c.8 0 1.4-.6 1.4-1.4s-.6-1.4-1.4-1.4-1.4.6-1.4 1.4c0 .8.6 1.4 1.4 1.4z"/></g><path d="M1.4-28.8c.8 0 1.4-.6 1.4-1.4s-.6-1.4-1.4-1.4C.6-31.7 0-31 0-30.2c0 .8.6 1.4 1.4 1.4z"/></g></pattern><path class="hair_fill" d="M401.8 731.9c-2.7 24.2-1.7-7.5-5-31.7-3.7-26.5-11.1-51.9-18.4-77.3 11.7 73.3 11.2 148.9-27.5 214.1-4.2-49.4 4.7-24.8-26.8 15.8l-45.5 58.6c-48.7-110.9-4.4-208.7 11-307.4-23.1 77.6-74 161-30.9 247 5.9 11.4-11.2-10.8-17.3-44.5-11.5-66.1 20-129.3 39.8-186.8 22.2-64 14.1-95 31.2-222.6 1.6-6.7 19.1-3.5 50.8 1.3-7.6 17.1-2.1 92.1-.3 110.8 10.2 104.4 44.6 152.2 38.9 222.7zm317.9 7.7c-12.2-62.7-26.1-350.8-32.9-347.1-1.1-4.5-18.5-.6-50.7 4.5 5.1 10.7 3.9 11.5 3.9 71.8 0 124.3-43.5 158.4-49.4 260.9-.5 13.7-.3 28.7 2.1 42.4 3.9 21.7 11.6 42 7.3 21.9-12.2-56.3 1.9-114.1 19.3-169.3 12-38-32.1 99.7 12.9 196.2 0 0-1.4-24 5.7-68.7 1.5 72.9 34.7 132.5 36.6 131.5 1.6-.9-22.2-37-30.7-100.6 10 47.7 32.2 69.6 77.7 128.2 20.8-54.1 7-100.6-3-161.2 5.8 24.5 23.4 72.2 25.7 116.7 1.7 38.9-8.7 68-4 53.5 20.7-66.4-13.1-141.6-20.5-180.7z"/><pattern id="hair_f" patternTransform="matrix(.4 0 0 .4 -4912.881 -4927.729)" xlink:href="#hair_e"/><path fill="url(#hair_f)" d="M363.2 398.2c-5.5-.8-10.5-1.6-15.1-2.3 4.6.7 9.6 1.4 15.1 2.3zm-50.7-1.3c-2.1 17.1-3.2 25.5-4.1 33.1-1.8 15.2 10.7 34.3 7.2 64.9-3.5 30.1-9.4 63.4 0 83 3.7-1.3 10.5-42.8 10.5-61.3 0-25.6-4.3-48-4.3-69.9 0-39.9 45.5-47.9 41.5-48.5-30.7-4.6-49.2-8.1-50.8-1.3zm379.7 133c-21.6 56.8-12.8 121.9.5 181.4-5.8-35.8 7.8-66.9 7.8-101.4-.1-24.5-5-56.1-8.3-80zm-48.4 265.5c-1.1-6.7 1.6-20.9 2.6-26.5 6.4-36.6 21.2-57.8 21.2-91.7 0-13.6-5.4-27.9-6.7-41.3.1 72.7-37.2 86.5-17.1 159.5zm61.2-29.1c-1.1 25.4 9.1 53.6 3.4 78.6-17.7-9.9-37.2-105.1-40.3-120.9-3.4 27.2 13.3 123 53.4 185.7 2-47.3-6.7-94.8-16.5-143.4zm-355.8-98.5c2.1-11.8 1-24 3.3-35.8 9.3-48.5-2.7-127.6-2.7-127.5 0 103.1-19.7 105.7-.6 163.3zM326 732.1c0 22.2 7.3 42 7.3 66.4 0 19.4-13.7 34.6-13.5 59.7 19.1-23.1 28.8-48.8 28.8-48.8 0-11.3-8.6-65.3.2-136.7-7.1 19.6-22.8 24.4-22.8 59.4zM257.5 813c0 26.9 7.7 65.4 20.9 96.5-9.6-102.3 2.3-158.8 4.1-184.2-14.4 29.1-25 54.2-25 87.7zm378.6-416c1.2 2.5 2.1 5 2.8 7.7 27.3 34.1 27 49.6 33 109.9 22.5-28.8 9.7-68.2 18.7-92.6-.4-3.2-2.4-20.4-2.6-20.3-1.9-14.3 5.8-13.8-51.9-4.7z"/><pattern id="hair_h" patternTransform="matrix(.5 0 0 .5 -4106.228 -4110.608)" xlink:href="#hair_g"/><path fill="url(#hair_h)" d="M359.3 719.8c0-46 6.7-10.1 12.3-113.9 15.4 64.3 6.2 134.2-12.7 197.5 4.1-27.3.4-55.9.4-83.6zm-67.2 138.6c7.2-31.7 6-61.1 1-92.9-2 12.3.2 25.2-2.3 37.3-1-1.7-1.9-3.5-2.7-5.4-6.1 17.6-3.1 35.7-5.6 53.8 3.2-2.7 5.3-5.9 6.8-9.8 2.7 5.5 3.5 11.1 2.8 17zm28.1-228.2c-15.8 29.1-13.3 75.4-10.3 108.4 2.8-36.3 10-71.4 10.3-108.4zm21.3-219.7c-10.8 48-3.9 106.3-8.1 156.8 14.8-51.7 9.4-103.4 8.1-156.8zm298 251.8c4-31.9.1-67.4.6-99.6-3.1 60.2-29.9 58.3-17.7 206.3 1.2-36.2 12.6-70.9 17.1-106.7zm67 149.7c-6-40.4-31.6-146.4-31.6-146.3 2.1 27.6 2.8 58.6 10.2 85.3 5.9 20.9 16.5 39.8 21.4 61zm-63.4-394.1c.7 3.4-.1 6.6-.1 9.9 0 18 8.3 11.1 17.2 113.9-.5-16.2 8.7-57.9-17.1-123.8z"/><g class="hair_outline"><path d="M658.8 580.1c-6.1-56.8-7.5-96.9-7.7-67.2-.5 51.5 15.2 118.8 4.1 165.3-5.1 21.6-13.2 37.5-16.7 59.9 0 .1-1.7 15.4-.5 15.4.4 0 .1-2.5 2.2-15.1 11.3-54.6 30.4-47.6 18.6-158.3zM670.9 532.9c3.2-32.9-.7-86.4-5.5-121.2-3.2-21.8-2.2-19-5.7-18.4 13.4 93.3 8.4 171.8 11.2 139.6zM326.8 393.7c-10.3 49.4-.1 87.2-2.8 136.9-2.3 33.6-13.3 59.7-5.6 41.2 20.3-52.5-1-123.8 11-178.4-2.9-.2-2.5-.2-2.6.3zM354.7 539.2c-.1-1-1.8-11-2.2-10.9-.3.1.5 6.6.9 11.1 5.3 52.2-4.6 103.3-9.2 157.6-5.9 70.3 3.8 112.5 4.4 112.4 1.6-.3-7.8-35-1-112.1 4.6-52.1 14.7-110.3 7.1-158.1zM683.8 653c-9.6-80.6 3.4-103.5.6-104.1-.5-.1-11.1 37.5-3.8 104.5 7.1 62 26.7 123.9 35.6 184.6 5.4 36.4 4.6 49.9 5.5 49.8.3 0 1.1-17.9-3.1-50.2-7.5-59.9-27.1-122.2-34.8-184.6zM717.9 902.5C682 839.4 664 766.9 669.4 689.3c2.3-34.5-11.4 38.4 4.8 111 16.8 72.5 60.8 132.8 43.7 102.2zM299.7 715.7c-.7-20.3.3-28.9-.4-28.9-1.3-.1-2.1 22.8-2.1 29-.1 53.3 13.6 107.1-1.7 159.9-.6 2.5-3.5 11.4-.9 5.8 21.1-45.7 6.8-114.3 5.1-165.8z"/><path d="M309.2 605.1c-56.6 156.8-28 344.1-29.2 317.4-.7-16.4-2.7-26.9-3.4-78.8 1.2-156.4 41-261.9 32.6-238.6z"/></g><g><path fill="#2A3156" d="M358.1 263.1l-34.9 53.1c-2.7 4.1 66.3 26.3 176.1 25.4 132.4-1.2 176.8-29.5 176.9-29.5l-31.6-60.3s-17.8-65-57.8-82.5c-57.4-25-91.9-46.3-112.2-61.7-5.2-9.4 8.3-29.3 17-40.6 26.4-.4 24.8.1 30.6-1.6 0 .1-1.2-.6 31.7 16.6 10.2-.1 2.3-3.2 40.5 19.2 1.4.8 3-.7 2.3-2.1-12.5-25.5-8.4-19.8-16.9-26.4 0 0 1.3-10.8-6.7-17.6-.3-.3 2.3 1.8-21.4-16.7l-6.6-16.5C493.2 7.9 521.7 9 494.4 9.3c-12.4 4.2-3.9 3.1-36.1 3.5l-43.6 32.1-52.9 92.6 8.9 49.5c-15.5 48.1-12.9 30.7-12.6 76.1z"/><path fill="#999DAA" d="M504.8 127.9c40.9 24.7 79.6 39.8 87 43.9 41.7 64.1-3.8 148.4-79 150.1 39.4-23.8 53.3-74.6 31-115.3-22.3-40.7-72.7-56.2-113.9-35.8 17-25.6 45.1-41.2 74.9-42.9zm-29.5 124l29.5-36.4-45.3 12.1-25.5-39.3-2.5 46.8-45.3 12.1 43.7 16.8-2.5 46.8 29.5-36.4 43.7 16.8-25.3-39.3zM424.2 94.4l-7.4 22.9 19.5-14.1 19.5 14.2-7.4-22.9c10.3-7.5 5.3-1.4-1.3-13.6-2-3.6-5.1-8.9-11.7-20.4l-6.5 19.9h-24.1l19.4 14z"/><path fill="#999DAA" d="M323.2 316.2c-2.7 4.1 66.3 26.3 176.1 25.4 112.6-1 179-25.6 176.9-29.5 0 0 18.5-7 28 18.7 16.1 43.7-17.3 61.7-17.3 61.7-2.3-8.8-68.3 15.1-187.6 16.1-117 1-183.5-25.1-186.8-11.7 0 0-21.2-18.1-16.1-47.4 6.2-36.8 26.7-33.1 26.8-33.3z"/><path fill="#1D2544" d="M430.5 54.8c27.6-39.4 32.6-44.9 3.1.1 15 25.4 14.6 29.9 39.3 49.1-2.5-12.8 15.3-36 23.7-45.9.8-1-.1 0 13-27.1 19.1-9.8 28-13.2 9.3-2.1-9.3 5.4-4.4-1-18.7 30.2-4 8.8-15.1 6.6 14.5 6 7.3-.1 21.9-7.2 34.9-10.2 6.3-1.5 10.3-1.5 10.4-1.1.1.5-3.7 1.4-9.7 3.5-24.3 8.2-28.4 14-56.6 10-6.7 8.5-20.6 27.1-19.4 37.8 45.2 34.8 113.2 62.7 112.6 64.2-.5 1.1-101.3-39.6-137.5-82.5-3.5-4.1-2.3-2.4-18.9-32zm-43.2 100.7c7.1-15.4 4-10.5 11.3-18.8 11.1-12.6 10.6-13.9-1.9-1.9-7.4 7.2-5.4 4.1-12.6 19.1-19.9 42.8-16.9 44.7 3.2 1.6zm288.9 156.6c-12.9 11.1-157.7 41-302.8 17.1-4.5-.7-48.2-8.7-50.2-12.8-.1-.4-1.5.5 2 2.9 17.2 11.2 89.4 26.7 174.7 25.9 80.8-.8 155-16.9 174-30 3.3-2.3 2.5-3.2 2.3-3.1z"/><pattern id="hair_i" patternTransform="matrix(.4998 .01366 -.01366 .4998 -4202.11 -3985.93)" xlink:href="#hair_g"/><path fill="url(#hair_i)" d="M621.8 229.6c19.3 38.8 31.9 81.2 32.3 81.1-18.1 2.8-35.5-7.8-41.3-25.2 0 0-7.1-7 0-21.6 7.1-14.4 9-34.3 9-34.3zm-136-167.2c10.5-8.8 5.5-1.4 21.2-36.8l12.9-6.6-14.6-5.5c-21.1 8.2-15.1 7.5-27.2 4.2.1 0 19.6 17.2 7.7 44.7zM558 49l-14.1-9.3-5.6-17-4.3 20.8s7.6 5.5 24 5.5zm11.1 25.7c25.8 23.9 22.3 23.5 11.5 2.5l-7.4-6.7c.6-9.9-5.5-15.2-5.5-15.2l1.4 19.4zm107.2 292s-4.2-37.1-15.3-35.8c-11.1 1.3-17.9 6.9-43.4 10.8 0 0 5 6.5 20.7 8.2 14.6 1.4 27.9 24.3 38 16.8zm-68.7-20.8c-46.2 11.3-157.3 12.1-206.8 3.6 50.5 17.8 141.4 24.5 224.3 6.7l-17.5-10.3z"/></g></svg>